ISO-10303-21;
HEADER;
/* Generated by software containing ST-Developer
 * from STEP Tools, Inc. (www.steptools.com) 
 */

FILE_DESCRIPTION(
/* description */ (''),
/* implementation_level */ '2;1');

FILE_NAME(
/* name */ 'backwheels.step',
/* time_stamp */ '2026-06-13T13:56:59+03:00',
/* author */ (''),
/* organization */ (''),
/* preprocessor_version */ 'ST-DEVELOPER v20.1',
/* originating_system */ 'Autodesk Translation Framework v15.8.0.0',
/* authorisation */ '');

FILE_SCHEMA (('AUTOMOTIVE_DESIGN { 1 0 10303 214 3 1 1 }'));
ENDSEC;

DATA;
#10=MECHANICAL_DESIGN_GEOMETRIC_PRESENTATION_REPRESENTATION('',(#13,#14),
#840);
#11=SHAPE_REPRESENTATION_RELATIONSHIP('SRR','None',#847,#12);
#12=ADVANCED_BREP_SHAPE_REPRESENTATION('',(#15,#16),#839);
#13=STYLED_ITEM('',(#857),#15);
#14=STYLED_ITEM('',(#857),#16);
#15=MANIFOLD_SOLID_BREP('G\X\F6vde1',#459);
#16=MANIFOLD_SOLID_BREP('G\X\F6vde2',#460);
#17=TOROIDAL_SURFACE('',#501,13.,2.);
#18=TOROIDAL_SURFACE('',#506,13.,2.);
#19=TOROIDAL_SURFACE('',#537,13.,2.);
#20=TOROIDAL_SURFACE('',#542,13.,2.);
#21=FACE_BOUND('',#123,.T.);
#22=FACE_BOUND('',#126,.T.);
#23=FACE_BOUND('',#128,.T.);
#24=FACE_BOUND('',#131,.T.);
#25=FACE_BOUND('',#133,.T.);
#26=FACE_BOUND('',#136,.T.);
#27=FACE_BOUND('',#141,.T.);
#28=FACE_BOUND('',#148,.T.);
#29=FACE_BOUND('',#151,.T.);
#30=FACE_BOUND('',#153,.T.);
#31=FACE_BOUND('',#156,.T.);
#32=FACE_BOUND('',#158,.T.);
#33=FACE_BOUND('',#160,.T.);
#34=FACE_BOUND('',#168,.T.);
#35=CIRCLE('',#476,1.49);
#36=CIRCLE('',#477,1.49);
#37=CIRCLE('',#480,15.);
#38=CIRCLE('',#481,14.);
#39=CIRCLE('',#483,14.);
#40=CIRCLE('',#485,15.);
#41=CIRCLE('',#487,15.);
#42=CIRCLE('',#488,14.);
#43=CIRCLE('',#490,14.);
#44=CIRCLE('',#492,15.);
#45=CIRCLE('',#494,15.);
#46=CIRCLE('',#495,14.);
#47=CIRCLE('',#497,14.);
#48=CIRCLE('',#499,15.);
#49=CIRCLE('',#502,2.);
#50=CIRCLE('',#503,13.);
#51=CIRCLE('',#507,13.);
#52=CIRCLE('',#508,2.);
#53=CIRCLE('',#512,1.49);
#54=CIRCLE('',#513,1.49);
#55=CIRCLE('',#516,15.);
#56=CIRCLE('',#517,14.);
#57=CIRCLE('',#519,14.);
#58=CIRCLE('',#521,15.);
#59=CIRCLE('',#523,15.);
#60=CIRCLE('',#524,14.);
#61=CIRCLE('',#526,14.);
#62=CIRCLE('',#528,15.);
#63=CIRCLE('',#530,15.);
#64=CIRCLE('',#531,14.);
#65=CIRCLE('',#533,15.);
#66=CIRCLE('',#534,14.);
#67=CIRCLE('',#538,2.);
#68=CIRCLE('',#539,13.);
#69=CIRCLE('',#543,13.);
#70=CIRCLE('',#544,2.);
#71=CYLINDRICAL_SURFACE('',#475,1.49);
#72=CYLINDRICAL_SURFACE('',#482,14.);
#73=CYLINDRICAL_SURFACE('',#489,14.);
#74=CYLINDRICAL_SURFACE('',#496,14.);
#75=CYLINDRICAL_SURFACE('',#500,15.);
#76=CYLINDRICAL_SURFACE('',#504,15.);
#77=CYLINDRICAL_SURFACE('',#511,1.49);
#78=CYLINDRICAL_SURFACE('',#518,14.);
#79=CYLINDRICAL_SURFACE('',#525,14.);
#80=CYLINDRICAL_SURFACE('',#535,14.);
#81=CYLINDRICAL_SURFACE('',#536,15.);
#82=CYLINDRICAL_SURFACE('',#540,15.);
#83=FACE_OUTER_BOUND('',#119,.T.);
#84=FACE_OUTER_BOUND('',#120,.T.);
#85=FACE_OUTER_BOUND('',#121,.T.);
#86=FACE_OUTER_BOUND('',#122,.T.);
#87=FACE_OUTER_BOUND('',#124,.T.);
#88=FACE_OUTER_BOUND('',#125,.T.);
#89=FACE_OUTER_BOUND('',#127,.T.);
#90=FACE_OUTER_BOUND('',#129,.T.);
#91=FACE_OUTER_BOUND('',#130,.T.);
#92=FACE_OUTER_BOUND('',#132,.T.);
#93=FACE_OUTER_BOUND('',#134,.T.);
#94=FACE_OUTER_BOUND('',#135,.T.);
#95=FACE_OUTER_BOUND('',#137,.T.);
#96=FACE_OUTER_BOUND('',#138,.T.);
#97=FACE_OUTER_BOUND('',#139,.T.);
#98=FACE_OUTER_BOUND('',#140,.T.);
#99=FACE_OUTER_BOUND('',#142,.T.);
#100=FACE_OUTER_BOUND('',#143,.T.);
#101=FACE_OUTER_BOUND('',#144,.T.);
#102=FACE_OUTER_BOUND('',#145,.T.);
#103=FACE_OUTER_BOUND('',#146,.T.);
#104=FACE_OUTER_BOUND('',#147,.T.);
#105=FACE_OUTER_BOUND('',#149,.T.);
#106=FACE_OUTER_BOUND('',#150,.T.);
#107=FACE_OUTER_BOUND('',#152,.T.);
#108=FACE_OUTER_BOUND('',#154,.T.);
#109=FACE_OUTER_BOUND('',#155,.T.);
#110=FACE_OUTER_BOUND('',#157,.T.);
#111=FACE_OUTER_BOUND('',#159,.T.);
#112=FACE_OUTER_BOUND('',#161,.T.);
#113=FACE_OUTER_BOUND('',#162,.T.);
#114=FACE_OUTER_BOUND('',#163,.T.);
#115=FACE_OUTER_BOUND('',#164,.T.);
#116=FACE_OUTER_BOUND('',#165,.T.);
#117=FACE_OUTER_BOUND('',#166,.T.);
#118=FACE_OUTER_BOUND('',#167,.T.);
#119=EDGE_LOOP('',(#295,#296,#297,#298));
#120=EDGE_LOOP('',(#299,#300,#301,#302));
#121=EDGE_LOOP('',(#303,#304));
#122=EDGE_LOOP('',(#305));
#123=EDGE_LOOP('',(#306));
#124=EDGE_LOOP('',(#307,#308,#309,#310));
#125=EDGE_LOOP('',(#311));
#126=EDGE_LOOP('',(#312));
#127=EDGE_LOOP('',(#313));
#128=EDGE_LOOP('',(#314));
#129=EDGE_LOOP('',(#315,#316,#317,#318));
#130=EDGE_LOOP('',(#319));
#131=EDGE_LOOP('',(#320));
#132=EDGE_LOOP('',(#321));
#133=EDGE_LOOP('',(#322));
#134=EDGE_LOOP('',(#323,#324,#325,#326));
#135=EDGE_LOOP('',(#327));
#136=EDGE_LOOP('',(#328));
#137=EDGE_LOOP('',(#329,#330,#331,#332));
#138=EDGE_LOOP('',(#333,#334,#335,#336));
#139=EDGE_LOOP('',(#337,#338,#339,#340));
#140=EDGE_LOOP('',(#341));
#141=EDGE_LOOP('',(#342,#343));
#142=EDGE_LOOP('',(#344,#345,#346,#347));
#143=EDGE_LOOP('',(#348));
#144=EDGE_LOOP('',(#349,#350,#351,#352));
#145=EDGE_LOOP('',(#353,#354,#355,#356));
#146=EDGE_LOOP('',(#357,#358));
#147=EDGE_LOOP('',(#359));
#148=EDGE_LOOP('',(#360));
#149=EDGE_LOOP('',(#361,#362,#363,#364));
#150=EDGE_LOOP('',(#365));
#151=EDGE_LOOP('',(#366));
#152=EDGE_LOOP('',(#367));
#153=EDGE_LOOP('',(#368));
#154=EDGE_LOOP('',(#369,#370,#371,#372));
#155=EDGE_LOOP('',(#373));
#156=EDGE_LOOP('',(#374));
#157=EDGE_LOOP('',(#375));
#158=EDGE_LOOP('',(#376));
#159=EDGE_LOOP('',(#377));
#160=EDGE_LOOP('',(#378));
#161=EDGE_LOOP('',(#379,#380,#381,#382));
#162=EDGE_LOOP('',(#383,#384,#385,#386));
#163=EDGE_LOOP('',(#387,#388,#389,#390));
#164=EDGE_LOOP('',(#391,#392,#393,#394));
#165=EDGE_LOOP('',(#395));
#166=EDGE_LOOP('',(#396,#397,#398,#399));
#167=EDGE_LOOP('',(#400));
#168=EDGE_LOOP('',(#401,#402));
#169=LINE('',#714,#187);
#170=LINE('',#716,#188);
#171=LINE('',#718,#189);
#172=LINE('',#719,#190);
#173=LINE('',#732,#191);
#174=LINE('',#744,#192);
#175=LINE('',#756,#193);
#176=LINE('',#761,#194);
#177=LINE('',#767,#195);
#178=LINE('',#777,#196);
#179=LINE('',#779,#197);
#180=LINE('',#781,#198);
#181=LINE('',#782,#199);
#182=LINE('',#795,#200);
#183=LINE('',#807,#201);
#184=LINE('',#822,#202);
#185=LINE('',#824,#203);
#186=LINE('',#830,#204);
#187=VECTOR('',#550,10.);
#188=VECTOR('',#551,1.);
#189=VECTOR('',#552,1.);
#190=VECTOR('',#553,1.);
#191=VECTOR('',#572,14.);
#192=VECTOR('',#587,14.);
#193=VECTOR('',#602,14.);
#194=VECTOR('',#609,15.);
#195=VECTOR('',#618,15.);
#196=VECTOR('',#631,10.);
#197=VECTOR('',#632,1.);
#198=VECTOR('',#633,1.);
#199=VECTOR('',#634,1.);
#200=VECTOR('',#653,14.);
#201=VECTOR('',#668,14.);
#202=VECTOR('',#687,14.);
#203=VECTOR('',#690,15.);
#204=VECTOR('',#699,15.);
#205=VERTEX_POINT('',#712);
#206=VERTEX_POINT('',#713);
#207=VERTEX_POINT('',#715);
#208=VERTEX_POINT('',#717);
#209=VERTEX_POINT('',#725);
#210=VERTEX_POINT('',#727);
#211=VERTEX_POINT('',#730);
#212=VERTEX_POINT('',#734);
#213=VERTEX_POINT('',#737);
#214=VERTEX_POINT('',#739);
#215=VERTEX_POINT('',#742);
#216=VERTEX_POINT('',#746);
#217=VERTEX_POINT('',#749);
#218=VERTEX_POINT('',#751);
#219=VERTEX_POINT('',#754);
#220=VERTEX_POINT('',#758);
#221=VERTEX_POINT('',#763);
#222=VERTEX_POINT('',#770);
#223=VERTEX_POINT('',#775);
#224=VERTEX_POINT('',#776);
#225=VERTEX_POINT('',#778);
#226=VERTEX_POINT('',#780);
#227=VERTEX_POINT('',#788);
#228=VERTEX_POINT('',#790);
#229=VERTEX_POINT('',#793);
#230=VERTEX_POINT('',#797);
#231=VERTEX_POINT('',#800);
#232=VERTEX_POINT('',#802);
#233=VERTEX_POINT('',#805);
#234=VERTEX_POINT('',#809);
#235=VERTEX_POINT('',#812);
#236=VERTEX_POINT('',#814);
#237=VERTEX_POINT('',#817);
#238=VERTEX_POINT('',#819);
#239=VERTEX_POINT('',#826);
#240=VERTEX_POINT('',#833);
#241=EDGE_CURVE('',#205,#206,#169,.T.);
#242=EDGE_CURVE('',#207,#205,#170,.T.);
#243=EDGE_CURVE('',#207,#208,#171,.T.);
#244=EDGE_CURVE('',#206,#208,#172,.T.);
#245=EDGE_CURVE('',#206,#205,#35,.T.);
#246=EDGE_CURVE('',#208,#207,#36,.T.);
#247=EDGE_CURVE('',#209,#209,#37,.T.);
#248=EDGE_CURVE('',#210,#210,#38,.T.);
#249=EDGE_CURVE('',#211,#211,#39,.T.);
#250=EDGE_CURVE('',#211,#210,#173,.T.);
#251=EDGE_CURVE('',#212,#212,#40,.T.);
#252=EDGE_CURVE('',#213,#213,#41,.T.);
#253=EDGE_CURVE('',#214,#214,#42,.T.);
#254=EDGE_CURVE('',#215,#215,#43,.T.);
#255=EDGE_CURVE('',#215,#214,#174,.T.);
#256=EDGE_CURVE('',#216,#216,#44,.T.);
#257=EDGE_CURVE('',#217,#217,#45,.T.);
#258=EDGE_CURVE('',#218,#218,#46,.T.);
#259=EDGE_CURVE('',#219,#219,#47,.T.);
#260=EDGE_CURVE('',#219,#218,#175,.T.);
#261=EDGE_CURVE('',#220,#220,#48,.T.);
#262=EDGE_CURVE('',#220,#209,#176,.T.);
#263=EDGE_CURVE('',#212,#221,#49,.T.);
#264=EDGE_CURVE('',#221,#221,#50,.T.);
#265=EDGE_CURVE('',#216,#217,#177,.T.);
#266=EDGE_CURVE('',#222,#222,#51,.T.);
#267=EDGE_CURVE('',#222,#213,#52,.T.);
#268=EDGE_CURVE('',#223,#224,#178,.T.);
#269=EDGE_CURVE('',#223,#225,#179,.T.);
#270=EDGE_CURVE('',#226,#225,#180,.T.);
#271=EDGE_CURVE('',#226,#224,#181,.T.);
#272=EDGE_CURVE('',#224,#223,#53,.T.);
#273=EDGE_CURVE('',#225,#226,#54,.T.);
#274=EDGE_CURVE('',#227,#227,#55,.T.);
#275=EDGE_CURVE('',#228,#228,#56,.T.);
#276=EDGE_CURVE('',#229,#229,#57,.T.);
#277=EDGE_CURVE('',#229,#228,#182,.T.);
#278=EDGE_CURVE('',#230,#230,#58,.T.);
#279=EDGE_CURVE('',#231,#231,#59,.T.);
#280=EDGE_CURVE('',#232,#232,#60,.T.);
#281=EDGE_CURVE('',#233,#233,#61,.T.);
#282=EDGE_CURVE('',#233,#232,#183,.T.);
#283=EDGE_CURVE('',#234,#234,#62,.T.);
#284=EDGE_CURVE('',#235,#235,#63,.T.);
#285=EDGE_CURVE('',#236,#236,#64,.T.);
#286=EDGE_CURVE('',#237,#237,#65,.T.);
#287=EDGE_CURVE('',#238,#238,#66,.T.);
#288=EDGE_CURVE('',#236,#238,#184,.T.);
#289=EDGE_CURVE('',#227,#234,#185,.T.);
#290=EDGE_CURVE('',#230,#239,#67,.T.);
#291=EDGE_CURVE('',#239,#239,#68,.T.);
#292=EDGE_CURVE('',#231,#235,#186,.T.);
#293=EDGE_CURVE('',#240,#240,#69,.T.);
#294=EDGE_CURVE('',#240,#237,#70,.T.);
#295=ORIENTED_EDGE('',*,*,#241,.F.);
#296=ORIENTED_EDGE('',*,*,#242,.F.);
#297=ORIENTED_EDGE('',*,*,#243,.T.);
#298=ORIENTED_EDGE('',*,*,#244,.F.);
#299=ORIENTED_EDGE('',*,*,#245,.F.);
#300=ORIENTED_EDGE('',*,*,#244,.T.);
#301=ORIENTED_EDGE('',*,*,#246,.T.);
#302=ORIENTED_EDGE('',*,*,#242,.T.);
#303=ORIENTED_EDGE('',*,*,#246,.F.);
#304=ORIENTED_EDGE('',*,*,#243,.F.);
#305=ORIENTED_EDGE('',*,*,#247,.F.);
#306=ORIENTED_EDGE('',*,*,#248,.T.);
#307=ORIENTED_EDGE('',*,*,#249,.T.);
#308=ORIENTED_EDGE('',*,*,#250,.T.);
#309=ORIENTED_EDGE('',*,*,#248,.F.);
#310=ORIENTED_EDGE('',*,*,#250,.F.);
#311=ORIENTED_EDGE('',*,*,#251,.F.);
#312=ORIENTED_EDGE('',*,*,#249,.F.);
#313=ORIENTED_EDGE('',*,*,#252,.F.);
#314=ORIENTED_EDGE('',*,*,#253,.T.);
#315=ORIENTED_EDGE('',*,*,#254,.T.);
#316=ORIENTED_EDGE('',*,*,#255,.T.);
#317=ORIENTED_EDGE('',*,*,#253,.F.);
#318=ORIENTED_EDGE('',*,*,#255,.F.);
#319=ORIENTED_EDGE('',*,*,#256,.F.);
#320=ORIENTED_EDGE('',*,*,#254,.F.);
#321=ORIENTED_EDGE('',*,*,#257,.F.);
#322=ORIENTED_EDGE('',*,*,#258,.T.);
#323=ORIENTED_EDGE('',*,*,#259,.T.);
#324=ORIENTED_EDGE('',*,*,#260,.T.);
#325=ORIENTED_EDGE('',*,*,#258,.F.);
#326=ORIENTED_EDGE('',*,*,#260,.F.);
#327=ORIENTED_EDGE('',*,*,#261,.F.);
#328=ORIENTED_EDGE('',*,*,#259,.F.);
#329=ORIENTED_EDGE('',*,*,#261,.T.);
#330=ORIENTED_EDGE('',*,*,#262,.T.);
#331=ORIENTED_EDGE('',*,*,#247,.T.);
#332=ORIENTED_EDGE('',*,*,#262,.F.);
#333=ORIENTED_EDGE('',*,*,#251,.T.);
#334=ORIENTED_EDGE('',*,*,#263,.T.);
#335=ORIENTED_EDGE('',*,*,#264,.T.);
#336=ORIENTED_EDGE('',*,*,#263,.F.);
#337=ORIENTED_EDGE('',*,*,#256,.T.);
#338=ORIENTED_EDGE('',*,*,#265,.T.);
#339=ORIENTED_EDGE('',*,*,#257,.T.);
#340=ORIENTED_EDGE('',*,*,#265,.F.);
#341=ORIENTED_EDGE('',*,*,#264,.F.);
#342=ORIENTED_EDGE('',*,*,#245,.T.);
#343=ORIENTED_EDGE('',*,*,#241,.T.);
#344=ORIENTED_EDGE('',*,*,#266,.T.);
#345=ORIENTED_EDGE('',*,*,#267,.T.);
#346=ORIENTED_EDGE('',*,*,#252,.T.);
#347=ORIENTED_EDGE('',*,*,#267,.F.);
#348=ORIENTED_EDGE('',*,*,#266,.F.);
#349=ORIENTED_EDGE('',*,*,#268,.F.);
#350=ORIENTED_EDGE('',*,*,#269,.T.);
#351=ORIENTED_EDGE('',*,*,#270,.F.);
#352=ORIENTED_EDGE('',*,*,#271,.T.);
#353=ORIENTED_EDGE('',*,*,#272,.F.);
#354=ORIENTED_EDGE('',*,*,#271,.F.);
#355=ORIENTED_EDGE('',*,*,#273,.F.);
#356=ORIENTED_EDGE('',*,*,#269,.F.);
#357=ORIENTED_EDGE('',*,*,#273,.T.);
#358=ORIENTED_EDGE('',*,*,#270,.T.);
#359=ORIENTED_EDGE('',*,*,#274,.F.);
#360=ORIENTED_EDGE('',*,*,#275,.T.);
#361=ORIENTED_EDGE('',*,*,#276,.T.);
#362=ORIENTED_EDGE('',*,*,#277,.T.);
#363=ORIENTED_EDGE('',*,*,#275,.F.);
#364=ORIENTED_EDGE('',*,*,#277,.F.);
#365=ORIENTED_EDGE('',*,*,#278,.F.);
#366=ORIENTED_EDGE('',*,*,#276,.F.);
#367=ORIENTED_EDGE('',*,*,#279,.F.);
#368=ORIENTED_EDGE('',*,*,#280,.T.);
#369=ORIENTED_EDGE('',*,*,#281,.T.);
#370=ORIENTED_EDGE('',*,*,#282,.T.);
#371=ORIENTED_EDGE('',*,*,#280,.F.);
#372=ORIENTED_EDGE('',*,*,#282,.F.);
#373=ORIENTED_EDGE('',*,*,#283,.F.);
#374=ORIENTED_EDGE('',*,*,#281,.F.);
#375=ORIENTED_EDGE('',*,*,#284,.F.);
#376=ORIENTED_EDGE('',*,*,#285,.F.);
#377=ORIENTED_EDGE('',*,*,#286,.F.);
#378=ORIENTED_EDGE('',*,*,#287,.T.);
#379=ORIENTED_EDGE('',*,*,#285,.T.);
#380=ORIENTED_EDGE('',*,*,#288,.T.);
#381=ORIENTED_EDGE('',*,*,#287,.F.);
#382=ORIENTED_EDGE('',*,*,#288,.F.);
#383=ORIENTED_EDGE('',*,*,#274,.T.);
#384=ORIENTED_EDGE('',*,*,#289,.T.);
#385=ORIENTED_EDGE('',*,*,#283,.T.);
#386=ORIENTED_EDGE('',*,*,#289,.F.);
#387=ORIENTED_EDGE('',*,*,#278,.T.);
#388=ORIENTED_EDGE('',*,*,#290,.T.);
#389=ORIENTED_EDGE('',*,*,#291,.T.);
#390=ORIENTED_EDGE('',*,*,#290,.F.);
#391=ORIENTED_EDGE('',*,*,#279,.T.);
#392=ORIENTED_EDGE('',*,*,#292,.T.);
#393=ORIENTED_EDGE('',*,*,#284,.T.);
#394=ORIENTED_EDGE('',*,*,#292,.F.);
#395=ORIENTED_EDGE('',*,*,#291,.F.);
#396=ORIENTED_EDGE('',*,*,#293,.T.);
#397=ORIENTED_EDGE('',*,*,#294,.T.);
#398=ORIENTED_EDGE('',*,*,#286,.T.);
#399=ORIENTED_EDGE('',*,*,#294,.F.);
#400=ORIENTED_EDGE('',*,*,#293,.F.);
#401=ORIENTED_EDGE('',*,*,#272,.T.);
#402=ORIENTED_EDGE('',*,*,#268,.T.);
#403=PLANE('',#474);
#404=PLANE('',#478);
#405=PLANE('',#479);
#406=PLANE('',#484);
#407=PLANE('',#486);
#408=PLANE('',#491);
#409=PLANE('',#493);
#410=PLANE('',#498);
#411=PLANE('',#505);
#412=PLANE('',#509);
#413=PLANE('',#510);
#414=PLANE('',#514);
#415=PLANE('',#515);
#416=PLANE('',#520);
#417=PLANE('',#522);
#418=PLANE('',#527);
#419=PLANE('',#529);
#420=PLANE('',#532);
#421=PLANE('',#541);
#422=PLANE('',#545);
#423=ADVANCED_FACE('',(#83),#403,.T.);
#424=ADVANCED_FACE('',(#84),#71,.F.);
#425=ADVANCED_FACE('',(#85),#404,.F.);
#426=ADVANCED_FACE('',(#86,#21),#405,.F.);
#427=ADVANCED_FACE('',(#87),#72,.T.);
#428=ADVANCED_FACE('',(#88,#22),#406,.F.);
#429=ADVANCED_FACE('',(#89,#23),#407,.F.);
#430=ADVANCED_FACE('',(#90),#73,.T.);
#431=ADVANCED_FACE('',(#91,#24),#408,.F.);
#432=ADVANCED_FACE('',(#92,#25),#409,.F.);
#433=ADVANCED_FACE('',(#93),#74,.T.);
#434=ADVANCED_FACE('',(#94,#26),#410,.F.);
#435=ADVANCED_FACE('',(#95),#75,.T.);
#436=ADVANCED_FACE('',(#96),#17,.T.);
#437=ADVANCED_FACE('',(#97),#76,.T.);
#438=ADVANCED_FACE('',(#98,#27),#411,.F.);
#439=ADVANCED_FACE('',(#99),#18,.T.);
#440=ADVANCED_FACE('',(#100),#412,.T.);
#441=ADVANCED_FACE('',(#101),#413,.F.);
#442=ADVANCED_FACE('',(#102),#77,.F.);
#443=ADVANCED_FACE('',(#103),#414,.T.);
#444=ADVANCED_FACE('',(#104,#28),#415,.F.);
#445=ADVANCED_FACE('',(#105),#78,.T.);
#446=ADVANCED_FACE('',(#106,#29),#416,.F.);
#447=ADVANCED_FACE('',(#107,#30),#417,.F.);
#448=ADVANCED_FACE('',(#108),#79,.T.);
#449=ADVANCED_FACE('',(#109,#31),#418,.F.);
#450=ADVANCED_FACE('',(#110,#32),#419,.F.);
#451=ADVANCED_FACE('',(#111,#33),#420,.F.);
#452=ADVANCED_FACE('',(#112),#80,.T.);
#453=ADVANCED_FACE('',(#113),#81,.T.);
#454=ADVANCED_FACE('',(#114),#19,.T.);
#455=ADVANCED_FACE('',(#115),#82,.T.);
#456=ADVANCED_FACE('',(#116),#421,.F.);
#457=ADVANCED_FACE('',(#117),#20,.T.);
#458=ADVANCED_FACE('',(#118,#34),#422,.T.);
#459=CLOSED_SHELL('',(#423,#424,#425,#426,#427,#428,#429,#430,#431,#432,
#433,#434,#435,#436,#437,#438,#439,#440));
#460=CLOSED_SHELL('',(#441,#442,#443,#444,#445,#446,#447,#448,#449,#450,
#451,#452,#453,#454,#455,#456,#457,#458));
#461=DERIVED_UNIT_ELEMENT(#463,1.);
#462=DERIVED_UNIT_ELEMENT(#842,-3.);
#463=(
MASS_UNIT()
NAMED_UNIT(*)
SI_UNIT(.KILO.,.GRAM.)
);
#464=DERIVED_UNIT((#461,#462));
#465=MEASURE_REPRESENTATION_ITEM('density measure',
POSITIVE_RATIO_MEASURE(7850.),#464);
#466=PROPERTY_DEFINITION_REPRESENTATION(#471,#468);
#467=PROPERTY_DEFINITION_REPRESENTATION(#472,#469);
#468=REPRESENTATION('material name',(#470),#839);
#469=REPRESENTATION('density',(#465),#839);
#470=DESCRIPTIVE_REPRESENTATION_ITEM('\X\C7elik','\X\C7elik');
#471=PROPERTY_DEFINITION('material property','material name',#849);
#472=PROPERTY_DEFINITION('material property','density of part',#849);
#473=AXIS2_PLACEMENT_3D('',#710,#546,#547);
#474=AXIS2_PLACEMENT_3D('',#711,#548,#549);
#475=AXIS2_PLACEMENT_3D('',#720,#554,#555);
#476=AXIS2_PLACEMENT_3D('',#721,#556,#557);
#477=AXIS2_PLACEMENT_3D('',#722,#558,#559);
#478=AXIS2_PLACEMENT_3D('',#723,#560,#561);
#479=AXIS2_PLACEMENT_3D('',#724,#562,#563);
#480=AXIS2_PLACEMENT_3D('',#726,#564,#565);
#481=AXIS2_PLACEMENT_3D('',#728,#566,#567);
#482=AXIS2_PLACEMENT_3D('',#729,#568,#569);
#483=AXIS2_PLACEMENT_3D('',#731,#570,#571);
#484=AXIS2_PLACEMENT_3D('',#733,#573,#574);
#485=AXIS2_PLACEMENT_3D('',#735,#575,#576);
#486=AXIS2_PLACEMENT_3D('',#736,#577,#578);
#487=AXIS2_PLACEMENT_3D('',#738,#579,#580);
#488=AXIS2_PLACEMENT_3D('',#740,#581,#582);
#489=AXIS2_PLACEMENT_3D('',#741,#583,#584);
#490=AXIS2_PLACEMENT_3D('',#743,#585,#586);
#491=AXIS2_PLACEMENT_3D('',#745,#588,#589);
#492=AXIS2_PLACEMENT_3D('',#747,#590,#591);
#493=AXIS2_PLACEMENT_3D('',#748,#592,#593);
#494=AXIS2_PLACEMENT_3D('',#750,#594,#595);
#495=AXIS2_PLACEMENT_3D('',#752,#596,#597);
#496=AXIS2_PLACEMENT_3D('',#753,#598,#599);
#497=AXIS2_PLACEMENT_3D('',#755,#600,#601);
#498=AXIS2_PLACEMENT_3D('',#757,#603,#604);
#499=AXIS2_PLACEMENT_3D('',#759,#605,#606);
#500=AXIS2_PLACEMENT_3D('',#760,#607,#608);
#501=AXIS2_PLACEMENT_3D('',#762,#610,#611);
#502=AXIS2_PLACEMENT_3D('',#764,#612,#613);
#503=AXIS2_PLACEMENT_3D('',#765,#614,#615);
#504=AXIS2_PLACEMENT_3D('',#766,#616,#617);
#505=AXIS2_PLACEMENT_3D('',#768,#619,#620);
#506=AXIS2_PLACEMENT_3D('',#769,#621,#622);
#507=AXIS2_PLACEMENT_3D('',#771,#623,#624);
#508=AXIS2_PLACEMENT_3D('',#772,#625,#626);
#509=AXIS2_PLACEMENT_3D('',#773,#627,#628);
#510=AXIS2_PLACEMENT_3D('',#774,#629,#630);
#511=AXIS2_PLACEMENT_3D('',#783,#635,#636);
#512=AXIS2_PLACEMENT_3D('',#784,#637,#638);
#513=AXIS2_PLACEMENT_3D('',#785,#639,#640);
#514=AXIS2_PLACEMENT_3D('',#786,#641,#642);
#515=AXIS2_PLACEMENT_3D('',#787,#643,#644);
#516=AXIS2_PLACEMENT_3D('',#789,#645,#646);
#517=AXIS2_PLACEMENT_3D('',#791,#647,#648);
#518=AXIS2_PLACEMENT_3D('',#792,#649,#650);
#519=AXIS2_PLACEMENT_3D('',#794,#651,#652);
#520=AXIS2_PLACEMENT_3D('',#796,#654,#655);
#521=AXIS2_PLACEMENT_3D('',#798,#656,#657);
#522=AXIS2_PLACEMENT_3D('',#799,#658,#659);
#523=AXIS2_PLACEMENT_3D('',#801,#660,#661);
#524=AXIS2_PLACEMENT_3D('',#803,#662,#663);
#525=AXIS2_PLACEMENT_3D('',#804,#664,#665);
#526=AXIS2_PLACEMENT_3D('',#806,#666,#667);
#527=AXIS2_PLACEMENT_3D('',#808,#669,#670);
#528=AXIS2_PLACEMENT_3D('',#810,#671,#672);
#529=AXIS2_PLACEMENT_3D('',#811,#673,#674);
#530=AXIS2_PLACEMENT_3D('',#813,#675,#676);
#531=AXIS2_PLACEMENT_3D('',#815,#677,#678);
#532=AXIS2_PLACEMENT_3D('',#816,#679,#680);
#533=AXIS2_PLACEMENT_3D('',#818,#681,#682);
#534=AXIS2_PLACEMENT_3D('',#820,#683,#684);
#535=AXIS2_PLACEMENT_3D('',#821,#685,#686);
#536=AXIS2_PLACEMENT_3D('',#823,#688,#689);
#537=AXIS2_PLACEMENT_3D('',#825,#691,#692);
#538=AXIS2_PLACEMENT_3D('',#827,#693,#694);
#539=AXIS2_PLACEMENT_3D('',#828,#695,#696);
#540=AXIS2_PLACEMENT_3D('',#829,#697,#698);
#541=AXIS2_PLACEMENT_3D('',#831,#700,#701);
#542=AXIS2_PLACEMENT_3D('',#832,#702,#703);
#543=AXIS2_PLACEMENT_3D('',#834,#704,#705);
#544=AXIS2_PLACEMENT_3D('',#835,#706,#707);
#545=AXIS2_PLACEMENT_3D('',#836,#708,#709);
#546=DIRECTION('axis',(0.,0.,1.));
#547=DIRECTION('refdir',(1.,0.,0.));
#548=DIRECTION('center_axis',(6.7762635780344E-19,-1.,-5.55111512312578E-17));
#549=DIRECTION('ref_axis',(9.8086415292048E-19,5.55111512312578E-17,-1.));
#550=DIRECTION('',(-1.,-6.7762635780344E-19,-2.54787510534094E-18));
#551=DIRECTION('',(9.8086415292048E-19,5.55111512312578E-17,-1.));
#552=DIRECTION('',(-1.,-6.7762635780344E-19,-9.8086415292048E-19));
#553=DIRECTION('',(-9.8086415292048E-19,-5.55111512312578E-17,1.));
#554=DIRECTION('center_axis',(9.8086415292048E-19,5.55111512312578E-17,
-1.));
#555=DIRECTION('ref_axis',(1.84374646229906E-16,-1.,-5.55111512312578E-17));
#556=DIRECTION('center_axis',(-2.54787510534094E-18,3.60359939245219E-52,
1.));
#557=DIRECTION('ref_axis',(-1.,-6.7762635780344E-19,-9.8086415292048E-19));
#558=DIRECTION('center_axis',(-9.8086415292048E-19,-5.55111512312578E-17,
1.));
#559=DIRECTION('ref_axis',(1.,6.7762635780344E-19,9.8086415292048E-19));
#560=DIRECTION('center_axis',(-9.8086415292048E-19,-5.55111512312578E-17,
1.));
#561=DIRECTION('ref_axis',(1.,6.7762635780344E-19,9.8086415292048E-19));
#562=DIRECTION('center_axis',(0.,0.,1.));
#563=DIRECTION('ref_axis',(1.,0.,0.));
#564=DIRECTION('center_axis',(0.,0.,1.));
#565=DIRECTION('ref_axis',(1.,-4.82872530631891E-51,0.));
#566=DIRECTION('center_axis',(0.,0.,1.));
#567=DIRECTION('ref_axis',(1.,0.,0.));
#568=DIRECTION('center_axis',(0.,0.,1.));
#569=DIRECTION('ref_axis',(1.,0.,0.));
#570=DIRECTION('center_axis',(0.,0.,1.));
#571=DIRECTION('ref_axis',(1.,0.,0.));
#572=DIRECTION('',(0.,0.,1.));
#573=DIRECTION('center_axis',(0.,0.,-1.));
#574=DIRECTION('ref_axis',(-1.,0.,0.));
#575=DIRECTION('center_axis',(2.54787510534094E-18,-3.60359939245219E-52,
-1.));
#576=DIRECTION('ref_axis',(1.,4.80479918993625E-53,0.));
#577=DIRECTION('center_axis',(0.,0.,1.));
#578=DIRECTION('ref_axis',(1.,0.,0.));
#579=DIRECTION('center_axis',(-2.54787510534094E-18,3.60359939245219E-52,
1.));
#580=DIRECTION('ref_axis',(1.,-4.80479918993625E-53,0.));
#581=DIRECTION('center_axis',(0.,0.,1.));
#582=DIRECTION('ref_axis',(1.,0.,0.));
#583=DIRECTION('center_axis',(0.,0.,1.));
#584=DIRECTION('ref_axis',(1.,0.,0.));
#585=DIRECTION('center_axis',(0.,0.,1.));
#586=DIRECTION('ref_axis',(1.,0.,0.));
#587=DIRECTION('',(0.,0.,1.));
#588=DIRECTION('center_axis',(0.,0.,-1.));
#589=DIRECTION('ref_axis',(-1.,0.,0.));
#590=DIRECTION('center_axis',(0.,0.,-1.));
#591=DIRECTION('ref_axis',(1.,-4.82872530631891E-51,0.));
#592=DIRECTION('center_axis',(0.,0.,1.));
#593=DIRECTION('ref_axis',(1.,0.,0.));
#594=DIRECTION('center_axis',(0.,0.,1.));
#595=DIRECTION('ref_axis',(1.,-4.82872530631891E-51,0.));
#596=DIRECTION('center_axis',(0.,0.,1.));
#597=DIRECTION('ref_axis',(1.,0.,0.));
#598=DIRECTION('center_axis',(0.,0.,1.));
#599=DIRECTION('ref_axis',(1.,0.,0.));
#600=DIRECTION('center_axis',(0.,0.,1.));
#601=DIRECTION('ref_axis',(1.,0.,0.));
#602=DIRECTION('',(0.,0.,1.));
#603=DIRECTION('center_axis',(0.,0.,-1.));
#604=DIRECTION('ref_axis',(-1.,0.,0.));
#605=DIRECTION('center_axis',(0.,0.,-1.));
#606=DIRECTION('ref_axis',(1.,-4.82872530631891E-51,0.));
#607=DIRECTION('center_axis',(0.,0.,1.));
#608=DIRECTION('ref_axis',(1.,-4.82872530631891E-51,0.));
#609=DIRECTION('',(0.,0.,-1.));
#610=DIRECTION('center_axis',(-2.54787510534094E-18,3.60359939245219E-52,
1.));
#611=DIRECTION('ref_axis',(1.,0.,0.));
#612=DIRECTION('center_axis',(1.48029736616688E-16,-1.,3.77161280775834E-34));
#613=DIRECTION('ref_axis',(-1.,-1.48029736616688E-16,0.));
#614=DIRECTION('center_axis',(-2.54787510534094E-18,3.60359939245219E-52,
1.));
#615=DIRECTION('ref_axis',(1.,4.80479918993625E-53,2.54787510534094E-18));
#616=DIRECTION('center_axis',(0.,0.,1.));
#617=DIRECTION('ref_axis',(1.,-4.82872530631891E-51,0.));
#618=DIRECTION('',(0.,0.,-1.));
#619=DIRECTION('center_axis',(-2.54787510534094E-18,3.60359939245219E-52,
1.));
#620=DIRECTION('ref_axis',(1.,-4.82872530631891E-51,2.54787510534094E-18));
#621=DIRECTION('center_axis',(-2.54787510534094E-18,3.60359939245219E-52,
1.));
#622=DIRECTION('ref_axis',(1.,0.,0.));
#623=DIRECTION('center_axis',(2.54787510534094E-18,-3.60359939245219E-52,
-1.));
#624=DIRECTION('ref_axis',(1.,-4.80479918993625E-53,2.54787510534094E-18));
#625=DIRECTION('center_axis',(1.48029736616688E-16,-1.,3.77161280775834E-34));
#626=DIRECTION('ref_axis',(-1.,-1.48029736616688E-16,0.));
#627=DIRECTION('center_axis',(-2.54787510534094E-18,3.60359939245219E-52,
1.));
#628=DIRECTION('ref_axis',(1.,-4.82872530631891E-51,2.54787510534094E-18));
#629=DIRECTION('center_axis',(-6.7762635780344E-19,1.,-5.55111512312578E-17));
#630=DIRECTION('ref_axis',(9.8086415292048E-19,5.55111512312578E-17,1.));
#631=DIRECTION('',(1.,6.7762635780344E-19,-2.54787510534094E-18));
#632=DIRECTION('',(-9.8086415292048E-19,-5.55111512312578E-17,-1.));
#633=DIRECTION('',(-1.,-6.7762635780344E-19,9.8086415292048E-19));
#634=DIRECTION('',(9.8086415292048E-19,5.55111512312578E-17,1.));
#635=DIRECTION('center_axis',(-9.8086415292048E-19,-5.55111512312578E-17,
-1.));
#636=DIRECTION('ref_axis',(1.84374646229906E-16,-1.,5.55111512312578E-17));
#637=DIRECTION('center_axis',(-2.54787510534094E-18,3.60359939245219E-52,
-1.));
#638=DIRECTION('ref_axis',(-1.,-6.7762635780344E-19,9.8086415292048E-19));
#639=DIRECTION('center_axis',(9.8086415292048E-19,5.55111512312578E-17,
1.));
#640=DIRECTION('ref_axis',(1.,6.7762635780344E-19,-9.8086415292048E-19));
#641=DIRECTION('center_axis',(9.8086415292048E-19,5.55111512312578E-17,
1.));
#642=DIRECTION('ref_axis',(1.,6.7762635780344E-19,-9.8086415292048E-19));
#643=DIRECTION('center_axis',(0.,0.,1.));
#644=DIRECTION('ref_axis',(1.,0.,0.));
#645=DIRECTION('center_axis',(0.,0.,1.));
#646=DIRECTION('ref_axis',(1.,-4.82872530631891E-51,0.));
#647=DIRECTION('center_axis',(0.,0.,1.));
#648=DIRECTION('ref_axis',(1.,0.,0.));
#649=DIRECTION('center_axis',(0.,0.,1.));
#650=DIRECTION('ref_axis',(1.,0.,0.));
#651=DIRECTION('center_axis',(0.,0.,1.));
#652=DIRECTION('ref_axis',(1.,0.,0.));
#653=DIRECTION('',(0.,0.,1.));
#654=DIRECTION('center_axis',(0.,0.,-1.));
#655=DIRECTION('ref_axis',(-1.,0.,0.));
#656=DIRECTION('center_axis',(-2.54787510534094E-18,3.60359939245219E-52,
-1.));
#657=DIRECTION('ref_axis',(1.,-4.80479918993625E-53,0.));
#658=DIRECTION('center_axis',(0.,0.,1.));
#659=DIRECTION('ref_axis',(1.,0.,0.));
#660=DIRECTION('center_axis',(0.,0.,1.));
#661=DIRECTION('ref_axis',(1.,-4.82872530631891E-51,0.));
#662=DIRECTION('center_axis',(0.,0.,1.));
#663=DIRECTION('ref_axis',(1.,0.,0.));
#664=DIRECTION('center_axis',(0.,0.,1.));
#665=DIRECTION('ref_axis',(1.,0.,0.));
#666=DIRECTION('center_axis',(0.,0.,1.));
#667=DIRECTION('ref_axis',(1.,0.,0.));
#668=DIRECTION('',(0.,0.,1.));
#669=DIRECTION('center_axis',(0.,0.,-1.));
#670=DIRECTION('ref_axis',(-1.,0.,0.));
#671=DIRECTION('center_axis',(0.,0.,-1.));
#672=DIRECTION('ref_axis',(1.,-4.82872530631891E-51,0.));
#673=DIRECTION('center_axis',(0.,0.,-1.));
#674=DIRECTION('ref_axis',(-1.,0.,0.));
#675=DIRECTION('center_axis',(0.,0.,-1.));
#676=DIRECTION('ref_axis',(1.,-4.82872530631891E-51,0.));
#677=DIRECTION('center_axis',(0.,0.,1.));
#678=DIRECTION('ref_axis',(1.,0.,0.));
#679=DIRECTION('center_axis',(0.,0.,1.));
#680=DIRECTION('ref_axis',(1.,0.,0.));
#681=DIRECTION('center_axis',(2.54787510534094E-18,-3.60359939245219E-52,
1.));
#682=DIRECTION('ref_axis',(1.,4.80479918993625E-53,0.));
#683=DIRECTION('center_axis',(0.,0.,1.));
#684=DIRECTION('ref_axis',(1.,0.,0.));
#685=DIRECTION('center_axis',(0.,0.,1.));
#686=DIRECTION('ref_axis',(1.,0.,0.));
#687=DIRECTION('',(0.,0.,1.));
#688=DIRECTION('center_axis',(0.,0.,1.));
#689=DIRECTION('ref_axis',(1.,-4.82872530631891E-51,0.));
#690=DIRECTION('',(0.,0.,1.));
#691=DIRECTION('center_axis',(2.54787510534094E-18,-3.60359939245219E-52,
1.));
#692=DIRECTION('ref_axis',(1.,0.,0.));
#693=DIRECTION('center_axis',(1.48029736616688E-16,-1.,-3.77161280775834E-34));
#694=DIRECTION('ref_axis',(-1.,-1.48029736616688E-16,0.));
#695=DIRECTION('center_axis',(2.54787510534094E-18,-3.60359939245219E-52,
1.));
#696=DIRECTION('ref_axis',(1.,-4.80479918993625E-53,-2.54787510534094E-18));
#697=DIRECTION('center_axis',(0.,0.,1.));
#698=DIRECTION('ref_axis',(1.,-4.82872530631891E-51,0.));
#699=DIRECTION('',(0.,0.,1.));
#700=DIRECTION('center_axis',(2.54787510534094E-18,-3.60359939245219E-52,
1.));
#701=DIRECTION('ref_axis',(1.,-4.82872530631891E-51,-2.54787510534094E-18));
#702=DIRECTION('center_axis',(2.54787510534094E-18,-3.60359939245219E-52,
1.));
#703=DIRECTION('ref_axis',(1.,0.,0.));
#704=DIRECTION('center_axis',(-2.54787510534094E-18,3.60359939245219E-52,
-1.));
#705=DIRECTION('ref_axis',(1.,4.80479918993625E-53,-2.54787510534094E-18));
#706=DIRECTION('center_axis',(1.48029736616688E-16,-1.,-3.77161280775834E-34));
#707=DIRECTION('ref_axis',(-1.,-1.48029736616688E-16,0.));
#708=DIRECTION('center_axis',(2.54787510534094E-18,-3.60359939245219E-52,
1.));
#709=DIRECTION('ref_axis',(1.,-4.82872530631891E-51,-2.54787510534094E-18));
#710=CARTESIAN_POINT('',(0.,0.,0.));
#711=CARTESIAN_POINT('Origin',(-1.0964412264871,9.01,47.8589676559675));
#712=CARTESIAN_POINT('',(1.09444900353356,9.01,39.8589676559675));
#713=CARTESIAN_POINT('',(-1.0964412264871,9.01,39.8589676559675));
#714=CARTESIAN_POINT('',(-0.548718668981932,9.01,39.8589676559675));
#715=CARTESIAN_POINT('',(1.09444900353356,9.01,47.8589676559675));
#716=CARTESIAN_POINT('',(1.09444900353356,9.01,47.8589676559675));
#717=CARTESIAN_POINT('',(-1.0964412264871,9.01,47.8589676559675));
#718=CARTESIAN_POINT('',(-1.0964412264871,9.01,47.8589676559675));
#719=CARTESIAN_POINT('',(-1.0964412264871,9.01,47.8589676559675));
#720=CARTESIAN_POINT('Origin',(-0.000996111476767061,8.,47.8589676559675));
#721=CARTESIAN_POINT('Origin',(-0.000996111476767053,8.,39.8589676559675));
#722=CARTESIAN_POINT('Origin',(-0.000996111476767061,8.,47.8589676559675));
#723=CARTESIAN_POINT('Origin',(-0.000996111476767061,8.,47.8589676559675));
#724=CARTESIAN_POINT('Origin',(13.9990038885232,8.,44.8589676559675));
#725=CARTESIAN_POINT('',(-15.0009961114768,8.,44.8589676559675));
#726=CARTESIAN_POINT('Origin',(-0.000996111476767081,8.,44.8589676559675));
#727=CARTESIAN_POINT('',(-14.0009961114768,8.,44.8589676559675));
#728=CARTESIAN_POINT('Origin',(-0.000996111476767081,8.,44.8589676559675));
#729=CARTESIAN_POINT('Origin',(-0.000996111476767081,8.,43.3589676559675));
#730=CARTESIAN_POINT('',(-14.0009961114768,8.,41.8589676559675));
#731=CARTESIAN_POINT('Origin',(-0.000996111476767081,8.,41.8589676559675));
#732=CARTESIAN_POINT('',(-14.0009961114768,8.,43.3589676559675));
#733=CARTESIAN_POINT('Origin',(14.9990038885232,8.,41.8589676559675));
#734=CARTESIAN_POINT('',(-15.0009961114768,8.,41.8589676559675));
#735=CARTESIAN_POINT('Origin',(-0.000996111476767081,8.,41.8589676559675));
#736=CARTESIAN_POINT('Origin',(13.9990038885232,8.,52.8589676559675));
#737=CARTESIAN_POINT('',(-15.0009961114768,8.,52.8589676559675));
#738=CARTESIAN_POINT('Origin',(-0.000996111476767081,8.,52.8589676559675));
#739=CARTESIAN_POINT('',(-14.0009961114768,8.,52.8589676559675));
#740=CARTESIAN_POINT('Origin',(-0.000996111476767081,8.,52.8589676559675));
#741=CARTESIAN_POINT('Origin',(-0.000996111476767081,8.,51.3589676559675));
#742=CARTESIAN_POINT('',(-14.0009961114768,8.,49.8589676559675));
#743=CARTESIAN_POINT('Origin',(-0.000996111476767081,8.,49.8589676559675));
#744=CARTESIAN_POINT('',(-14.0009961114768,8.,51.3589676559675));
#745=CARTESIAN_POINT('Origin',(14.9990038885232,8.,49.8589676559675));
#746=CARTESIAN_POINT('',(-15.0009961114768,8.,49.8589676559675));
#747=CARTESIAN_POINT('Origin',(-0.000996111476767081,8.,49.8589676559675));
#748=CARTESIAN_POINT('Origin',(13.9990038885232,8.,48.3589676559675));
#749=CARTESIAN_POINT('',(-15.0009961114768,8.,48.3589676559675));
#750=CARTESIAN_POINT('Origin',(-0.000996111476767081,8.,48.3589676559675));
#751=CARTESIAN_POINT('',(-14.0009961114768,8.,48.3589676559675));
#752=CARTESIAN_POINT('Origin',(-0.000996111476767081,8.,48.3589676559675));
#753=CARTESIAN_POINT('Origin',(-0.000996111476767081,8.,47.3589676559675));
#754=CARTESIAN_POINT('',(-14.0009961114768,8.,46.3589676559675));
#755=CARTESIAN_POINT('Origin',(-0.000996111476767081,8.,46.3589676559675));
#756=CARTESIAN_POINT('',(-14.0009961114768,8.,47.3589676559675));
#757=CARTESIAN_POINT('Origin',(14.9990038885232,8.,46.3589676559675));
#758=CARTESIAN_POINT('',(-15.0009961114768,8.,46.3589676559675));
#759=CARTESIAN_POINT('Origin',(-0.000996111476767081,8.,46.3589676559675));
#760=CARTESIAN_POINT('Origin',(-0.000996111476767081,8.,39.8589676559675));
#761=CARTESIAN_POINT('',(-15.0009961114768,8.,39.8589676559675));
#762=CARTESIAN_POINT('Origin',(-0.000996111476767081,8.,41.8589676559675));
#763=CARTESIAN_POINT('',(-13.0009961114768,8.,39.8589676559675));
#764=CARTESIAN_POINT('Origin',(-13.0009961114768,8.,41.8589676559675));
#765=CARTESIAN_POINT('Origin',(-0.000996111476767076,8.,39.8589676559675));
#766=CARTESIAN_POINT('Origin',(-0.000996111476767081,8.,39.8589676559675));
#767=CARTESIAN_POINT('',(-15.0009961114768,8.,39.8589676559675));
#768=CARTESIAN_POINT('Origin',(-0.000996111476767693,8.,39.8589676559675));
#769=CARTESIAN_POINT('Origin',(-0.000996111476767081,8.,52.8589676559675));
#770=CARTESIAN_POINT('',(-13.0009961114768,8.,54.8589676559675));
#771=CARTESIAN_POINT('Origin',(-0.000996111476767086,8.,54.8589676559675));
#772=CARTESIAN_POINT('Origin',(-13.0009961114768,8.,52.8589676559675));
#773=CARTESIAN_POINT('Origin',(-0.000996111476767693,8.,54.8589676559675));
#774=CARTESIAN_POINT('Origin',(-1.0964412264871,9.01,-47.8589676559675));
#775=CARTESIAN_POINT('',(-1.0964412264871,9.01,-39.8589676559675));
#776=CARTESIAN_POINT('',(1.09444900353356,9.01,-39.8589676559675));
#777=CARTESIAN_POINT('',(-0.548718668981932,9.01,-39.8589676559675));
#778=CARTESIAN_POINT('',(-1.0964412264871,9.01,-47.8589676559675));
#779=CARTESIAN_POINT('',(-1.0964412264871,9.01,-47.8589676559675));
#780=CARTESIAN_POINT('',(1.09444900353356,9.01,-47.8589676559675));
#781=CARTESIAN_POINT('',(-1.0964412264871,9.01,-47.8589676559675));
#782=CARTESIAN_POINT('',(1.09444900353356,9.01,-47.8589676559675));
#783=CARTESIAN_POINT('Origin',(-0.000996111476767061,8.,-47.8589676559675));
#784=CARTESIAN_POINT('Origin',(-0.000996111476767053,8.,-39.8589676559675));
#785=CARTESIAN_POINT('Origin',(-0.000996111476767061,8.,-47.8589676559675));
#786=CARTESIAN_POINT('Origin',(-0.000996111476767061,8.,-47.8589676559675));
#787=CARTESIAN_POINT('Origin',(13.9990038885232,8.,-49.8589676559675));
#788=CARTESIAN_POINT('',(-15.0009961114768,8.,-49.8589676559675));
#789=CARTESIAN_POINT('Origin',(-0.000996111476767081,8.,-49.8589676559675));
#790=CARTESIAN_POINT('',(-14.0009961114768,8.,-49.8589676559675));
#791=CARTESIAN_POINT('Origin',(-0.000996111476767081,8.,-49.8589676559675));
#792=CARTESIAN_POINT('Origin',(-0.000996111476767081,8.,-51.3589676559675));
#793=CARTESIAN_POINT('',(-14.0009961114768,8.,-52.8589676559675));
#794=CARTESIAN_POINT('Origin',(-0.000996111476767081,8.,-52.8589676559675));
#795=CARTESIAN_POINT('',(-14.0009961114768,8.,-51.3589676559675));
#796=CARTESIAN_POINT('Origin',(14.9990038885232,8.,-52.8589676559675));
#797=CARTESIAN_POINT('',(-15.0009961114768,8.00000000000001,-52.8589676559675));
#798=CARTESIAN_POINT('Origin',(-0.000996111476767081,8.,-52.8589676559675));
#799=CARTESIAN_POINT('Origin',(13.9990038885232,8.,-46.3589676559675));
#800=CARTESIAN_POINT('',(-15.0009961114768,8.,-46.3589676559675));
#801=CARTESIAN_POINT('Origin',(-0.000996111476767081,8.,-46.3589676559675));
#802=CARTESIAN_POINT('',(-14.0009961114768,8.,-46.3589676559675));
#803=CARTESIAN_POINT('Origin',(-0.000996111476767081,8.,-46.3589676559675));
#804=CARTESIAN_POINT('Origin',(-0.000996111476767081,8.,-47.3589676559675));
#805=CARTESIAN_POINT('',(-14.0009961114768,8.,-48.3589676559675));
#806=CARTESIAN_POINT('Origin',(-0.000996111476767081,8.,-48.3589676559675));
#807=CARTESIAN_POINT('',(-14.0009961114768,8.,-47.3589676559675));
#808=CARTESIAN_POINT('Origin',(14.9990038885232,8.,-48.3589676559675));
#809=CARTESIAN_POINT('',(-15.0009961114768,8.,-48.3589676559675));
#810=CARTESIAN_POINT('Origin',(-0.000996111476767081,8.,-48.3589676559675));
#811=CARTESIAN_POINT('Origin',(14.9990038885232,8.,-44.8589676559675));
#812=CARTESIAN_POINT('',(-15.0009961114768,8.,-44.8589676559675));
#813=CARTESIAN_POINT('Origin',(-0.000996111476767081,8.,-44.8589676559675));
#814=CARTESIAN_POINT('',(-14.0009961114768,8.,-44.8589676559675));
#815=CARTESIAN_POINT('Origin',(-0.000996111476767081,8.,-44.8589676559675));
#816=CARTESIAN_POINT('Origin',(13.9990038885232,8.,-41.8589676559675));
#817=CARTESIAN_POINT('',(-15.0009961114768,8.,-41.8589676559675));
#818=CARTESIAN_POINT('Origin',(-0.000996111476767081,8.,-41.8589676559675));
#819=CARTESIAN_POINT('',(-14.0009961114768,8.,-41.8589676559675));
#820=CARTESIAN_POINT('Origin',(-0.000996111476767081,8.,-41.8589676559675));
#821=CARTESIAN_POINT('Origin',(-0.000996111476767081,8.,-43.3589676559675));
#822=CARTESIAN_POINT('',(-14.0009961114768,8.,-43.3589676559675));
#823=CARTESIAN_POINT('Origin',(-0.000996111476767081,8.,-39.8589676559675));
#824=CARTESIAN_POINT('',(-15.0009961114768,8.,-39.8589676559675));
#825=CARTESIAN_POINT('Origin',(-0.000996111476767081,8.,-52.8589676559675));
#826=CARTESIAN_POINT('',(-13.0009961114768,8.,-54.8589676559675));
#827=CARTESIAN_POINT('Origin',(-13.0009961114768,8.,-52.8589676559675));
#828=CARTESIAN_POINT('Origin',(-0.000996111476767086,8.,-54.8589676559675));
#829=CARTESIAN_POINT('Origin',(-0.000996111476767081,8.,-39.8589676559675));
#830=CARTESIAN_POINT('',(-15.0009961114768,8.,-39.8589676559675));
#831=CARTESIAN_POINT('Origin',(-0.000996111476767693,8.,-54.8589676559675));
#832=CARTESIAN_POINT('Origin',(-0.000996111476767081,8.,-41.8589676559675));
#833=CARTESIAN_POINT('',(-13.0009961114768,8.,-39.8589676559675));
#834=CARTESIAN_POINT('Origin',(-0.000996111476767076,8.,-39.8589676559675));
#835=CARTESIAN_POINT('Origin',(-13.0009961114768,8.,-41.8589676559675));
#836=CARTESIAN_POINT('Origin',(-0.000996111476767693,8.,-39.8589676559675));
#837=UNCERTAINTY_MEASURE_WITH_UNIT(LENGTH_MEASURE(0.01),#841,
'DISTANCE_ACCURACY_VALUE',
'Maximum model space distance between geometric entities at asserted c
onnectivities');
#838=UNCERTAINTY_MEASURE_WITH_UNIT(LENGTH_MEASURE(0.01),#841,
'DISTANCE_ACCURACY_VALUE',
'Maximum model space distance between geometric entities at asserted c
onnectivities');
#839=(
GEOMETRIC_REPRESENTATION_CONTEXT(3)
GLOBAL_UNCERTAINTY_ASSIGNED_CONTEXT((#837))
GLOBAL_UNIT_ASSIGNED_CONTEXT((#841,#843,#844))
REPRESENTATION_CONTEXT('','3D')
);
#840=(
GEOMETRIC_REPRESENTATION_CONTEXT(3)
GLOBAL_UNCERTAINTY_ASSIGNED_CONTEXT((#838))
GLOBAL_UNIT_ASSIGNED_CONTEXT((#841,#843,#844))
REPRESENTATION_CONTEXT('','3D')
);
#841=(
LENGTH_UNIT()
NAMED_UNIT(*)
SI_UNIT(.MILLI.,.METRE.)
);
#842=(
LENGTH_UNIT()
NAMED_UNIT(*)
SI_UNIT($,.METRE.)
);
#843=(
NAMED_UNIT(*)
PLANE_ANGLE_UNIT()
SI_UNIT($,.RADIAN.)
);
#844=(
NAMED_UNIT(*)
SI_UNIT($,.STERADIAN.)
SOLID_ANGLE_UNIT()
);
#845=SHAPE_DEFINITION_REPRESENTATION(#846,#847);
#846=PRODUCT_DEFINITION_SHAPE('',$,#849);
#847=SHAPE_REPRESENTATION('',(#473),#839);
#848=PRODUCT_DEFINITION_CONTEXT('part definition',#853,'design');
#849=PRODUCT_DEFINITION('2026-06-13-13-56-59-388','backwheels',#850,#848);
#850=PRODUCT_DEFINITION_FORMATION('',$,#855);
#851=PRODUCT_RELATED_PRODUCT_CATEGORY('backwheels','backwheels',(#855));
#852=APPLICATION_PROTOCOL_DEFINITION('international standard',
'automotive_design',2009,#853);
#853=APPLICATION_CONTEXT(
'Core Data for Automotive Mechanical Design Process');
#854=PRODUCT_CONTEXT('part definition',#853,'mechanical');
#855=PRODUCT('2026-06-13-13-56-59-388','backwheels',$,(#854));
#856=PRESENTATION_STYLE_ASSIGNMENT((#858));
#857=PRESENTATION_STYLE_ASSIGNMENT((#859));
#858=SURFACE_STYLE_USAGE(.BOTH.,#860);
#859=SURFACE_STYLE_USAGE(.BOTH.,#861);
#860=SURFACE_SIDE_STYLE('',(#862));
#861=SURFACE_SIDE_STYLE('',(#863));
#862=SURFACE_STYLE_FILL_AREA(#864);
#863=SURFACE_STYLE_FILL_AREA(#865);
#864=FILL_AREA_STYLE('\X\C7elik - Saten',(#866));
#865=FILL_AREA_STYLE('Plastik - Mat (Siyah)',(#867));
#866=FILL_AREA_STYLE_COLOUR('\X\C7elik - Saten',#868);
#867=FILL_AREA_STYLE_COLOUR('Plastik - Mat (Siyah)',#869);
#868=COLOUR_RGB('\X\C7elik - Saten',0.627450980392157,0.627450980392157,
0.627450980392157);
#869=COLOUR_RGB('Plastik - Mat (Siyah)',0.0980392156862745,0.0980392156862745,
0.0980392156862745);
ENDSEC;
END-ISO-10303-21;
