ISO-10303-21;
HEADER;
/* Generated by software containing ST-Developer
 * from STEP Tools, Inc. (www.steptools.com) 
 */

FILE_DESCRIPTION(
/* description */ (''),
/* implementation_level */ '2;1');

FILE_NAME(
/* name */ 'battery lid.step',
/* time_stamp */ '2026-06-13T13:56:29+03:00',
/* author */ (''),
/* organization */ (''),
/* preprocessor_version */ 'ST-DEVELOPER v20.1',
/* originating_system */ 'Autodesk Translation Framework v15.8.0.0',
/* authorisation */ '');

FILE_SCHEMA (('AUTOMOTIVE_DESIGN { 1 0 10303 214 3 1 1 }'));
ENDSEC;

DATA;
#10=MECHANICAL_DESIGN_GEOMETRIC_PRESENTATION_REPRESENTATION('',(#13),#397);
#11=SHAPE_REPRESENTATION_RELATIONSHIP('SRR','None',#404,#12);
#12=ADVANCED_BREP_SHAPE_REPRESENTATION('',(#14),#396);
#13=STYLED_ITEM('',(#413),#14);
#14=MANIFOLD_SOLID_BREP('G\X\F6vde1',#233);
#15=FACE_BOUND('',#50,.T.);
#16=FACE_BOUND('',#51,.T.);
#17=FACE_BOUND('',#53,.T.);
#18=FACE_BOUND('',#54,.T.);
#19=PLANE('',#256);
#20=PLANE('',#257);
#21=PLANE('',#258);
#22=PLANE('',#262);
#23=PLANE('',#263);
#24=PLANE('',#264);
#25=PLANE('',#265);
#26=PLANE('',#266);
#27=FACE_OUTER_BOUND('',#39,.T.);
#28=FACE_OUTER_BOUND('',#40,.T.);
#29=FACE_OUTER_BOUND('',#41,.T.);
#30=FACE_OUTER_BOUND('',#42,.T.);
#31=FACE_OUTER_BOUND('',#43,.T.);
#32=FACE_OUTER_BOUND('',#44,.T.);
#33=FACE_OUTER_BOUND('',#45,.T.);
#34=FACE_OUTER_BOUND('',#46,.T.);
#35=FACE_OUTER_BOUND('',#47,.T.);
#36=FACE_OUTER_BOUND('',#48,.T.);
#37=FACE_OUTER_BOUND('',#49,.T.);
#38=FACE_OUTER_BOUND('',#52,.T.);
#39=EDGE_LOOP('',(#157,#158,#159,#160));
#40=EDGE_LOOP('',(#161,#162,#163,#164));
#41=EDGE_LOOP('',(#165,#166,#167,#168));
#42=EDGE_LOOP('',(#169,#170,#171,#172));
#43=EDGE_LOOP('',(#173,#174,#175,#176));
#44=EDGE_LOOP('',(#177,#178,#179,#180));
#45=EDGE_LOOP('',(#181,#182,#183,#184));
#46=EDGE_LOOP('',(#185,#186,#187,#188));
#47=EDGE_LOOP('',(#189,#190,#191,#192));
#48=EDGE_LOOP('',(#193,#194,#195,#196));
#49=EDGE_LOOP('',(#197,#198,#199,#200,#201,#202,#203,#204));
#50=EDGE_LOOP('',(#205));
#51=EDGE_LOOP('',(#206));
#52=EDGE_LOOP('',(#207,#208,#209,#210,#211,#212,#213,#214));
#53=EDGE_LOOP('',(#215));
#54=EDGE_LOOP('',(#216));
#55=LINE('',#336,#77);
#56=LINE('',#342,#78);
#57=LINE('',#349,#79);
#58=LINE('',#352,#80);
#59=LINE('',#355,#81);
#60=LINE('',#357,#82);
#61=LINE('',#358,#83);
#62=LINE('',#361,#84);
#63=LINE('',#363,#85);
#64=LINE('',#364,#86);
#65=LINE('',#367,#87);
#66=LINE('',#369,#88);
#67=LINE('',#370,#89);
#68=LINE('',#376,#90);
#69=LINE('',#379,#91);
#70=LINE('',#381,#92);
#71=LINE('',#382,#93);
#72=LINE('',#385,#94);
#73=LINE('',#387,#95);
#74=LINE('',#388,#96);
#75=LINE('',#390,#97);
#76=LINE('',#391,#98);
#77=VECTOR('',#273,2.);
#78=VECTOR('',#280,1.99999999999999);
#79=VECTOR('',#287,10.);
#80=VECTOR('',#290,10.);
#81=VECTOR('',#293,10.);
#82=VECTOR('',#294,10.);
#83=VECTOR('',#295,10.);
#84=VECTOR('',#298,10.);
#85=VECTOR('',#299,10.);
#86=VECTOR('',#300,10.);
#87=VECTOR('',#303,10.);
#88=VECTOR('',#304,10.);
#89=VECTOR('',#305,10.);
#90=VECTOR('',#312,10.);
#91=VECTOR('',#315,10.);
#92=VECTOR('',#316,10.);
#93=VECTOR('',#317,10.);
#94=VECTOR('',#320,10.);
#95=VECTOR('',#321,10.);
#96=VECTOR('',#322,10.);
#97=VECTOR('',#325,10.);
#98=VECTOR('',#326,10.);
#99=CIRCLE('',#248,2.);
#100=CIRCLE('',#249,2.);
#101=CIRCLE('',#251,1.99999999999999);
#102=CIRCLE('',#252,1.99999999999999);
#103=CIRCLE('',#254,3.);
#104=CIRCLE('',#255,3.);
#105=CIRCLE('',#260,3.00000000000001);
#106=CIRCLE('',#261,3.00000000000001);
#107=VERTEX_POINT('',#333);
#108=VERTEX_POINT('',#335);
#109=VERTEX_POINT('',#339);
#110=VERTEX_POINT('',#341);
#111=VERTEX_POINT('',#345);
#112=VERTEX_POINT('',#346);
#113=VERTEX_POINT('',#348);
#114=VERTEX_POINT('',#350);
#115=VERTEX_POINT('',#354);
#116=VERTEX_POINT('',#356);
#117=VERTEX_POINT('',#360);
#118=VERTEX_POINT('',#362);
#119=VERTEX_POINT('',#366);
#120=VERTEX_POINT('',#368);
#121=VERTEX_POINT('',#372);
#122=VERTEX_POINT('',#374);
#123=VERTEX_POINT('',#378);
#124=VERTEX_POINT('',#380);
#125=VERTEX_POINT('',#384);
#126=VERTEX_POINT('',#386);
#127=EDGE_CURVE('',#107,#107,#99,.T.);
#128=EDGE_CURVE('',#107,#108,#55,.T.);
#129=EDGE_CURVE('',#108,#108,#100,.T.);
#130=EDGE_CURVE('',#109,#109,#101,.T.);
#131=EDGE_CURVE('',#109,#110,#56,.T.);
#132=EDGE_CURVE('',#110,#110,#102,.T.);
#133=EDGE_CURVE('',#111,#112,#103,.T.);
#134=EDGE_CURVE('',#111,#113,#57,.T.);
#135=EDGE_CURVE('',#114,#113,#104,.T.);
#136=EDGE_CURVE('',#112,#114,#58,.T.);
#137=EDGE_CURVE('',#115,#112,#59,.T.);
#138=EDGE_CURVE('',#116,#114,#60,.T.);
#139=EDGE_CURVE('',#115,#116,#61,.T.);
#140=EDGE_CURVE('',#117,#115,#62,.T.);
#141=EDGE_CURVE('',#118,#116,#63,.T.);
#142=EDGE_CURVE('',#117,#118,#64,.T.);
#143=EDGE_CURVE('',#117,#119,#65,.T.);
#144=EDGE_CURVE('',#120,#118,#66,.T.);
#145=EDGE_CURVE('',#119,#120,#67,.T.);
#146=EDGE_CURVE('',#119,#121,#105,.T.);
#147=EDGE_CURVE('',#122,#120,#106,.T.);
#148=EDGE_CURVE('',#121,#122,#68,.T.);
#149=EDGE_CURVE('',#123,#121,#69,.T.);
#150=EDGE_CURVE('',#124,#122,#70,.T.);
#151=EDGE_CURVE('',#123,#124,#71,.T.);
#152=EDGE_CURVE('',#125,#123,#72,.T.);
#153=EDGE_CURVE('',#126,#124,#73,.T.);
#154=EDGE_CURVE('',#125,#126,#74,.T.);
#155=EDGE_CURVE('',#125,#111,#75,.T.);
#156=EDGE_CURVE('',#113,#126,#76,.T.);
#157=ORIENTED_EDGE('',*,*,#127,.F.);
#158=ORIENTED_EDGE('',*,*,#128,.T.);
#159=ORIENTED_EDGE('',*,*,#129,.F.);
#160=ORIENTED_EDGE('',*,*,#128,.F.);
#161=ORIENTED_EDGE('',*,*,#130,.F.);
#162=ORIENTED_EDGE('',*,*,#131,.T.);
#163=ORIENTED_EDGE('',*,*,#132,.F.);
#164=ORIENTED_EDGE('',*,*,#131,.F.);
#165=ORIENTED_EDGE('',*,*,#133,.F.);
#166=ORIENTED_EDGE('',*,*,#134,.T.);
#167=ORIENTED_EDGE('',*,*,#135,.F.);
#168=ORIENTED_EDGE('',*,*,#136,.F.);
#169=ORIENTED_EDGE('',*,*,#137,.T.);
#170=ORIENTED_EDGE('',*,*,#136,.T.);
#171=ORIENTED_EDGE('',*,*,#138,.F.);
#172=ORIENTED_EDGE('',*,*,#139,.F.);
#173=ORIENTED_EDGE('',*,*,#140,.T.);
#174=ORIENTED_EDGE('',*,*,#139,.T.);
#175=ORIENTED_EDGE('',*,*,#141,.F.);
#176=ORIENTED_EDGE('',*,*,#142,.F.);
#177=ORIENTED_EDGE('',*,*,#143,.F.);
#178=ORIENTED_EDGE('',*,*,#142,.T.);
#179=ORIENTED_EDGE('',*,*,#144,.F.);
#180=ORIENTED_EDGE('',*,*,#145,.F.);
#181=ORIENTED_EDGE('',*,*,#146,.F.);
#182=ORIENTED_EDGE('',*,*,#145,.T.);
#183=ORIENTED_EDGE('',*,*,#147,.F.);
#184=ORIENTED_EDGE('',*,*,#148,.F.);
#185=ORIENTED_EDGE('',*,*,#149,.T.);
#186=ORIENTED_EDGE('',*,*,#148,.T.);
#187=ORIENTED_EDGE('',*,*,#150,.F.);
#188=ORIENTED_EDGE('',*,*,#151,.F.);
#189=ORIENTED_EDGE('',*,*,#152,.T.);
#190=ORIENTED_EDGE('',*,*,#151,.T.);
#191=ORIENTED_EDGE('',*,*,#153,.F.);
#192=ORIENTED_EDGE('',*,*,#154,.F.);
#193=ORIENTED_EDGE('',*,*,#155,.F.);
#194=ORIENTED_EDGE('',*,*,#154,.T.);
#195=ORIENTED_EDGE('',*,*,#156,.F.);
#196=ORIENTED_EDGE('',*,*,#134,.F.);
#197=ORIENTED_EDGE('',*,*,#155,.T.);
#198=ORIENTED_EDGE('',*,*,#133,.T.);
#199=ORIENTED_EDGE('',*,*,#137,.F.);
#200=ORIENTED_EDGE('',*,*,#140,.F.);
#201=ORIENTED_EDGE('',*,*,#143,.T.);
#202=ORIENTED_EDGE('',*,*,#146,.T.);
#203=ORIENTED_EDGE('',*,*,#149,.F.);
#204=ORIENTED_EDGE('',*,*,#152,.F.);
#205=ORIENTED_EDGE('',*,*,#132,.T.);
#206=ORIENTED_EDGE('',*,*,#129,.T.);
#207=ORIENTED_EDGE('',*,*,#156,.T.);
#208=ORIENTED_EDGE('',*,*,#153,.T.);
#209=ORIENTED_EDGE('',*,*,#150,.T.);
#210=ORIENTED_EDGE('',*,*,#147,.T.);
#211=ORIENTED_EDGE('',*,*,#144,.T.);
#212=ORIENTED_EDGE('',*,*,#141,.T.);
#213=ORIENTED_EDGE('',*,*,#138,.T.);
#214=ORIENTED_EDGE('',*,*,#135,.T.);
#215=ORIENTED_EDGE('',*,*,#130,.T.);
#216=ORIENTED_EDGE('',*,*,#127,.T.);
#217=CYLINDRICAL_SURFACE('',#247,2.);
#218=CYLINDRICAL_SURFACE('',#250,1.99999999999999);
#219=CYLINDRICAL_SURFACE('',#253,3.);
#220=CYLINDRICAL_SURFACE('',#259,3.00000000000001);
#221=ADVANCED_FACE('',(#27),#217,.F.);
#222=ADVANCED_FACE('',(#28),#218,.F.);
#223=ADVANCED_FACE('',(#29),#219,.T.);
#224=ADVANCED_FACE('',(#30),#19,.T.);
#225=ADVANCED_FACE('',(#31),#20,.T.);
#226=ADVANCED_FACE('',(#32),#21,.T.);
#227=ADVANCED_FACE('',(#33),#220,.T.);
#228=ADVANCED_FACE('',(#34),#22,.T.);
#229=ADVANCED_FACE('',(#35),#23,.T.);
#230=ADVANCED_FACE('',(#36),#24,.T.);
#231=ADVANCED_FACE('',(#37,#15,#16),#25,.T.);
#232=ADVANCED_FACE('',(#38,#17,#18),#26,.F.);
#233=CLOSED_SHELL('',(#221,#222,#223,#224,#225,#226,#227,#228,#229,#230,
#231,#232));
#234=DERIVED_UNIT_ELEMENT(#236,1.);
#235=DERIVED_UNIT_ELEMENT(#399,-3.);
#236=(
MASS_UNIT()
NAMED_UNIT(*)
SI_UNIT(.KILO.,.GRAM.)
);
#237=DERIVED_UNIT((#234,#235));
#238=MEASURE_REPRESENTATION_ITEM('density measure',
POSITIVE_RATIO_MEASURE(7850.),#237);
#239=PROPERTY_DEFINITION_REPRESENTATION(#244,#241);
#240=PROPERTY_DEFINITION_REPRESENTATION(#245,#242);
#241=REPRESENTATION('material name',(#243),#396);
#242=REPRESENTATION('density',(#238),#396);
#243=DESCRIPTIVE_REPRESENTATION_ITEM('\X\C7elik','\X\C7elik');
#244=PROPERTY_DEFINITION('material property','material name',#406);
#245=PROPERTY_DEFINITION('material property','density of part',#406);
#246=AXIS2_PLACEMENT_3D('',#331,#267,#268);
#247=AXIS2_PLACEMENT_3D('',#332,#269,#270);
#248=AXIS2_PLACEMENT_3D('',#334,#271,#272);
#249=AXIS2_PLACEMENT_3D('',#337,#274,#275);
#250=AXIS2_PLACEMENT_3D('',#338,#276,#277);
#251=AXIS2_PLACEMENT_3D('',#340,#278,#279);
#252=AXIS2_PLACEMENT_3D('',#343,#281,#282);
#253=AXIS2_PLACEMENT_3D('',#344,#283,#284);
#254=AXIS2_PLACEMENT_3D('',#347,#285,#286);
#255=AXIS2_PLACEMENT_3D('',#351,#288,#289);
#256=AXIS2_PLACEMENT_3D('',#353,#291,#292);
#257=AXIS2_PLACEMENT_3D('',#359,#296,#297);
#258=AXIS2_PLACEMENT_3D('',#365,#301,#302);
#259=AXIS2_PLACEMENT_3D('',#371,#306,#307);
#260=AXIS2_PLACEMENT_3D('',#373,#308,#309);
#261=AXIS2_PLACEMENT_3D('',#375,#310,#311);
#262=AXIS2_PLACEMENT_3D('',#377,#313,#314);
#263=AXIS2_PLACEMENT_3D('',#383,#318,#319);
#264=AXIS2_PLACEMENT_3D('',#389,#323,#324);
#265=AXIS2_PLACEMENT_3D('',#392,#327,#328);
#266=AXIS2_PLACEMENT_3D('',#393,#329,#330);
#267=DIRECTION('axis',(0.,0.,1.));
#268=DIRECTION('refdir',(1.,0.,0.));
#269=DIRECTION('center_axis',(0.,1.,0.));
#270=DIRECTION('ref_axis',(1.,0.,0.));
#271=DIRECTION('center_axis',(0.,-1.,0.));
#272=DIRECTION('ref_axis',(1.,0.,0.));
#273=DIRECTION('',(0.,-1.,0.));
#274=DIRECTION('center_axis',(0.,1.,0.));
#275=DIRECTION('ref_axis',(1.,0.,0.));
#276=DIRECTION('center_axis',(0.,1.,0.));
#277=DIRECTION('ref_axis',(1.,0.,0.));
#278=DIRECTION('center_axis',(0.,-1.,0.));
#279=DIRECTION('ref_axis',(1.,0.,0.));
#280=DIRECTION('',(0.,-1.,0.));
#281=DIRECTION('center_axis',(0.,1.,0.));
#282=DIRECTION('ref_axis',(1.,0.,0.));
#283=DIRECTION('center_axis',(0.,1.,0.));
#284=DIRECTION('ref_axis',(1.,0.,0.));
#285=DIRECTION('center_axis',(0.,-1.,0.));
#286=DIRECTION('ref_axis',(1.,0.,0.));
#287=DIRECTION('',(0.,1.,0.));
#288=DIRECTION('center_axis',(0.,1.,0.));
#289=DIRECTION('ref_axis',(1.,0.,0.));
#290=DIRECTION('',(0.,1.,0.));
#291=DIRECTION('center_axis',(0.784675243855938,0.,0.619907058904497));
#292=DIRECTION('ref_axis',(0.619907058904497,0.,-0.784675243855938));
#293=DIRECTION('',(0.619907058904497,0.,-0.784675243855938));
#294=DIRECTION('',(0.619907058904497,0.,-0.784675243855938));
#295=DIRECTION('',(0.,1.,0.));
#296=DIRECTION('center_axis',(-4.19549520892216E-15,0.,1.));
#297=DIRECTION('ref_axis',(1.,0.,4.19549520892216E-15));
#298=DIRECTION('',(1.,0.,4.19549520892216E-15));
#299=DIRECTION('',(1.,0.,4.19549520892216E-15));
#300=DIRECTION('',(0.,1.,0.));
#301=DIRECTION('center_axis',(-0.784675243855942,0.,0.619907058904493));
#302=DIRECTION('ref_axis',(0.619907058904493,0.,0.784675243855942));
#303=DIRECTION('',(-0.619907058904493,0.,-0.784675243855942));
#304=DIRECTION('',(0.619907058904493,0.,0.784675243855942));
#305=DIRECTION('',(0.,1.,0.));
#306=DIRECTION('center_axis',(0.,1.,0.));
#307=DIRECTION('ref_axis',(-1.,0.,-9.44833808676605E-15));
#308=DIRECTION('center_axis',(0.,-1.,0.));
#309=DIRECTION('ref_axis',(1.,0.,0.));
#310=DIRECTION('center_axis',(0.,1.,0.));
#311=DIRECTION('ref_axis',(1.,0.,0.));
#312=DIRECTION('',(0.,1.,0.));
#313=DIRECTION('center_axis',(-0.784675243855938,0.,-0.619907058904498));
#314=DIRECTION('ref_axis',(-0.619907058904498,0.,0.784675243855938));
#315=DIRECTION('',(-0.619907058904498,0.,0.784675243855938));
#316=DIRECTION('',(-0.619907058904498,0.,0.784675243855938));
#317=DIRECTION('',(0.,1.,0.));
#318=DIRECTION('center_axis',(3.08725119147103E-15,0.,-1.));
#319=DIRECTION('ref_axis',(-1.,0.,-3.08725119147103E-15));
#320=DIRECTION('',(-1.,0.,-3.08725119147103E-15));
#321=DIRECTION('',(-1.,0.,-3.08725119147103E-15));
#322=DIRECTION('',(0.,1.,0.));
#323=DIRECTION('center_axis',(0.784675243855941,0.,-0.619907058904494));
#324=DIRECTION('ref_axis',(-0.619907058904494,0.,-0.784675243855941));
#325=DIRECTION('',(0.619907058904494,0.,0.784675243855941));
#326=DIRECTION('',(-0.619907058904494,0.,-0.784675243855941));
#327=DIRECTION('center_axis',(0.,-1.,0.));
#328=DIRECTION('ref_axis',(1.,0.,0.));
#329=DIRECTION('center_axis',(0.,-1.,0.));
#330=DIRECTION('ref_axis',(1.,0.,0.));
#331=CARTESIAN_POINT('',(0.,0.,0.));
#332=CARTESIAN_POINT('Origin',(-57.0990409097358,-2.,2.08721928629529E-13));
#333=CARTESIAN_POINT('',(-59.0990409097358,-1.,2.084769992697E-13));
#334=CARTESIAN_POINT('Origin',(-57.0990409097358,-1.,2.08721928629529E-13));
#335=CARTESIAN_POINT('',(-59.0990409097358,-2.,2.084769992697E-13));
#336=CARTESIAN_POINT('',(-59.0990409097358,-2.,2.08966857989359E-13));
#337=CARTESIAN_POINT('Origin',(-57.0990409097358,-2.,2.08721928629529E-13));
#338=CARTESIAN_POINT('Origin',(-127.199040909736,-2.,2.61591235291241E-14));
#339=CARTESIAN_POINT('',(-129.199040909736,-1.,2.59141941692946E-14));
#340=CARTESIAN_POINT('Origin',(-127.199040909736,-1.,2.61591235291241E-14));
#341=CARTESIAN_POINT('',(-129.199040909736,-2.,2.59141941692946E-14));
#342=CARTESIAN_POINT('',(-129.199040909736,-2.,2.64040528889535E-14));
#343=CARTESIAN_POINT('Origin',(-127.199040909736,-2.,2.61591235291241E-14));
#344=CARTESIAN_POINT('Origin',(-57.0990409097358,-2.,2.08721928629529E-13));
#345=CARTESIAN_POINT('',(-54.745015178168,-2.,-1.8597211767133));
#346=CARTESIAN_POINT('',(-54.745015178168,-2.,1.85972117671369));
#347=CARTESIAN_POINT('Origin',(-57.0990409097358,-2.,2.08721928629529E-13));
#348=CARTESIAN_POINT('',(-54.745015178168,-1.,-1.8597211767133));
#349=CARTESIAN_POINT('',(-54.745015178168,-2.,-1.8597211767133));
#350=CARTESIAN_POINT('',(-54.745015178168,-1.,1.85972117671369));
#351=CARTESIAN_POINT('Origin',(-57.0990409097358,-1.,2.08721928629529E-13));
#352=CARTESIAN_POINT('',(-54.745015178168,-2.,1.85972117671369));
#353=CARTESIAN_POINT('Origin',(-64.0990409097358,-2.,13.7000000000002));
#354=CARTESIAN_POINT('',(-64.0990409097358,-2.,13.7000000000002));
#355=CARTESIAN_POINT('',(-64.0990409097358,-2.,13.7000000000002));
#356=CARTESIAN_POINT('',(-64.0990409097358,-1.,13.7000000000002));
#357=CARTESIAN_POINT('',(-64.0990409097358,-1.,13.7000000000002));
#358=CARTESIAN_POINT('',(-64.0990409097358,-2.,13.7000000000002));
#359=CARTESIAN_POINT('Origin',(-120.199040909736,-2.,13.7));
#360=CARTESIAN_POINT('',(-120.199040909736,-2.,13.7));
#361=CARTESIAN_POINT('',(-120.199040909736,-2.,13.7));
#362=CARTESIAN_POINT('',(-120.199040909736,-1.,13.7));
#363=CARTESIAN_POINT('',(-120.199040909736,-1.,13.7));
#364=CARTESIAN_POINT('',(-120.199040909736,-2.,13.7));
#365=CARTESIAN_POINT('Origin',(-129.553066641304,-2.,1.8597211767135));
#366=CARTESIAN_POINT('',(-129.553066641304,-2.,1.8597211767135));
#367=CARTESIAN_POINT('',(-120.199040909736,-2.,13.7));
#368=CARTESIAN_POINT('',(-129.553066641304,-1.,1.8597211767135));
#369=CARTESIAN_POINT('',(-120.199040909736,-1.,13.7));
#370=CARTESIAN_POINT('',(-129.553066641304,-2.,1.8597211767135));
#371=CARTESIAN_POINT('Origin',(-127.199040909736,-2.,2.61591235291241E-14));
#372=CARTESIAN_POINT('',(-129.553066641304,-2.,-1.8597211767135));
#373=CARTESIAN_POINT('Origin',(-127.199040909736,-2.,2.61591235291241E-14));
#374=CARTESIAN_POINT('',(-129.553066641304,-1.,-1.8597211767135));
#375=CARTESIAN_POINT('Origin',(-127.199040909736,-1.,2.61591235291241E-14));
#376=CARTESIAN_POINT('',(-129.553066641304,-2.,-1.8597211767135));
#377=CARTESIAN_POINT('Origin',(-120.199040909736,-2.,-13.6999999999999));
#378=CARTESIAN_POINT('',(-120.199040909736,-2.,-13.6999999999999));
#379=CARTESIAN_POINT('',(-120.199040909736,-2.,-13.6999999999999));
#380=CARTESIAN_POINT('',(-120.199040909736,-1.,-13.6999999999999));
#381=CARTESIAN_POINT('',(-120.199040909736,-1.,-13.6999999999999));
#382=CARTESIAN_POINT('',(-120.199040909736,-2.,-13.6999999999999));
#383=CARTESIAN_POINT('Origin',(-64.0990409097358,-2.,-13.6999999999997));
#384=CARTESIAN_POINT('',(-64.0990409097358,-2.,-13.6999999999998));
#385=CARTESIAN_POINT('',(-64.0990409097358,-2.,-13.6999999999997));
#386=CARTESIAN_POINT('',(-64.0990409097358,-1.,-13.6999999999998));
#387=CARTESIAN_POINT('',(-64.0990409097358,-1.,-13.6999999999997));
#388=CARTESIAN_POINT('',(-64.0990409097358,-2.,-13.6999999999998));
#389=CARTESIAN_POINT('Origin',(-54.745015178168,-2.,-1.8597211767133));
#390=CARTESIAN_POINT('',(-64.0990409097358,-2.,-13.6999999999998));
#391=CARTESIAN_POINT('',(-64.0990409097358,-1.,-13.6999999999998));
#392=CARTESIAN_POINT('Origin',(-92.1490409097358,-2.,1.66533453693773E-13));
#393=CARTESIAN_POINT('Origin',(-92.1490409097358,-1.,1.66533453693773E-13));
#394=UNCERTAINTY_MEASURE_WITH_UNIT(LENGTH_MEASURE(0.01),#398,
'DISTANCE_ACCURACY_VALUE',
'Maximum model space distance between geometric entities at asserted c
onnectivities');
#395=UNCERTAINTY_MEASURE_WITH_UNIT(LENGTH_MEASURE(0.01),#398,
'DISTANCE_ACCURACY_VALUE',
'Maximum model space distance between geometric entities at asserted c
onnectivities');
#396=(
GEOMETRIC_REPRESENTATION_CONTEXT(3)
GLOBAL_UNCERTAINTY_ASSIGNED_CONTEXT((#394))
GLOBAL_UNIT_ASSIGNED_CONTEXT((#398,#400,#401))
REPRESENTATION_CONTEXT('','3D')
);
#397=(
GEOMETRIC_REPRESENTATION_CONTEXT(3)
GLOBAL_UNCERTAINTY_ASSIGNED_CONTEXT((#395))
GLOBAL_UNIT_ASSIGNED_CONTEXT((#398,#400,#401))
REPRESENTATION_CONTEXT('','3D')
);
#398=(
LENGTH_UNIT()
NAMED_UNIT(*)
SI_UNIT(.MILLI.,.METRE.)
);
#399=(
LENGTH_UNIT()
NAMED_UNIT(*)
SI_UNIT($,.METRE.)
);
#400=(
NAMED_UNIT(*)
PLANE_ANGLE_UNIT()
SI_UNIT($,.RADIAN.)
);
#401=(
NAMED_UNIT(*)
SI_UNIT($,.STERADIAN.)
SOLID_ANGLE_UNIT()
);
#402=SHAPE_DEFINITION_REPRESENTATION(#403,#404);
#403=PRODUCT_DEFINITION_SHAPE('',$,#406);
#404=SHAPE_REPRESENTATION('',(#246),#396);
#405=PRODUCT_DEFINITION_CONTEXT('part definition',#410,'design');
#406=PRODUCT_DEFINITION('2026-06-13-13-56-28-156','battery lid',#407,#405);
#407=PRODUCT_DEFINITION_FORMATION('',$,#412);
#408=PRODUCT_RELATED_PRODUCT_CATEGORY('battery lid','battery lid',(#412));
#409=APPLICATION_PROTOCOL_DEFINITION('international standard',
'automotive_design',2009,#410);
#410=APPLICATION_CONTEXT(
'Core Data for Automotive Mechanical Design Process');
#411=PRODUCT_CONTEXT('part definition',#410,'mechanical');
#412=PRODUCT('2026-06-13-13-56-28-156','battery lid',$,(#411));
#413=PRESENTATION_STYLE_ASSIGNMENT((#414));
#414=SURFACE_STYLE_USAGE(.BOTH.,#415);
#415=SURFACE_SIDE_STYLE('',(#416));
#416=SURFACE_STYLE_FILL_AREA(#417);
#417=FILL_AREA_STYLE('\X\C7elik - Saten',(#418));
#418=FILL_AREA_STYLE_COLOUR('\X\C7elik - Saten',#419);
#419=COLOUR_RGB('\X\C7elik - Saten',0.627450980392157,0.627450980392157,
0.627450980392157);
ENDSEC;
END-ISO-10303-21;
