ISO-10303-21;
HEADER;
/* Generated by software containing ST-Developer
 * from STEP Tools, Inc. (www.steptools.com) 
 */

FILE_DESCRIPTION(
/* description */ (''),
/* implementation_level */ '2;1');

FILE_NAME(
/* name */ 'frontwheels.step',
/* time_stamp */ '2026-06-13T13:57:22+03:00',
/* author */ (''),
/* organization */ (''),
/* preprocessor_version */ 'ST-DEVELOPER v20.1',
/* originating_system */ 'Autodesk Translation Framework v15.8.0.0',
/* authorisation */ '');

FILE_SCHEMA (('AUTOMOTIVE_DESIGN { 1 0 10303 214 3 1 1 }'));
ENDSEC;

DATA;
#10=MECHANICAL_DESIGN_GEOMETRIC_PRESENTATION_REPRESENTATION('',(#13,#14),
#582);
#11=SHAPE_REPRESENTATION_RELATIONSHIP('SRR','None',#589,#12);
#12=ADVANCED_BREP_SHAPE_REPRESENTATION('',(#15,#16),#581);
#13=STYLED_ITEM('',(#599),#15);
#14=STYLED_ITEM('',(#599),#16);
#15=MANIFOLD_SOLID_BREP('G\X\F6vde1',#313);
#16=MANIFOLD_SOLID_BREP('G\X\F6vde2',#314);
#17=TOROIDAL_SURFACE('',#342,12.,3.);
#18=TOROIDAL_SURFACE('',#348,12.,3.);
#19=TOROIDAL_SURFACE('',#368,12.,3.);
#20=TOROIDAL_SURFACE('',#374,12.,3.);
#21=LINE('',#503,#29);
#22=LINE('',#515,#30);
#23=LINE('',#524,#31);
#24=LINE('',#536,#32);
#25=LINE('',#545,#33);
#26=LINE('',#557,#34);
#27=LINE('',#566,#35);
#28=LINE('',#578,#36);
#29=VECTOR('',#392,14.);
#30=VECTOR('',#407,14.);
#31=VECTOR('',#420,15.);
#32=VECTOR('',#437,5.);
#33=VECTOR('',#448,14.);
#34=VECTOR('',#463,14.);
#35=VECTOR('',#476,15.);
#36=VECTOR('',#493,5.);
#37=CYLINDRICAL_SURFACE('',#331,14.);
#38=CYLINDRICAL_SURFACE('',#338,14.);
#39=CYLINDRICAL_SURFACE('',#345,15.);
#40=CYLINDRICAL_SURFACE('',#353,5.);
#41=CYLINDRICAL_SURFACE('',#357,14.);
#42=CYLINDRICAL_SURFACE('',#364,14.);
#43=CYLINDRICAL_SURFACE('',#371,15.);
#44=CYLINDRICAL_SURFACE('',#379,5.);
#45=FACE_BOUND('',#82,.T.);
#46=FACE_BOUND('',#85,.T.);
#47=FACE_BOUND('',#87,.T.);
#48=FACE_BOUND('',#90,.T.);
#49=FACE_BOUND('',#94,.T.);
#50=FACE_BOUND('',#97,.T.);
#51=FACE_BOUND('',#100,.T.);
#52=FACE_BOUND('',#103,.T.);
#53=FACE_BOUND('',#105,.T.);
#54=FACE_BOUND('',#108,.T.);
#55=FACE_BOUND('',#112,.T.);
#56=FACE_BOUND('',#115,.T.);
#57=FACE_OUTER_BOUND('',#81,.T.);
#58=FACE_OUTER_BOUND('',#83,.T.);
#59=FACE_OUTER_BOUND('',#84,.T.);
#60=FACE_OUTER_BOUND('',#86,.T.);
#61=FACE_OUTER_BOUND('',#88,.T.);
#62=FACE_OUTER_BOUND('',#89,.T.);
#63=FACE_OUTER_BOUND('',#91,.T.);
#64=FACE_OUTER_BOUND('',#92,.T.);
#65=FACE_OUTER_BOUND('',#93,.T.);
#66=FACE_OUTER_BOUND('',#95,.T.);
#67=FACE_OUTER_BOUND('',#96,.T.);
#68=FACE_OUTER_BOUND('',#98,.T.);
#69=FACE_OUTER_BOUND('',#99,.T.);
#70=FACE_OUTER_BOUND('',#101,.T.);
#71=FACE_OUTER_BOUND('',#102,.T.);
#72=FACE_OUTER_BOUND('',#104,.T.);
#73=FACE_OUTER_BOUND('',#106,.T.);
#74=FACE_OUTER_BOUND('',#107,.T.);
#75=FACE_OUTER_BOUND('',#109,.T.);
#76=FACE_OUTER_BOUND('',#110,.T.);
#77=FACE_OUTER_BOUND('',#111,.T.);
#78=FACE_OUTER_BOUND('',#113,.T.);
#79=FACE_OUTER_BOUND('',#114,.T.);
#80=FACE_OUTER_BOUND('',#116,.T.);
#81=EDGE_LOOP('',(#205));
#82=EDGE_LOOP('',(#206));
#83=EDGE_LOOP('',(#207,#208,#209,#210));
#84=EDGE_LOOP('',(#211));
#85=EDGE_LOOP('',(#212));
#86=EDGE_LOOP('',(#213));
#87=EDGE_LOOP('',(#214));
#88=EDGE_LOOP('',(#215,#216,#217,#218));
#89=EDGE_LOOP('',(#219));
#90=EDGE_LOOP('',(#220));
#91=EDGE_LOOP('',(#221,#222,#223,#224));
#92=EDGE_LOOP('',(#225,#226,#227,#228));
#93=EDGE_LOOP('',(#229));
#94=EDGE_LOOP('',(#230));
#95=EDGE_LOOP('',(#231,#232,#233,#234));
#96=EDGE_LOOP('',(#235));
#97=EDGE_LOOP('',(#236));
#98=EDGE_LOOP('',(#237,#238,#239,#240));
#99=EDGE_LOOP('',(#241));
#100=EDGE_LOOP('',(#242));
#101=EDGE_LOOP('',(#243,#244,#245,#246));
#102=EDGE_LOOP('',(#247));
#103=EDGE_LOOP('',(#248));
#104=EDGE_LOOP('',(#249));
#105=EDGE_LOOP('',(#250));
#106=EDGE_LOOP('',(#251,#252,#253,#254));
#107=EDGE_LOOP('',(#255));
#108=EDGE_LOOP('',(#256));
#109=EDGE_LOOP('',(#257,#258,#259,#260));
#110=EDGE_LOOP('',(#261,#262,#263,#264));
#111=EDGE_LOOP('',(#265));
#112=EDGE_LOOP('',(#266));
#113=EDGE_LOOP('',(#267,#268,#269,#270));
#114=EDGE_LOOP('',(#271));
#115=EDGE_LOOP('',(#272));
#116=EDGE_LOOP('',(#273,#274,#275,#276));
#117=CIRCLE('',#329,15.);
#118=CIRCLE('',#330,14.);
#119=CIRCLE('',#332,14.);
#120=CIRCLE('',#334,15.);
#121=CIRCLE('',#336,15.);
#122=CIRCLE('',#337,14.);
#123=CIRCLE('',#339,14.);
#124=CIRCLE('',#341,15.);
#125=CIRCLE('',#343,12.);
#126=CIRCLE('',#344,3.);
#127=CIRCLE('',#347,5.);
#128=CIRCLE('',#349,3.);
#129=CIRCLE('',#350,12.);
#130=CIRCLE('',#352,5.);
#131=CIRCLE('',#355,15.);
#132=CIRCLE('',#356,14.);
#133=CIRCLE('',#358,14.);
#134=CIRCLE('',#360,15.);
#135=CIRCLE('',#362,15.);
#136=CIRCLE('',#363,14.);
#137=CIRCLE('',#365,14.);
#138=CIRCLE('',#367,15.);
#139=CIRCLE('',#369,12.);
#140=CIRCLE('',#370,3.);
#141=CIRCLE('',#373,5.);
#142=CIRCLE('',#375,3.);
#143=CIRCLE('',#376,12.);
#144=CIRCLE('',#378,5.);
#145=VERTEX_POINT('',#496);
#146=VERTEX_POINT('',#498);
#147=VERTEX_POINT('',#501);
#148=VERTEX_POINT('',#505);
#149=VERTEX_POINT('',#508);
#150=VERTEX_POINT('',#510);
#151=VERTEX_POINT('',#513);
#152=VERTEX_POINT('',#517);
#153=VERTEX_POINT('',#520);
#154=VERTEX_POINT('',#526);
#155=VERTEX_POINT('',#529);
#156=VERTEX_POINT('',#533);
#157=VERTEX_POINT('',#538);
#158=VERTEX_POINT('',#540);
#159=VERTEX_POINT('',#543);
#160=VERTEX_POINT('',#547);
#161=VERTEX_POINT('',#550);
#162=VERTEX_POINT('',#552);
#163=VERTEX_POINT('',#555);
#164=VERTEX_POINT('',#559);
#165=VERTEX_POINT('',#562);
#166=VERTEX_POINT('',#568);
#167=VERTEX_POINT('',#571);
#168=VERTEX_POINT('',#575);
#169=EDGE_CURVE('',#145,#145,#117,.T.);
#170=EDGE_CURVE('',#146,#146,#118,.T.);
#171=EDGE_CURVE('',#147,#147,#119,.T.);
#172=EDGE_CURVE('',#147,#146,#21,.T.);
#173=EDGE_CURVE('',#148,#148,#120,.T.);
#174=EDGE_CURVE('',#149,#149,#121,.T.);
#175=EDGE_CURVE('',#150,#150,#122,.T.);
#176=EDGE_CURVE('',#151,#151,#123,.T.);
#177=EDGE_CURVE('',#151,#150,#22,.T.);
#178=EDGE_CURVE('',#152,#152,#124,.T.);
#179=EDGE_CURVE('',#153,#153,#125,.T.);
#180=EDGE_CURVE('',#153,#152,#126,.T.);
#181=EDGE_CURVE('',#149,#148,#23,.T.);
#182=EDGE_CURVE('',#154,#154,#127,.T.);
#183=EDGE_CURVE('',#145,#155,#128,.T.);
#184=EDGE_CURVE('',#155,#155,#129,.T.);
#185=EDGE_CURVE('',#156,#156,#130,.T.);
#186=EDGE_CURVE('',#154,#156,#24,.T.);
#187=EDGE_CURVE('',#157,#157,#131,.T.);
#188=EDGE_CURVE('',#158,#158,#132,.T.);
#189=EDGE_CURVE('',#159,#159,#133,.T.);
#190=EDGE_CURVE('',#159,#158,#25,.T.);
#191=EDGE_CURVE('',#160,#160,#134,.T.);
#192=EDGE_CURVE('',#161,#161,#135,.T.);
#193=EDGE_CURVE('',#162,#162,#136,.T.);
#194=EDGE_CURVE('',#163,#163,#137,.T.);
#195=EDGE_CURVE('',#163,#162,#26,.T.);
#196=EDGE_CURVE('',#164,#164,#138,.T.);
#197=EDGE_CURVE('',#165,#165,#139,.T.);
#198=EDGE_CURVE('',#165,#160,#140,.T.);
#199=EDGE_CURVE('',#164,#157,#27,.T.);
#200=EDGE_CURVE('',#166,#166,#141,.T.);
#201=EDGE_CURVE('',#161,#167,#142,.T.);
#202=EDGE_CURVE('',#167,#167,#143,.T.);
#203=EDGE_CURVE('',#168,#168,#144,.T.);
#204=EDGE_CURVE('',#168,#166,#28,.T.);
#205=ORIENTED_EDGE('',*,*,#169,.F.);
#206=ORIENTED_EDGE('',*,*,#170,.T.);
#207=ORIENTED_EDGE('',*,*,#171,.T.);
#208=ORIENTED_EDGE('',*,*,#172,.T.);
#209=ORIENTED_EDGE('',*,*,#170,.F.);
#210=ORIENTED_EDGE('',*,*,#172,.F.);
#211=ORIENTED_EDGE('',*,*,#173,.F.);
#212=ORIENTED_EDGE('',*,*,#171,.F.);
#213=ORIENTED_EDGE('',*,*,#174,.F.);
#214=ORIENTED_EDGE('',*,*,#175,.T.);
#215=ORIENTED_EDGE('',*,*,#176,.T.);
#216=ORIENTED_EDGE('',*,*,#177,.T.);
#217=ORIENTED_EDGE('',*,*,#175,.F.);
#218=ORIENTED_EDGE('',*,*,#177,.F.);
#219=ORIENTED_EDGE('',*,*,#178,.F.);
#220=ORIENTED_EDGE('',*,*,#176,.F.);
#221=ORIENTED_EDGE('',*,*,#179,.T.);
#222=ORIENTED_EDGE('',*,*,#180,.T.);
#223=ORIENTED_EDGE('',*,*,#178,.T.);
#224=ORIENTED_EDGE('',*,*,#180,.F.);
#225=ORIENTED_EDGE('',*,*,#174,.T.);
#226=ORIENTED_EDGE('',*,*,#181,.T.);
#227=ORIENTED_EDGE('',*,*,#173,.T.);
#228=ORIENTED_EDGE('',*,*,#181,.F.);
#229=ORIENTED_EDGE('',*,*,#179,.F.);
#230=ORIENTED_EDGE('',*,*,#182,.T.);
#231=ORIENTED_EDGE('',*,*,#169,.T.);
#232=ORIENTED_EDGE('',*,*,#183,.T.);
#233=ORIENTED_EDGE('',*,*,#184,.T.);
#234=ORIENTED_EDGE('',*,*,#183,.F.);
#235=ORIENTED_EDGE('',*,*,#184,.F.);
#236=ORIENTED_EDGE('',*,*,#185,.F.);
#237=ORIENTED_EDGE('',*,*,#182,.F.);
#238=ORIENTED_EDGE('',*,*,#186,.T.);
#239=ORIENTED_EDGE('',*,*,#185,.T.);
#240=ORIENTED_EDGE('',*,*,#186,.F.);
#241=ORIENTED_EDGE('',*,*,#187,.F.);
#242=ORIENTED_EDGE('',*,*,#188,.T.);
#243=ORIENTED_EDGE('',*,*,#189,.T.);
#244=ORIENTED_EDGE('',*,*,#190,.T.);
#245=ORIENTED_EDGE('',*,*,#188,.F.);
#246=ORIENTED_EDGE('',*,*,#190,.F.);
#247=ORIENTED_EDGE('',*,*,#191,.F.);
#248=ORIENTED_EDGE('',*,*,#189,.F.);
#249=ORIENTED_EDGE('',*,*,#192,.F.);
#250=ORIENTED_EDGE('',*,*,#193,.T.);
#251=ORIENTED_EDGE('',*,*,#194,.T.);
#252=ORIENTED_EDGE('',*,*,#195,.T.);
#253=ORIENTED_EDGE('',*,*,#193,.F.);
#254=ORIENTED_EDGE('',*,*,#195,.F.);
#255=ORIENTED_EDGE('',*,*,#196,.F.);
#256=ORIENTED_EDGE('',*,*,#194,.F.);
#257=ORIENTED_EDGE('',*,*,#197,.T.);
#258=ORIENTED_EDGE('',*,*,#198,.T.);
#259=ORIENTED_EDGE('',*,*,#191,.T.);
#260=ORIENTED_EDGE('',*,*,#198,.F.);
#261=ORIENTED_EDGE('',*,*,#196,.T.);
#262=ORIENTED_EDGE('',*,*,#199,.T.);
#263=ORIENTED_EDGE('',*,*,#187,.T.);
#264=ORIENTED_EDGE('',*,*,#199,.F.);
#265=ORIENTED_EDGE('',*,*,#197,.F.);
#266=ORIENTED_EDGE('',*,*,#200,.T.);
#267=ORIENTED_EDGE('',*,*,#192,.T.);
#268=ORIENTED_EDGE('',*,*,#201,.T.);
#269=ORIENTED_EDGE('',*,*,#202,.T.);
#270=ORIENTED_EDGE('',*,*,#201,.F.);
#271=ORIENTED_EDGE('',*,*,#202,.F.);
#272=ORIENTED_EDGE('',*,*,#203,.F.);
#273=ORIENTED_EDGE('',*,*,#203,.T.);
#274=ORIENTED_EDGE('',*,*,#204,.T.);
#275=ORIENTED_EDGE('',*,*,#200,.F.);
#276=ORIENTED_EDGE('',*,*,#204,.F.);
#277=PLANE('',#328);
#278=PLANE('',#333);
#279=PLANE('',#335);
#280=PLANE('',#340);
#281=PLANE('',#346);
#282=PLANE('',#351);
#283=PLANE('',#354);
#284=PLANE('',#359);
#285=PLANE('',#361);
#286=PLANE('',#366);
#287=PLANE('',#372);
#288=PLANE('',#377);
#289=ADVANCED_FACE('',(#57,#45),#277,.F.);
#290=ADVANCED_FACE('',(#58),#37,.T.);
#291=ADVANCED_FACE('',(#59,#46),#278,.F.);
#292=ADVANCED_FACE('',(#60,#47),#279,.F.);
#293=ADVANCED_FACE('',(#61),#38,.T.);
#294=ADVANCED_FACE('',(#62,#48),#280,.F.);
#295=ADVANCED_FACE('',(#63),#17,.T.);
#296=ADVANCED_FACE('',(#64),#39,.T.);
#297=ADVANCED_FACE('',(#65,#49),#281,.T.);
#298=ADVANCED_FACE('',(#66),#18,.T.);
#299=ADVANCED_FACE('',(#67,#50),#282,.F.);
#300=ADVANCED_FACE('',(#68),#40,.F.);
#301=ADVANCED_FACE('',(#69,#51),#283,.F.);
#302=ADVANCED_FACE('',(#70),#41,.T.);
#303=ADVANCED_FACE('',(#71,#52),#284,.F.);
#304=ADVANCED_FACE('',(#72,#53),#285,.F.);
#305=ADVANCED_FACE('',(#73),#42,.T.);
#306=ADVANCED_FACE('',(#74,#54),#286,.F.);
#307=ADVANCED_FACE('',(#75),#19,.T.);
#308=ADVANCED_FACE('',(#76),#43,.T.);
#309=ADVANCED_FACE('',(#77,#55),#287,.T.);
#310=ADVANCED_FACE('',(#78),#20,.T.);
#311=ADVANCED_FACE('',(#79,#56),#288,.F.);
#312=ADVANCED_FACE('',(#80),#44,.F.);
#313=CLOSED_SHELL('',(#289,#290,#291,#292,#293,#294,#295,#296,#297,#298,
#299,#300));
#314=CLOSED_SHELL('',(#301,#302,#303,#304,#305,#306,#307,#308,#309,#310,
#311,#312));
#315=DERIVED_UNIT_ELEMENT(#317,1.);
#316=DERIVED_UNIT_ELEMENT(#584,-3.);
#317=(
MASS_UNIT()
NAMED_UNIT(*)
SI_UNIT(.KILO.,.GRAM.)
);
#318=DERIVED_UNIT((#315,#316));
#319=MEASURE_REPRESENTATION_ITEM('density measure',
POSITIVE_RATIO_MEASURE(7850.),#318);
#320=PROPERTY_DEFINITION_REPRESENTATION(#325,#322);
#321=PROPERTY_DEFINITION_REPRESENTATION(#326,#323);
#322=REPRESENTATION('material name',(#324),#581);
#323=REPRESENTATION('density',(#319),#581);
#324=DESCRIPTIVE_REPRESENTATION_ITEM('\X\C7elik','\X\C7elik');
#325=PROPERTY_DEFINITION('material property','material name',#591);
#326=PROPERTY_DEFINITION('material property','density of part',#591);
#327=AXIS2_PLACEMENT_3D('',#494,#380,#381);
#328=AXIS2_PLACEMENT_3D('',#495,#382,#383);
#329=AXIS2_PLACEMENT_3D('',#497,#384,#385);
#330=AXIS2_PLACEMENT_3D('',#499,#386,#387);
#331=AXIS2_PLACEMENT_3D('',#500,#388,#389);
#332=AXIS2_PLACEMENT_3D('',#502,#390,#391);
#333=AXIS2_PLACEMENT_3D('',#504,#393,#394);
#334=AXIS2_PLACEMENT_3D('',#506,#395,#396);
#335=AXIS2_PLACEMENT_3D('',#507,#397,#398);
#336=AXIS2_PLACEMENT_3D('',#509,#399,#400);
#337=AXIS2_PLACEMENT_3D('',#511,#401,#402);
#338=AXIS2_PLACEMENT_3D('',#512,#403,#404);
#339=AXIS2_PLACEMENT_3D('',#514,#405,#406);
#340=AXIS2_PLACEMENT_3D('',#516,#408,#409);
#341=AXIS2_PLACEMENT_3D('',#518,#410,#411);
#342=AXIS2_PLACEMENT_3D('',#519,#412,#413);
#343=AXIS2_PLACEMENT_3D('',#521,#414,#415);
#344=AXIS2_PLACEMENT_3D('',#522,#416,#417);
#345=AXIS2_PLACEMENT_3D('',#523,#418,#419);
#346=AXIS2_PLACEMENT_3D('',#525,#421,#422);
#347=AXIS2_PLACEMENT_3D('',#527,#423,#424);
#348=AXIS2_PLACEMENT_3D('',#528,#425,#426);
#349=AXIS2_PLACEMENT_3D('',#530,#427,#428);
#350=AXIS2_PLACEMENT_3D('',#531,#429,#430);
#351=AXIS2_PLACEMENT_3D('',#532,#431,#432);
#352=AXIS2_PLACEMENT_3D('',#534,#433,#434);
#353=AXIS2_PLACEMENT_3D('',#535,#435,#436);
#354=AXIS2_PLACEMENT_3D('',#537,#438,#439);
#355=AXIS2_PLACEMENT_3D('',#539,#440,#441);
#356=AXIS2_PLACEMENT_3D('',#541,#442,#443);
#357=AXIS2_PLACEMENT_3D('',#542,#444,#445);
#358=AXIS2_PLACEMENT_3D('',#544,#446,#447);
#359=AXIS2_PLACEMENT_3D('',#546,#449,#450);
#360=AXIS2_PLACEMENT_3D('',#548,#451,#452);
#361=AXIS2_PLACEMENT_3D('',#549,#453,#454);
#362=AXIS2_PLACEMENT_3D('',#551,#455,#456);
#363=AXIS2_PLACEMENT_3D('',#553,#457,#458);
#364=AXIS2_PLACEMENT_3D('',#554,#459,#460);
#365=AXIS2_PLACEMENT_3D('',#556,#461,#462);
#366=AXIS2_PLACEMENT_3D('',#558,#464,#465);
#367=AXIS2_PLACEMENT_3D('',#560,#466,#467);
#368=AXIS2_PLACEMENT_3D('',#561,#468,#469);
#369=AXIS2_PLACEMENT_3D('',#563,#470,#471);
#370=AXIS2_PLACEMENT_3D('',#564,#472,#473);
#371=AXIS2_PLACEMENT_3D('',#565,#474,#475);
#372=AXIS2_PLACEMENT_3D('',#567,#477,#478);
#373=AXIS2_PLACEMENT_3D('',#569,#479,#480);
#374=AXIS2_PLACEMENT_3D('',#570,#481,#482);
#375=AXIS2_PLACEMENT_3D('',#572,#483,#484);
#376=AXIS2_PLACEMENT_3D('',#573,#485,#486);
#377=AXIS2_PLACEMENT_3D('',#574,#487,#488);
#378=AXIS2_PLACEMENT_3D('',#576,#489,#490);
#379=AXIS2_PLACEMENT_3D('',#577,#491,#492);
#380=DIRECTION('axis',(0.,0.,1.));
#381=DIRECTION('refdir',(1.,0.,0.));
#382=DIRECTION('center_axis',(0.,5.55111512312578E-16,1.));
#383=DIRECTION('ref_axis',(1.,0.,0.));
#384=DIRECTION('center_axis',(-8.85143264970853E-20,2.25969508272373E-21,
1.));
#385=DIRECTION('ref_axis',(-1.,-4.51939016544745E-22,0.));
#386=DIRECTION('center_axis',(0.,5.55111512312578E-16,1.));
#387=DIRECTION('ref_axis',(1.,0.,0.));
#388=DIRECTION('center_axis',(0.,5.55111512312578E-16,1.));
#389=DIRECTION('ref_axis',(1.,7.69153833066841E-17,0.));
#390=DIRECTION('center_axis',(0.,5.55111512312578E-16,1.));
#391=DIRECTION('ref_axis',(1.,0.,0.));
#392=DIRECTION('',(0.,5.55111512312578E-16,1.));
#393=DIRECTION('center_axis',(0.,-5.55111512312578E-16,-1.));
#394=DIRECTION('ref_axis',(-1.,0.,0.));
#395=DIRECTION('center_axis',(0.,-5.55111512312578E-16,-1.));
#396=DIRECTION('ref_axis',(-1.,0.,0.));
#397=DIRECTION('center_axis',(0.,5.55111512312578E-16,1.));
#398=DIRECTION('ref_axis',(1.,0.,0.));
#399=DIRECTION('center_axis',(0.,5.55111512312578E-16,1.));
#400=DIRECTION('ref_axis',(-1.,0.,0.));
#401=DIRECTION('center_axis',(0.,5.55111512312578E-16,1.));
#402=DIRECTION('ref_axis',(1.,0.,0.));
#403=DIRECTION('center_axis',(0.,5.55111512312578E-16,1.));
#404=DIRECTION('ref_axis',(1.,5.66325838076883E-16,0.));
#405=DIRECTION('center_axis',(0.,5.55111512312578E-16,1.));
#406=DIRECTION('ref_axis',(1.,0.,0.));
#407=DIRECTION('',(0.,5.55111512312578E-16,1.));
#408=DIRECTION('center_axis',(0.,-5.55111512312578E-16,-1.));
#409=DIRECTION('ref_axis',(-1.,0.,0.));
#410=DIRECTION('center_axis',(8.85143264970853E-20,-2.25969508272373E-21,
-1.));
#411=DIRECTION('ref_axis',(-1.,4.51939016544745E-22,0.));
#412=DIRECTION('center_axis',(8.85143264970853E-20,-2.25969508272373E-21,
-1.));
#413=DIRECTION('ref_axis',(-1.,0.,0.));
#414=DIRECTION('center_axis',(-8.85143264970853E-20,2.25969508272373E-21,
1.));
#415=DIRECTION('ref_axis',(-1.,4.51939016544745E-22,-8.85143264970853E-20));
#416=DIRECTION('center_axis',(-1.48029736616688E-16,-1.,2.25969508272371E-21));
#417=DIRECTION('ref_axis',(1.,-1.48029736616688E-16,0.));
#418=DIRECTION('center_axis',(0.,0.,-1.));
#419=DIRECTION('ref_axis',(-1.,0.,0.));
#420=DIRECTION('',(0.,0.,1.));
#421=DIRECTION('center_axis',(8.85143264970853E-20,-2.25969508272373E-21,
-1.));
#422=DIRECTION('ref_axis',(-1.,0.,-8.85143264970853E-20));
#423=DIRECTION('center_axis',(-8.85143264970853E-20,2.25969508272373E-21,
1.));
#424=DIRECTION('ref_axis',(-1.,0.,-8.85143264970853E-20));
#425=DIRECTION('center_axis',(8.85143264970853E-20,-2.25969508272373E-21,
-1.));
#426=DIRECTION('ref_axis',(-1.,0.,0.));
#427=DIRECTION('center_axis',(-1.48029736616688E-16,-1.,2.25969508272371E-21));
#428=DIRECTION('ref_axis',(1.,-1.48029736616688E-16,0.));
#429=DIRECTION('center_axis',(8.85143264970853E-20,-2.25969508272373E-21,
-1.));
#430=DIRECTION('ref_axis',(-1.,-4.51939016544745E-22,-8.85143264970853E-20));
#431=DIRECTION('center_axis',(8.85143264970853E-20,-2.25969508272373E-21,
-1.));
#432=DIRECTION('ref_axis',(-1.,0.,-8.85143264970853E-20));
#433=DIRECTION('center_axis',(-8.85143264970853E-20,2.25969508272373E-21,
1.));
#434=DIRECTION('ref_axis',(-1.,0.,-8.85143264970853E-20));
#435=DIRECTION('center_axis',(0.,0.,-1.));
#436=DIRECTION('ref_axis',(-1.,0.,0.));
#437=DIRECTION('',(0.,0.,1.));
#438=DIRECTION('center_axis',(0.,0.,1.));
#439=DIRECTION('ref_axis',(1.,0.,0.));
#440=DIRECTION('center_axis',(0.,0.,1.));
#441=DIRECTION('ref_axis',(-1.,0.,0.));
#442=DIRECTION('center_axis',(0.,0.,1.));
#443=DIRECTION('ref_axis',(1.,0.,0.));
#444=DIRECTION('center_axis',(0.,0.,1.));
#445=DIRECTION('ref_axis',(1.,-4.57331800944574E-16,0.));
#446=DIRECTION('center_axis',(0.,0.,1.));
#447=DIRECTION('ref_axis',(1.,0.,0.));
#448=DIRECTION('',(0.,0.,1.));
#449=DIRECTION('center_axis',(0.,0.,-1.));
#450=DIRECTION('ref_axis',(-1.,0.,0.));
#451=DIRECTION('center_axis',(-8.85143264970853E-20,2.25969508272373E-21,
-1.));
#452=DIRECTION('ref_axis',(-1.,-4.51939016544745E-22,0.));
#453=DIRECTION('center_axis',(0.,0.,1.));
#454=DIRECTION('ref_axis',(1.,0.,0.));
#455=DIRECTION('center_axis',(8.85143264970853E-20,-2.25969508272373E-21,
1.));
#456=DIRECTION('ref_axis',(-1.,4.51939016544745E-22,0.));
#457=DIRECTION('center_axis',(0.,0.,1.));
#458=DIRECTION('ref_axis',(1.,0.,0.));
#459=DIRECTION('center_axis',(0.,0.,1.));
#460=DIRECTION('ref_axis',(1.,-6.66133814775094E-16,0.));
#461=DIRECTION('center_axis',(0.,0.,1.));
#462=DIRECTION('ref_axis',(1.,0.,0.));
#463=DIRECTION('',(0.,0.,1.));
#464=DIRECTION('center_axis',(0.,0.,-1.));
#465=DIRECTION('ref_axis',(-1.,0.,0.));
#466=DIRECTION('center_axis',(0.,0.,-1.));
#467=DIRECTION('ref_axis',(-1.,0.,0.));
#468=DIRECTION('center_axis',(-8.85143264970853E-20,2.25969508272373E-21,
-1.));
#469=DIRECTION('ref_axis',(-1.,0.,0.));
#470=DIRECTION('center_axis',(8.85143264970853E-20,-2.25969508272373E-21,
1.));
#471=DIRECTION('ref_axis',(-1.,-4.51939016544745E-22,8.85143264970853E-20));
#472=DIRECTION('center_axis',(-1.48029736616688E-16,-1.,-2.25969508272371E-21));
#473=DIRECTION('ref_axis',(1.,-1.48029736616688E-16,0.));
#474=DIRECTION('center_axis',(0.,0.,-1.));
#475=DIRECTION('ref_axis',(-1.,0.,0.));
#476=DIRECTION('',(0.,0.,-1.));
#477=DIRECTION('center_axis',(-8.85143264970853E-20,2.25969508272373E-21,
-1.));
#478=DIRECTION('ref_axis',(-1.,0.,8.85143264970853E-20));
#479=DIRECTION('center_axis',(8.85143264970853E-20,-2.25969508272373E-21,
1.));
#480=DIRECTION('ref_axis',(-1.,0.,8.85143264970853E-20));
#481=DIRECTION('center_axis',(-8.85143264970853E-20,2.25969508272373E-21,
-1.));
#482=DIRECTION('ref_axis',(-1.,0.,0.));
#483=DIRECTION('center_axis',(-1.48029736616688E-16,-1.,-2.25969508272371E-21));
#484=DIRECTION('ref_axis',(1.,-1.48029736616688E-16,0.));
#485=DIRECTION('center_axis',(-8.85143264970853E-20,2.25969508272373E-21,
-1.));
#486=DIRECTION('ref_axis',(-1.,4.51939016544745E-22,8.85143264970853E-20));
#487=DIRECTION('center_axis',(-8.85143264970853E-20,2.25969508272373E-21,
-1.));
#488=DIRECTION('ref_axis',(-1.,0.,8.85143264970853E-20));
#489=DIRECTION('center_axis',(8.85143264970853E-20,-2.25969508272373E-21,
1.));
#490=DIRECTION('ref_axis',(-1.,0.,8.85143264970853E-20));
#491=DIRECTION('center_axis',(0.,0.,-1.));
#492=DIRECTION('ref_axis',(-1.,0.,0.));
#493=DIRECTION('',(0.,0.,-1.));
#494=CARTESIAN_POINT('',(0.,0.,0.));
#495=CARTESIAN_POINT('Origin',(-180.330547303491,8.00000000000026,53.0116104547109));
#496=CARTESIAN_POINT('',(-179.330547303491,8.00000000000022,53.0116104547109));
#497=CARTESIAN_POINT('Origin',(-194.330547303491,8.00000000000021,53.0116104547109));
#498=CARTESIAN_POINT('',(-208.33054730349,8.00000000000026,53.0116104547109));
#499=CARTESIAN_POINT('Origin',(-194.330547303491,8.00000000000026,53.0116104547109));
#500=CARTESIAN_POINT('Origin',(-194.330547303491,8.00000000000026,51.5116104547109));
#501=CARTESIAN_POINT('',(-208.33054730349,8.00000000000026,50.0116104547109));
#502=CARTESIAN_POINT('Origin',(-194.330547303491,8.00000000000026,50.0116104547109));
#503=CARTESIAN_POINT('',(-208.33054730349,8.00000000000026,51.5116104547109));
#504=CARTESIAN_POINT('Origin',(-179.330547303491,8.00000000000026,50.0116104547109));
#505=CARTESIAN_POINT('',(-179.330547303491,8.00000000000026,50.0116104547109));
#506=CARTESIAN_POINT('Origin',(-194.330547303491,8.00000000000021,50.0116104547109));
#507=CARTESIAN_POINT('Origin',(-180.330547303491,8.00000000000028,48.0116104547109));
#508=CARTESIAN_POINT('',(-179.330547303491,8.00000000000028,48.0116104547109));
#509=CARTESIAN_POINT('Origin',(-194.330547303491,8.00000000000021,48.0116104547109));
#510=CARTESIAN_POINT('',(-208.33054730349,8.00000000000025,48.0116104547109));
#511=CARTESIAN_POINT('Origin',(-194.330547303491,8.00000000000026,48.0116104547109));
#512=CARTESIAN_POINT('Origin',(-194.330547303491,8.00000000000026,46.5116104547109));
#513=CARTESIAN_POINT('',(-208.33054730349,8.00000000000025,45.0116104547109));
#514=CARTESIAN_POINT('Origin',(-194.330547303491,8.00000000000026,45.0116104547109));
#515=CARTESIAN_POINT('',(-208.33054730349,8.00000000000025,46.5116104547109));
#516=CARTESIAN_POINT('Origin',(-179.330547303491,8.00000000000026,45.0116104547109));
#517=CARTESIAN_POINT('',(-179.330547303491,8.00000000000021,45.0116104547109));
#518=CARTESIAN_POINT('Origin',(-194.330547303491,8.00000000000021,45.0116104547109));
#519=CARTESIAN_POINT('Origin',(-194.330547303491,8.00000000000021,45.0116104547109));
#520=CARTESIAN_POINT('',(-182.330547303491,8.00000000000022,42.0116104547109));
#521=CARTESIAN_POINT('Origin',(-194.330547303491,8.00000000000021,42.0116104547109));
#522=CARTESIAN_POINT('Origin',(-182.330547303491,8.00000000000021,45.0116104547109));
#523=CARTESIAN_POINT('Origin',(-194.330547303491,8.00000000000021,56.0116104547109));
#524=CARTESIAN_POINT('',(-179.330547303491,8.00000000000021,56.0116104547109));
#525=CARTESIAN_POINT('Origin',(-194.330547303491,8.00000000000022,42.0116104547109));
#526=CARTESIAN_POINT('',(-189.330547303491,8.00000000000021,42.0116104547109));
#527=CARTESIAN_POINT('Origin',(-194.330547303491,8.00000000000021,42.0116104547109));
#528=CARTESIAN_POINT('Origin',(-194.330547303491,8.00000000000021,53.0116104547109));
#529=CARTESIAN_POINT('',(-182.330547303491,8.00000000000021,56.0116104547109));
#530=CARTESIAN_POINT('Origin',(-182.330547303491,8.00000000000021,53.0116104547109));
#531=CARTESIAN_POINT('Origin',(-194.330547303491,8.00000000000021,56.0116104547109));
#532=CARTESIAN_POINT('Origin',(-194.330547303491,8.00000000000022,56.0116104547109));
#533=CARTESIAN_POINT('',(-189.330547303491,8.00000000000021,56.0116104547109));
#534=CARTESIAN_POINT('Origin',(-194.330547303491,8.00000000000021,56.0116104547109));
#535=CARTESIAN_POINT('Origin',(-194.330547303491,8.00000000000021,56.0116104547109));
#536=CARTESIAN_POINT('',(-189.330547303491,8.00000000000021,56.0116104547109));
#537=CARTESIAN_POINT('Origin',(-180.330547303491,8.00000000000026,-50.0116104547109));
#538=CARTESIAN_POINT('',(-179.330547303491,8.00000000000026,-50.0116104547109));
#539=CARTESIAN_POINT('Origin',(-194.330547303491,8.00000000000021,-50.0116104547109));
#540=CARTESIAN_POINT('',(-208.33054730349,8.00000000000027,-50.0116104547109));
#541=CARTESIAN_POINT('Origin',(-194.330547303491,8.00000000000027,-50.0116104547109));
#542=CARTESIAN_POINT('Origin',(-194.330547303491,8.00000000000027,-51.5116104547109));
#543=CARTESIAN_POINT('',(-208.33054730349,8.00000000000027,-53.0116104547109));
#544=CARTESIAN_POINT('Origin',(-194.330547303491,8.00000000000027,-53.0116104547109));
#545=CARTESIAN_POINT('',(-208.33054730349,8.00000000000027,-51.5116104547109));
#546=CARTESIAN_POINT('Origin',(-179.330547303491,8.00000000000026,-53.0116104547109));
#547=CARTESIAN_POINT('',(-179.330547303491,8.00000000000021,-53.0116104547109));
#548=CARTESIAN_POINT('Origin',(-194.330547303491,8.00000000000021,-53.0116104547109));
#549=CARTESIAN_POINT('Origin',(-180.330547303491,8.00000000000028,-45.0116104547109));
#550=CARTESIAN_POINT('',(-179.330547303491,8.00000000000022,-45.0116104547109));
#551=CARTESIAN_POINT('Origin',(-194.330547303491,8.00000000000021,-45.0116104547109));
#552=CARTESIAN_POINT('',(-208.33054730349,8.00000000000028,-45.0116104547109));
#553=CARTESIAN_POINT('Origin',(-194.330547303491,8.00000000000027,-45.0116104547109));
#554=CARTESIAN_POINT('Origin',(-194.330547303491,8.00000000000027,-46.5116104547109));
#555=CARTESIAN_POINT('',(-208.33054730349,8.00000000000028,-48.0116104547109));
#556=CARTESIAN_POINT('Origin',(-194.330547303491,8.00000000000027,-48.0116104547109));
#557=CARTESIAN_POINT('',(-208.33054730349,8.00000000000028,-46.5116104547109));
#558=CARTESIAN_POINT('Origin',(-179.330547303491,8.00000000000028,-48.0116104547109));
#559=CARTESIAN_POINT('',(-179.330547303491,8.00000000000028,-48.0116104547109));
#560=CARTESIAN_POINT('Origin',(-194.330547303491,8.00000000000021,-48.0116104547109));
#561=CARTESIAN_POINT('Origin',(-194.330547303491,8.00000000000021,-53.0116104547109));
#562=CARTESIAN_POINT('',(-182.330547303491,8.00000000000022,-56.0116104547109));
#563=CARTESIAN_POINT('Origin',(-194.330547303491,8.00000000000021,-56.0116104547109));
#564=CARTESIAN_POINT('Origin',(-182.330547303491,8.00000000000021,-53.0116104547109));
#565=CARTESIAN_POINT('Origin',(-194.330547303491,8.00000000000021,-56.0116104547109));
#566=CARTESIAN_POINT('',(-179.330547303491,8.00000000000021,-56.0116104547109));
#567=CARTESIAN_POINT('Origin',(-194.330547303491,8.00000000000022,-56.0116104547109));
#568=CARTESIAN_POINT('',(-189.330547303491,8.00000000000021,-56.0116104547109));
#569=CARTESIAN_POINT('Origin',(-194.330547303491,8.00000000000021,-56.0116104547109));
#570=CARTESIAN_POINT('Origin',(-194.330547303491,8.00000000000021,-45.0116104547109));
#571=CARTESIAN_POINT('',(-182.330547303491,8.00000000000021,-42.0116104547109));
#572=CARTESIAN_POINT('Origin',(-182.330547303491,8.00000000000021,-45.0116104547109));
#573=CARTESIAN_POINT('Origin',(-194.330547303491,8.00000000000021,-42.0116104547109));
#574=CARTESIAN_POINT('Origin',(-194.330547303491,8.00000000000022,-42.0116104547109));
#575=CARTESIAN_POINT('',(-189.330547303491,8.00000000000021,-42.0116104547109));
#576=CARTESIAN_POINT('Origin',(-194.330547303491,8.00000000000021,-42.0116104547109));
#577=CARTESIAN_POINT('Origin',(-194.330547303491,8.00000000000021,-56.0116104547109));
#578=CARTESIAN_POINT('',(-189.330547303491,8.00000000000021,-56.0116104547109));
#579=UNCERTAINTY_MEASURE_WITH_UNIT(LENGTH_MEASURE(0.01),#583,
'DISTANCE_ACCURACY_VALUE',
'Maximum model space distance between geometric entities at asserted c
onnectivities');
#580=UNCERTAINTY_MEASURE_WITH_UNIT(LENGTH_MEASURE(0.01),#583,
'DISTANCE_ACCURACY_VALUE',
'Maximum model space distance between geometric entities at asserted c
onnectivities');
#581=(
GEOMETRIC_REPRESENTATION_CONTEXT(3)
GLOBAL_UNCERTAINTY_ASSIGNED_CONTEXT((#579))
GLOBAL_UNIT_ASSIGNED_CONTEXT((#583,#585,#586))
REPRESENTATION_CONTEXT('','3D')
);
#582=(
GEOMETRIC_REPRESENTATION_CONTEXT(3)
GLOBAL_UNCERTAINTY_ASSIGNED_CONTEXT((#580))
GLOBAL_UNIT_ASSIGNED_CONTEXT((#583,#585,#586))
REPRESENTATION_CONTEXT('','3D')
);
#583=(
LENGTH_UNIT()
NAMED_UNIT(*)
SI_UNIT(.MILLI.,.METRE.)
);
#584=(
LENGTH_UNIT()
NAMED_UNIT(*)
SI_UNIT($,.METRE.)
);
#585=(
NAMED_UNIT(*)
PLANE_ANGLE_UNIT()
SI_UNIT($,.RADIAN.)
);
#586=(
NAMED_UNIT(*)
SI_UNIT($,.STERADIAN.)
SOLID_ANGLE_UNIT()
);
#587=SHAPE_DEFINITION_REPRESENTATION(#588,#589);
#588=PRODUCT_DEFINITION_SHAPE('',$,#591);
#589=SHAPE_REPRESENTATION('',(#327),#581);
#590=PRODUCT_DEFINITION_CONTEXT('part definition',#595,'design');
#591=PRODUCT_DEFINITION('2026-06-13-13-57-21-719','frontwheels',#592,#590);
#592=PRODUCT_DEFINITION_FORMATION('',$,#597);
#593=PRODUCT_RELATED_PRODUCT_CATEGORY('frontwheels','frontwheels',(#597));
#594=APPLICATION_PROTOCOL_DEFINITION('international standard',
'automotive_design',2009,#595);
#595=APPLICATION_CONTEXT(
'Core Data for Automotive Mechanical Design Process');
#596=PRODUCT_CONTEXT('part definition',#595,'mechanical');
#597=PRODUCT('2026-06-13-13-57-21-719','frontwheels',$,(#596));
#598=PRESENTATION_STYLE_ASSIGNMENT((#600));
#599=PRESENTATION_STYLE_ASSIGNMENT((#601));
#600=SURFACE_STYLE_USAGE(.BOTH.,#602);
#601=SURFACE_STYLE_USAGE(.BOTH.,#603);
#602=SURFACE_SIDE_STYLE('',(#604));
#603=SURFACE_SIDE_STYLE('',(#605));
#604=SURFACE_STYLE_FILL_AREA(#606);
#605=SURFACE_STYLE_FILL_AREA(#607);
#606=FILL_AREA_STYLE('\X\C7elik - Saten',(#608));
#607=FILL_AREA_STYLE('Plastik - Mat (Siyah)',(#609));
#608=FILL_AREA_STYLE_COLOUR('\X\C7elik - Saten',#610);
#609=FILL_AREA_STYLE_COLOUR('Plastik - Mat (Siyah)',#611);
#610=COLOUR_RGB('\X\C7elik - Saten',0.627450980392157,0.627450980392157,
0.627450980392157);
#611=COLOUR_RGB('Plastik - Mat (Siyah)',0.0980392156862745,0.0980392156862745,
0.0980392156862745);
ENDSEC;
END-ISO-10303-21;
