ISO-10303-21;
HEADER;
/* Generated by software containing ST-Developer
 * from STEP Tools, Inc. (www.steptools.com) 
 */

FILE_DESCRIPTION(
/* description */ (''),
/* implementation_level */ '2;1');

FILE_NAME(
/* name */ 'front wheel_axles.step',
/* time_stamp */ '2026-06-13T13:58:03+03:00',
/* author */ (''),
/* organization */ (''),
/* preprocessor_version */ 'ST-DEVELOPER v20.1',
/* originating_system */ 'Autodesk Translation Framework v15.8.0.0',
/* authorisation */ '');

FILE_SCHEMA (('AUTOMOTIVE_DESIGN { 1 0 10303 214 3 1 1 }'));
ENDSEC;

DATA;
#10=MECHANICAL_DESIGN_GEOMETRIC_PRESENTATION_REPRESENTATION('',(#13,#14),
#1002);
#11=SHAPE_REPRESENTATION_RELATIONSHIP('SRR','None',#1009,#12);
#12=ADVANCED_BREP_SHAPE_REPRESENTATION('',(#15,#16),#1001);
#13=STYLED_ITEM('',(#1019),#15);
#14=STYLED_ITEM('',(#1020),#16);
#15=MANIFOLD_SOLID_BREP('G\X\F6vde1',#589);
#16=MANIFOLD_SOLID_BREP('G\X\F6vde2',#590);
#17=FACE_BOUND('',#93,.T.);
#18=FACE_BOUND('',#101,.T.);
#19=FACE_BOUND('',#108,.T.);
#20=FACE_BOUND('',#109,.T.);
#21=FACE_BOUND('',#111,.T.);
#22=FACE_BOUND('',#112,.T.);
#23=FACE_BOUND('',#119,.T.);
#24=FACE_BOUND('',#125,.T.);
#25=FACE_BOUND('',#132,.T.);
#26=FACE_BOUND('',#133,.T.);
#27=FACE_BOUND('',#135,.T.);
#28=FACE_BOUND('',#136,.T.);
#29=PLANE('',#607);
#30=PLANE('',#611);
#31=PLANE('',#612);
#32=PLANE('',#613);
#33=PLANE('',#614);
#34=PLANE('',#615);
#35=PLANE('',#616);
#36=PLANE('',#617);
#37=PLANE('',#618);
#38=PLANE('',#628);
#39=PLANE('',#632);
#40=PLANE('',#633);
#41=PLANE('',#634);
#42=PLANE('',#635);
#43=PLANE('',#642);
#44=PLANE('',#643);
#45=PLANE('',#644);
#46=PLANE('',#645);
#47=PLANE('',#646);
#48=PLANE('',#647);
#49=PLANE('',#648);
#50=PLANE('',#655);
#51=PLANE('',#662);
#52=PLANE('',#663);
#53=FACE_OUTER_BOUND('',#89,.T.);
#54=FACE_OUTER_BOUND('',#90,.T.);
#55=FACE_OUTER_BOUND('',#91,.T.);
#56=FACE_OUTER_BOUND('',#92,.T.);
#57=FACE_OUTER_BOUND('',#94,.T.);
#58=FACE_OUTER_BOUND('',#95,.T.);
#59=FACE_OUTER_BOUND('',#96,.T.);
#60=FACE_OUTER_BOUND('',#97,.T.);
#61=FACE_OUTER_BOUND('',#98,.T.);
#62=FACE_OUTER_BOUND('',#99,.T.);
#63=FACE_OUTER_BOUND('',#100,.T.);
#64=FACE_OUTER_BOUND('',#102,.T.);
#65=FACE_OUTER_BOUND('',#103,.T.);
#66=FACE_OUTER_BOUND('',#104,.T.);
#67=FACE_OUTER_BOUND('',#105,.T.);
#68=FACE_OUTER_BOUND('',#106,.T.);
#69=FACE_OUTER_BOUND('',#107,.T.);
#70=FACE_OUTER_BOUND('',#110,.T.);
#71=FACE_OUTER_BOUND('',#113,.T.);
#72=FACE_OUTER_BOUND('',#114,.T.);
#73=FACE_OUTER_BOUND('',#115,.T.);
#74=FACE_OUTER_BOUND('',#116,.T.);
#75=FACE_OUTER_BOUND('',#117,.T.);
#76=FACE_OUTER_BOUND('',#118,.T.);
#77=FACE_OUTER_BOUND('',#120,.T.);
#78=FACE_OUTER_BOUND('',#121,.T.);
#79=FACE_OUTER_BOUND('',#122,.T.);
#80=FACE_OUTER_BOUND('',#123,.T.);
#81=FACE_OUTER_BOUND('',#124,.T.);
#82=FACE_OUTER_BOUND('',#126,.T.);
#83=FACE_OUTER_BOUND('',#127,.T.);
#84=FACE_OUTER_BOUND('',#128,.T.);
#85=FACE_OUTER_BOUND('',#129,.T.);
#86=FACE_OUTER_BOUND('',#130,.T.);
#87=FACE_OUTER_BOUND('',#131,.T.);
#88=FACE_OUTER_BOUND('',#134,.T.);
#89=EDGE_LOOP('',(#389,#390,#391,#392));
#90=EDGE_LOOP('',(#393));
#91=EDGE_LOOP('',(#394,#395,#396,#397));
#92=EDGE_LOOP('',(#398));
#93=EDGE_LOOP('',(#399));
#94=EDGE_LOOP('',(#400,#401,#402,#403));
#95=EDGE_LOOP('',(#404,#405,#406,#407));
#96=EDGE_LOOP('',(#408,#409,#410,#411,#412,#413));
#97=EDGE_LOOP('',(#414,#415,#416,#417));
#98=EDGE_LOOP('',(#418,#419,#420,#421,#422,#423));
#99=EDGE_LOOP('',(#424,#425,#426,#427));
#100=EDGE_LOOP('',(#428,#429,#430,#431));
#101=EDGE_LOOP('',(#432));
#102=EDGE_LOOP('',(#433,#434,#435,#436));
#103=EDGE_LOOP('',(#437,#438,#439,#440));
#104=EDGE_LOOP('',(#441,#442,#443,#444));
#105=EDGE_LOOP('',(#445,#446,#447,#448));
#106=EDGE_LOOP('',(#449,#450,#451,#452));
#107=EDGE_LOOP('',(#453,#454,#455,#456));
#108=EDGE_LOOP('',(#457));
#109=EDGE_LOOP('',(#458));
#110=EDGE_LOOP('',(#459,#460,#461,#462));
#111=EDGE_LOOP('',(#463));
#112=EDGE_LOOP('',(#464));
#113=EDGE_LOOP('',(#465,#466,#467,#468));
#114=EDGE_LOOP('',(#469,#470,#471,#472));
#115=EDGE_LOOP('',(#473,#474,#475,#476));
#116=EDGE_LOOP('',(#477,#478,#479,#480));
#117=EDGE_LOOP('',(#481));
#118=EDGE_LOOP('',(#482));
#119=EDGE_LOOP('',(#483));
#120=EDGE_LOOP('',(#484,#485,#486,#487,#488,#489));
#121=EDGE_LOOP('',(#490,#491,#492,#493));
#122=EDGE_LOOP('',(#494,#495,#496,#497,#498,#499));
#123=EDGE_LOOP('',(#500,#501,#502,#503));
#124=EDGE_LOOP('',(#504,#505,#506,#507));
#125=EDGE_LOOP('',(#508));
#126=EDGE_LOOP('',(#509,#510,#511,#512));
#127=EDGE_LOOP('',(#513,#514,#515,#516));
#128=EDGE_LOOP('',(#517,#518,#519,#520));
#129=EDGE_LOOP('',(#521,#522,#523,#524));
#130=EDGE_LOOP('',(#525,#526,#527,#528));
#131=EDGE_LOOP('',(#529,#530,#531,#532));
#132=EDGE_LOOP('',(#533));
#133=EDGE_LOOP('',(#534));
#134=EDGE_LOOP('',(#535,#536,#537,#538));
#135=EDGE_LOOP('',(#539));
#136=EDGE_LOOP('',(#540));
#137=LINE('',#843,#189);
#138=LINE('',#850,#190);
#139=LINE('',#856,#191);
#140=LINE('',#858,#192);
#141=LINE('',#860,#193);
#142=LINE('',#861,#194);
#143=LINE('',#865,#195);
#144=LINE('',#867,#196);
#145=LINE('',#869,#197);
#146=LINE('',#870,#198);
#147=LINE('',#873,#199);
#148=LINE('',#875,#200);
#149=LINE('',#876,#201);
#150=LINE('',#877,#202);
#151=LINE('',#880,#203);
#152=LINE('',#881,#204);
#153=LINE('',#884,#205);
#154=LINE('',#885,#206);
#155=LINE('',#886,#207);
#156=LINE('',#888,#208);
#157=LINE('',#894,#209);
#158=LINE('',#900,#210);
#159=LINE('',#907,#211);
#160=LINE('',#910,#212);
#161=LINE('',#912,#213);
#162=LINE('',#913,#214);
#163=LINE('',#922,#215);
#164=LINE('',#924,#216);
#165=LINE('',#926,#217);
#166=LINE('',#927,#218);
#167=LINE('',#931,#219);
#168=LINE('',#933,#220);
#169=LINE('',#935,#221);
#170=LINE('',#936,#222);
#171=LINE('',#941,#223);
#172=LINE('',#947,#224);
#173=LINE('',#952,#225);
#174=LINE('',#954,#226);
#175=LINE('',#956,#227);
#176=LINE('',#957,#228);
#177=LINE('',#960,#229);
#178=LINE('',#961,#230);
#179=LINE('',#963,#231);
#180=LINE('',#965,#232);
#181=LINE('',#966,#233);
#182=LINE('',#968,#234);
#183=LINE('',#974,#235);
#184=LINE('',#980,#236);
#185=LINE('',#985,#237);
#186=LINE('',#987,#238);
#187=LINE('',#989,#239);
#188=LINE('',#990,#240);
#189=VECTOR('',#670,1.49999999999999);
#190=VECTOR('',#679,2.5);
#191=VECTOR('',#686,10.);
#192=VECTOR('',#687,10.);
#193=VECTOR('',#688,10.);
#194=VECTOR('',#689,10.);
#195=VECTOR('',#692,10.);
#196=VECTOR('',#693,10.);
#197=VECTOR('',#694,10.);
#198=VECTOR('',#695,10.);
#199=VECTOR('',#698,10.);
#200=VECTOR('',#699,10.);
#201=VECTOR('',#700,10.);
#202=VECTOR('',#701,10.);
#203=VECTOR('',#704,10.);
#204=VECTOR('',#705,10.);
#205=VECTOR('',#708,10.);
#206=VECTOR('',#709,10.);
#207=VECTOR('',#710,10.);
#208=VECTOR('',#713,10.);
#209=VECTOR('',#720,1.99999999999999);
#210=VECTOR('',#727,1.99999999999999);
#211=VECTOR('',#736,10.);
#212=VECTOR('',#739,10.);
#213=VECTOR('',#740,10.);
#214=VECTOR('',#741,10.);
#215=VECTOR('',#754,10.);
#216=VECTOR('',#755,10.);
#217=VECTOR('',#756,10.);
#218=VECTOR('',#757,10.);
#219=VECTOR('',#760,10.);
#220=VECTOR('',#761,10.);
#221=VECTOR('',#762,10.);
#222=VECTOR('',#763,10.);
#223=VECTOR('',#768,2.5);
#224=VECTOR('',#775,1.50000000000002);
#225=VECTOR('',#784,10.);
#226=VECTOR('',#785,10.);
#227=VECTOR('',#786,10.);
#228=VECTOR('',#787,10.);
#229=VECTOR('',#790,10.);
#230=VECTOR('',#791,10.);
#231=VECTOR('',#794,10.);
#232=VECTOR('',#795,10.);
#233=VECTOR('',#796,10.);
#234=VECTOR('',#799,10.);
#235=VECTOR('',#806,1.99999999999999);
#236=VECTOR('',#813,1.99999999999999);
#237=VECTOR('',#818,10.);
#238=VECTOR('',#819,10.);
#239=VECTOR('',#820,10.);
#240=VECTOR('',#821,10.);
#241=CIRCLE('',#605,1.49999999999999);
#242=CIRCLE('',#606,1.49999999999999);
#243=CIRCLE('',#609,2.5);
#244=CIRCLE('',#610,2.5);
#245=CIRCLE('',#620,1.99999999999999);
#246=CIRCLE('',#621,1.99999999999999);
#247=CIRCLE('',#623,1.99999999999999);
#248=CIRCLE('',#624,1.99999999999999);
#249=CIRCLE('',#626,3.99999999999999);
#250=CIRCLE('',#627,3.99999999999999);
#251=CIRCLE('',#630,3.99999999999999);
#252=CIRCLE('',#631,3.99999999999999);
#253=CIRCLE('',#637,2.5);
#254=CIRCLE('',#638,2.5);
#255=CIRCLE('',#640,1.50000000000002);
#256=CIRCLE('',#641,1.50000000000002);
#257=CIRCLE('',#650,1.99999999999999);
#258=CIRCLE('',#651,1.99999999999999);
#259=CIRCLE('',#653,1.99999999999999);
#260=CIRCLE('',#654,1.99999999999999);
#261=CIRCLE('',#657,3.99999999999999);
#262=CIRCLE('',#658,3.99999999999999);
#263=CIRCLE('',#660,3.99999999999999);
#264=CIRCLE('',#661,3.99999999999999);
#265=VERTEX_POINT('',#840);
#266=VERTEX_POINT('',#842);
#267=VERTEX_POINT('',#847);
#268=VERTEX_POINT('',#849);
#269=VERTEX_POINT('',#854);
#270=VERTEX_POINT('',#855);
#271=VERTEX_POINT('',#857);
#272=VERTEX_POINT('',#859);
#273=VERTEX_POINT('',#863);
#274=VERTEX_POINT('',#864);
#275=VERTEX_POINT('',#866);
#276=VERTEX_POINT('',#868);
#277=VERTEX_POINT('',#872);
#278=VERTEX_POINT('',#874);
#279=VERTEX_POINT('',#879);
#280=VERTEX_POINT('',#883);
#281=VERTEX_POINT('',#891);
#282=VERTEX_POINT('',#893);
#283=VERTEX_POINT('',#897);
#284=VERTEX_POINT('',#899);
#285=VERTEX_POINT('',#903);
#286=VERTEX_POINT('',#905);
#287=VERTEX_POINT('',#909);
#288=VERTEX_POINT('',#911);
#289=VERTEX_POINT('',#920);
#290=VERTEX_POINT('',#921);
#291=VERTEX_POINT('',#923);
#292=VERTEX_POINT('',#925);
#293=VERTEX_POINT('',#929);
#294=VERTEX_POINT('',#930);
#295=VERTEX_POINT('',#932);
#296=VERTEX_POINT('',#934);
#297=VERTEX_POINT('',#938);
#298=VERTEX_POINT('',#940);
#299=VERTEX_POINT('',#944);
#300=VERTEX_POINT('',#946);
#301=VERTEX_POINT('',#953);
#302=VERTEX_POINT('',#955);
#303=VERTEX_POINT('',#959);
#304=VERTEX_POINT('',#964);
#305=VERTEX_POINT('',#971);
#306=VERTEX_POINT('',#973);
#307=VERTEX_POINT('',#977);
#308=VERTEX_POINT('',#979);
#309=VERTEX_POINT('',#983);
#310=VERTEX_POINT('',#984);
#311=VERTEX_POINT('',#986);
#312=VERTEX_POINT('',#988);
#313=EDGE_CURVE('',#265,#265,#241,.T.);
#314=EDGE_CURVE('',#265,#266,#137,.T.);
#315=EDGE_CURVE('',#266,#266,#242,.T.);
#316=EDGE_CURVE('',#267,#267,#243,.T.);
#317=EDGE_CURVE('',#267,#268,#138,.T.);
#318=EDGE_CURVE('',#268,#268,#244,.T.);
#319=EDGE_CURVE('',#269,#270,#139,.T.);
#320=EDGE_CURVE('',#269,#271,#140,.T.);
#321=EDGE_CURVE('',#271,#272,#141,.T.);
#322=EDGE_CURVE('',#272,#270,#142,.T.);
#323=EDGE_CURVE('',#273,#274,#143,.T.);
#324=EDGE_CURVE('',#273,#275,#144,.T.);
#325=EDGE_CURVE('',#275,#276,#145,.T.);
#326=EDGE_CURVE('',#276,#274,#146,.T.);
#327=EDGE_CURVE('',#276,#277,#147,.T.);
#328=EDGE_CURVE('',#278,#277,#148,.T.);
#329=EDGE_CURVE('',#271,#278,#149,.T.);
#330=EDGE_CURVE('',#274,#269,#150,.T.);
#331=EDGE_CURVE('',#279,#278,#151,.T.);
#332=EDGE_CURVE('',#272,#279,#152,.T.);
#333=EDGE_CURVE('',#280,#279,#153,.T.);
#334=EDGE_CURVE('',#275,#280,#154,.T.);
#335=EDGE_CURVE('',#273,#270,#155,.T.);
#336=EDGE_CURVE('',#277,#280,#156,.T.);
#337=EDGE_CURVE('',#281,#281,#245,.T.);
#338=EDGE_CURVE('',#281,#282,#157,.T.);
#339=EDGE_CURVE('',#282,#282,#246,.T.);
#340=EDGE_CURVE('',#283,#283,#247,.T.);
#341=EDGE_CURVE('',#283,#284,#158,.T.);
#342=EDGE_CURVE('',#284,#284,#248,.T.);
#343=EDGE_CURVE('',#285,#274,#249,.T.);
#344=EDGE_CURVE('',#286,#269,#250,.T.);
#345=EDGE_CURVE('',#285,#286,#159,.T.);
#346=EDGE_CURVE('',#287,#285,#160,.T.);
#347=EDGE_CURVE('',#288,#286,#161,.T.);
#348=EDGE_CURVE('',#287,#288,#162,.T.);
#349=EDGE_CURVE('',#273,#287,#251,.T.);
#350=EDGE_CURVE('',#270,#288,#252,.T.);
#351=EDGE_CURVE('',#289,#290,#163,.T.);
#352=EDGE_CURVE('',#291,#290,#164,.T.);
#353=EDGE_CURVE('',#292,#291,#165,.T.);
#354=EDGE_CURVE('',#289,#292,#166,.T.);
#355=EDGE_CURVE('',#293,#294,#167,.T.);
#356=EDGE_CURVE('',#295,#293,#168,.T.);
#357=EDGE_CURVE('',#296,#295,#169,.T.);
#358=EDGE_CURVE('',#294,#296,#170,.T.);
#359=EDGE_CURVE('',#297,#297,#253,.T.);
#360=EDGE_CURVE('',#297,#298,#171,.T.);
#361=EDGE_CURVE('',#298,#298,#254,.T.);
#362=EDGE_CURVE('',#299,#299,#255,.T.);
#363=EDGE_CURVE('',#299,#300,#172,.T.);
#364=EDGE_CURVE('',#300,#300,#256,.T.);
#365=EDGE_CURVE('',#290,#294,#173,.T.);
#366=EDGE_CURVE('',#296,#301,#174,.T.);
#367=EDGE_CURVE('',#301,#302,#175,.T.);
#368=EDGE_CURVE('',#291,#302,#176,.T.);
#369=EDGE_CURVE('',#295,#303,#177,.T.);
#370=EDGE_CURVE('',#303,#301,#178,.T.);
#371=EDGE_CURVE('',#289,#293,#179,.T.);
#372=EDGE_CURVE('',#292,#304,#180,.T.);
#373=EDGE_CURVE('',#304,#303,#181,.T.);
#374=EDGE_CURVE('',#302,#304,#182,.T.);
#375=EDGE_CURVE('',#305,#305,#257,.T.);
#376=EDGE_CURVE('',#305,#306,#183,.T.);
#377=EDGE_CURVE('',#306,#306,#258,.T.);
#378=EDGE_CURVE('',#307,#307,#259,.T.);
#379=EDGE_CURVE('',#307,#308,#184,.T.);
#380=EDGE_CURVE('',#308,#308,#260,.T.);
#381=EDGE_CURVE('',#309,#310,#185,.T.);
#382=EDGE_CURVE('',#309,#311,#186,.T.);
#383=EDGE_CURVE('',#312,#311,#187,.T.);
#384=EDGE_CURVE('',#310,#312,#188,.T.);
#385=EDGE_CURVE('',#290,#310,#261,.T.);
#386=EDGE_CURVE('',#294,#312,#262,.T.);
#387=EDGE_CURVE('',#309,#289,#263,.T.);
#388=EDGE_CURVE('',#311,#293,#264,.T.);
#389=ORIENTED_EDGE('',*,*,#313,.F.);
#390=ORIENTED_EDGE('',*,*,#314,.T.);
#391=ORIENTED_EDGE('',*,*,#315,.T.);
#392=ORIENTED_EDGE('',*,*,#314,.F.);
#393=ORIENTED_EDGE('',*,*,#315,.F.);
#394=ORIENTED_EDGE('',*,*,#316,.F.);
#395=ORIENTED_EDGE('',*,*,#317,.T.);
#396=ORIENTED_EDGE('',*,*,#318,.F.);
#397=ORIENTED_EDGE('',*,*,#317,.F.);
#398=ORIENTED_EDGE('',*,*,#316,.T.);
#399=ORIENTED_EDGE('',*,*,#313,.T.);
#400=ORIENTED_EDGE('',*,*,#319,.F.);
#401=ORIENTED_EDGE('',*,*,#320,.T.);
#402=ORIENTED_EDGE('',*,*,#321,.T.);
#403=ORIENTED_EDGE('',*,*,#322,.T.);
#404=ORIENTED_EDGE('',*,*,#323,.F.);
#405=ORIENTED_EDGE('',*,*,#324,.T.);
#406=ORIENTED_EDGE('',*,*,#325,.T.);
#407=ORIENTED_EDGE('',*,*,#326,.T.);
#408=ORIENTED_EDGE('',*,*,#326,.F.);
#409=ORIENTED_EDGE('',*,*,#327,.T.);
#410=ORIENTED_EDGE('',*,*,#328,.F.);
#411=ORIENTED_EDGE('',*,*,#329,.F.);
#412=ORIENTED_EDGE('',*,*,#320,.F.);
#413=ORIENTED_EDGE('',*,*,#330,.F.);
#414=ORIENTED_EDGE('',*,*,#321,.F.);
#415=ORIENTED_EDGE('',*,*,#329,.T.);
#416=ORIENTED_EDGE('',*,*,#331,.F.);
#417=ORIENTED_EDGE('',*,*,#332,.F.);
#418=ORIENTED_EDGE('',*,*,#322,.F.);
#419=ORIENTED_EDGE('',*,*,#332,.T.);
#420=ORIENTED_EDGE('',*,*,#333,.F.);
#421=ORIENTED_EDGE('',*,*,#334,.F.);
#422=ORIENTED_EDGE('',*,*,#324,.F.);
#423=ORIENTED_EDGE('',*,*,#335,.T.);
#424=ORIENTED_EDGE('',*,*,#325,.F.);
#425=ORIENTED_EDGE('',*,*,#334,.T.);
#426=ORIENTED_EDGE('',*,*,#336,.F.);
#427=ORIENTED_EDGE('',*,*,#327,.F.);
#428=ORIENTED_EDGE('',*,*,#336,.T.);
#429=ORIENTED_EDGE('',*,*,#333,.T.);
#430=ORIENTED_EDGE('',*,*,#331,.T.);
#431=ORIENTED_EDGE('',*,*,#328,.T.);
#432=ORIENTED_EDGE('',*,*,#318,.T.);
#433=ORIENTED_EDGE('',*,*,#337,.F.);
#434=ORIENTED_EDGE('',*,*,#338,.T.);
#435=ORIENTED_EDGE('',*,*,#339,.T.);
#436=ORIENTED_EDGE('',*,*,#338,.F.);
#437=ORIENTED_EDGE('',*,*,#340,.F.);
#438=ORIENTED_EDGE('',*,*,#341,.T.);
#439=ORIENTED_EDGE('',*,*,#342,.T.);
#440=ORIENTED_EDGE('',*,*,#341,.F.);
#441=ORIENTED_EDGE('',*,*,#343,.T.);
#442=ORIENTED_EDGE('',*,*,#330,.T.);
#443=ORIENTED_EDGE('',*,*,#344,.F.);
#444=ORIENTED_EDGE('',*,*,#345,.F.);
#445=ORIENTED_EDGE('',*,*,#346,.T.);
#446=ORIENTED_EDGE('',*,*,#345,.T.);
#447=ORIENTED_EDGE('',*,*,#347,.F.);
#448=ORIENTED_EDGE('',*,*,#348,.F.);
#449=ORIENTED_EDGE('',*,*,#349,.T.);
#450=ORIENTED_EDGE('',*,*,#348,.T.);
#451=ORIENTED_EDGE('',*,*,#350,.F.);
#452=ORIENTED_EDGE('',*,*,#335,.F.);
#453=ORIENTED_EDGE('',*,*,#350,.T.);
#454=ORIENTED_EDGE('',*,*,#347,.T.);
#455=ORIENTED_EDGE('',*,*,#344,.T.);
#456=ORIENTED_EDGE('',*,*,#319,.T.);
#457=ORIENTED_EDGE('',*,*,#340,.T.);
#458=ORIENTED_EDGE('',*,*,#337,.T.);
#459=ORIENTED_EDGE('',*,*,#349,.F.);
#460=ORIENTED_EDGE('',*,*,#323,.T.);
#461=ORIENTED_EDGE('',*,*,#343,.F.);
#462=ORIENTED_EDGE('',*,*,#346,.F.);
#463=ORIENTED_EDGE('',*,*,#342,.F.);
#464=ORIENTED_EDGE('',*,*,#339,.F.);
#465=ORIENTED_EDGE('',*,*,#351,.T.);
#466=ORIENTED_EDGE('',*,*,#352,.F.);
#467=ORIENTED_EDGE('',*,*,#353,.F.);
#468=ORIENTED_EDGE('',*,*,#354,.F.);
#469=ORIENTED_EDGE('',*,*,#355,.F.);
#470=ORIENTED_EDGE('',*,*,#356,.F.);
#471=ORIENTED_EDGE('',*,*,#357,.F.);
#472=ORIENTED_EDGE('',*,*,#358,.F.);
#473=ORIENTED_EDGE('',*,*,#359,.T.);
#474=ORIENTED_EDGE('',*,*,#360,.T.);
#475=ORIENTED_EDGE('',*,*,#361,.F.);
#476=ORIENTED_EDGE('',*,*,#360,.F.);
#477=ORIENTED_EDGE('',*,*,#362,.F.);
#478=ORIENTED_EDGE('',*,*,#363,.T.);
#479=ORIENTED_EDGE('',*,*,#364,.T.);
#480=ORIENTED_EDGE('',*,*,#363,.F.);
#481=ORIENTED_EDGE('',*,*,#364,.F.);
#482=ORIENTED_EDGE('',*,*,#359,.F.);
#483=ORIENTED_EDGE('',*,*,#362,.T.);
#484=ORIENTED_EDGE('',*,*,#352,.T.);
#485=ORIENTED_EDGE('',*,*,#365,.T.);
#486=ORIENTED_EDGE('',*,*,#358,.T.);
#487=ORIENTED_EDGE('',*,*,#366,.T.);
#488=ORIENTED_EDGE('',*,*,#367,.T.);
#489=ORIENTED_EDGE('',*,*,#368,.F.);
#490=ORIENTED_EDGE('',*,*,#357,.T.);
#491=ORIENTED_EDGE('',*,*,#369,.T.);
#492=ORIENTED_EDGE('',*,*,#370,.T.);
#493=ORIENTED_EDGE('',*,*,#366,.F.);
#494=ORIENTED_EDGE('',*,*,#356,.T.);
#495=ORIENTED_EDGE('',*,*,#371,.F.);
#496=ORIENTED_EDGE('',*,*,#354,.T.);
#497=ORIENTED_EDGE('',*,*,#372,.T.);
#498=ORIENTED_EDGE('',*,*,#373,.T.);
#499=ORIENTED_EDGE('',*,*,#369,.F.);
#500=ORIENTED_EDGE('',*,*,#353,.T.);
#501=ORIENTED_EDGE('',*,*,#368,.T.);
#502=ORIENTED_EDGE('',*,*,#374,.T.);
#503=ORIENTED_EDGE('',*,*,#372,.F.);
#504=ORIENTED_EDGE('',*,*,#374,.F.);
#505=ORIENTED_EDGE('',*,*,#367,.F.);
#506=ORIENTED_EDGE('',*,*,#370,.F.);
#507=ORIENTED_EDGE('',*,*,#373,.F.);
#508=ORIENTED_EDGE('',*,*,#361,.T.);
#509=ORIENTED_EDGE('',*,*,#375,.F.);
#510=ORIENTED_EDGE('',*,*,#376,.T.);
#511=ORIENTED_EDGE('',*,*,#377,.T.);
#512=ORIENTED_EDGE('',*,*,#376,.F.);
#513=ORIENTED_EDGE('',*,*,#378,.F.);
#514=ORIENTED_EDGE('',*,*,#379,.T.);
#515=ORIENTED_EDGE('',*,*,#380,.T.);
#516=ORIENTED_EDGE('',*,*,#379,.F.);
#517=ORIENTED_EDGE('',*,*,#381,.F.);
#518=ORIENTED_EDGE('',*,*,#382,.T.);
#519=ORIENTED_EDGE('',*,*,#383,.F.);
#520=ORIENTED_EDGE('',*,*,#384,.F.);
#521=ORIENTED_EDGE('',*,*,#385,.T.);
#522=ORIENTED_EDGE('',*,*,#384,.T.);
#523=ORIENTED_EDGE('',*,*,#386,.F.);
#524=ORIENTED_EDGE('',*,*,#365,.F.);
#525=ORIENTED_EDGE('',*,*,#387,.T.);
#526=ORIENTED_EDGE('',*,*,#371,.T.);
#527=ORIENTED_EDGE('',*,*,#388,.F.);
#528=ORIENTED_EDGE('',*,*,#382,.F.);
#529=ORIENTED_EDGE('',*,*,#388,.T.);
#530=ORIENTED_EDGE('',*,*,#355,.T.);
#531=ORIENTED_EDGE('',*,*,#386,.T.);
#532=ORIENTED_EDGE('',*,*,#383,.T.);
#533=ORIENTED_EDGE('',*,*,#378,.T.);
#534=ORIENTED_EDGE('',*,*,#375,.T.);
#535=ORIENTED_EDGE('',*,*,#387,.F.);
#536=ORIENTED_EDGE('',*,*,#381,.T.);
#537=ORIENTED_EDGE('',*,*,#385,.F.);
#538=ORIENTED_EDGE('',*,*,#351,.F.);
#539=ORIENTED_EDGE('',*,*,#380,.F.);
#540=ORIENTED_EDGE('',*,*,#377,.F.);
#541=CYLINDRICAL_SURFACE('',#604,1.49999999999999);
#542=CYLINDRICAL_SURFACE('',#608,2.5);
#543=CYLINDRICAL_SURFACE('',#619,1.99999999999999);
#544=CYLINDRICAL_SURFACE('',#622,1.99999999999999);
#545=CYLINDRICAL_SURFACE('',#625,3.99999999999999);
#546=CYLINDRICAL_SURFACE('',#629,3.99999999999999);
#547=CYLINDRICAL_SURFACE('',#636,2.5);
#548=CYLINDRICAL_SURFACE('',#639,1.50000000000002);
#549=CYLINDRICAL_SURFACE('',#649,1.99999999999999);
#550=CYLINDRICAL_SURFACE('',#652,1.99999999999999);
#551=CYLINDRICAL_SURFACE('',#656,3.99999999999999);
#552=CYLINDRICAL_SURFACE('',#659,3.99999999999999);
#553=ADVANCED_FACE('',(#53),#541,.F.);
#554=ADVANCED_FACE('',(#54),#29,.T.);
#555=ADVANCED_FACE('',(#55),#542,.T.);
#556=ADVANCED_FACE('',(#56,#17),#30,.T.);
#557=ADVANCED_FACE('',(#57),#31,.F.);
#558=ADVANCED_FACE('',(#58),#32,.F.);
#559=ADVANCED_FACE('',(#59),#33,.T.);
#560=ADVANCED_FACE('',(#60),#34,.T.);
#561=ADVANCED_FACE('',(#61),#35,.T.);
#562=ADVANCED_FACE('',(#62),#36,.T.);
#563=ADVANCED_FACE('',(#63,#18),#37,.T.);
#564=ADVANCED_FACE('',(#64),#543,.F.);
#565=ADVANCED_FACE('',(#65),#544,.F.);
#566=ADVANCED_FACE('',(#66),#545,.T.);
#567=ADVANCED_FACE('',(#67),#38,.T.);
#568=ADVANCED_FACE('',(#68),#546,.T.);
#569=ADVANCED_FACE('',(#69,#19,#20),#39,.T.);
#570=ADVANCED_FACE('',(#70,#21,#22),#40,.F.);
#571=ADVANCED_FACE('',(#71),#41,.T.);
#572=ADVANCED_FACE('',(#72),#42,.T.);
#573=ADVANCED_FACE('',(#73),#547,.T.);
#574=ADVANCED_FACE('',(#74),#548,.F.);
#575=ADVANCED_FACE('',(#75),#43,.T.);
#576=ADVANCED_FACE('',(#76,#23),#44,.F.);
#577=ADVANCED_FACE('',(#77),#45,.F.);
#578=ADVANCED_FACE('',(#78),#46,.F.);
#579=ADVANCED_FACE('',(#79),#47,.F.);
#580=ADVANCED_FACE('',(#80),#48,.F.);
#581=ADVANCED_FACE('',(#81,#24),#49,.F.);
#582=ADVANCED_FACE('',(#82),#549,.F.);
#583=ADVANCED_FACE('',(#83),#550,.F.);
#584=ADVANCED_FACE('',(#84),#50,.T.);
#585=ADVANCED_FACE('',(#85),#551,.T.);
#586=ADVANCED_FACE('',(#86),#552,.T.);
#587=ADVANCED_FACE('',(#87,#25,#26),#51,.T.);
#588=ADVANCED_FACE('',(#88,#27,#28),#52,.F.);
#589=CLOSED_SHELL('',(#553,#554,#555,#556,#557,#558,#559,#560,#561,#562,
#563,#564,#565,#566,#567,#568,#569,#570));
#590=CLOSED_SHELL('',(#571,#572,#573,#574,#575,#576,#577,#578,#579,#580,
#581,#582,#583,#584,#585,#586,#587,#588));
#591=DERIVED_UNIT_ELEMENT(#593,1.);
#592=DERIVED_UNIT_ELEMENT(#1004,-3.);
#593=(
MASS_UNIT()
NAMED_UNIT(*)
SI_UNIT(.KILO.,.GRAM.)
);
#594=DERIVED_UNIT((#591,#592));
#595=MEASURE_REPRESENTATION_ITEM('density measure',
POSITIVE_RATIO_MEASURE(7850.),#594);
#596=PROPERTY_DEFINITION_REPRESENTATION(#601,#598);
#597=PROPERTY_DEFINITION_REPRESENTATION(#602,#599);
#598=REPRESENTATION('material name',(#600),#1001);
#599=REPRESENTATION('density',(#595),#1001);
#600=DESCRIPTIVE_REPRESENTATION_ITEM('\X\C7elik','\X\C7elik');
#601=PROPERTY_DEFINITION('material property','material name',#1011);
#602=PROPERTY_DEFINITION('material property','density of part',#1011);
#603=AXIS2_PLACEMENT_3D('',#838,#664,#665);
#604=AXIS2_PLACEMENT_3D('',#839,#666,#667);
#605=AXIS2_PLACEMENT_3D('',#841,#668,#669);
#606=AXIS2_PLACEMENT_3D('',#844,#671,#672);
#607=AXIS2_PLACEMENT_3D('',#845,#673,#674);
#608=AXIS2_PLACEMENT_3D('',#846,#675,#676);
#609=AXIS2_PLACEMENT_3D('',#848,#677,#678);
#610=AXIS2_PLACEMENT_3D('',#851,#680,#681);
#611=AXIS2_PLACEMENT_3D('',#852,#682,#683);
#612=AXIS2_PLACEMENT_3D('',#853,#684,#685);
#613=AXIS2_PLACEMENT_3D('',#862,#690,#691);
#614=AXIS2_PLACEMENT_3D('',#871,#696,#697);
#615=AXIS2_PLACEMENT_3D('',#878,#702,#703);
#616=AXIS2_PLACEMENT_3D('',#882,#706,#707);
#617=AXIS2_PLACEMENT_3D('',#887,#711,#712);
#618=AXIS2_PLACEMENT_3D('',#889,#714,#715);
#619=AXIS2_PLACEMENT_3D('',#890,#716,#717);
#620=AXIS2_PLACEMENT_3D('',#892,#718,#719);
#621=AXIS2_PLACEMENT_3D('',#895,#721,#722);
#622=AXIS2_PLACEMENT_3D('',#896,#723,#724);
#623=AXIS2_PLACEMENT_3D('',#898,#725,#726);
#624=AXIS2_PLACEMENT_3D('',#901,#728,#729);
#625=AXIS2_PLACEMENT_3D('',#902,#730,#731);
#626=AXIS2_PLACEMENT_3D('',#904,#732,#733);
#627=AXIS2_PLACEMENT_3D('',#906,#734,#735);
#628=AXIS2_PLACEMENT_3D('',#908,#737,#738);
#629=AXIS2_PLACEMENT_3D('',#914,#742,#743);
#630=AXIS2_PLACEMENT_3D('',#915,#744,#745);
#631=AXIS2_PLACEMENT_3D('',#916,#746,#747);
#632=AXIS2_PLACEMENT_3D('',#917,#748,#749);
#633=AXIS2_PLACEMENT_3D('',#918,#750,#751);
#634=AXIS2_PLACEMENT_3D('',#919,#752,#753);
#635=AXIS2_PLACEMENT_3D('',#928,#758,#759);
#636=AXIS2_PLACEMENT_3D('',#937,#764,#765);
#637=AXIS2_PLACEMENT_3D('',#939,#766,#767);
#638=AXIS2_PLACEMENT_3D('',#942,#769,#770);
#639=AXIS2_PLACEMENT_3D('',#943,#771,#772);
#640=AXIS2_PLACEMENT_3D('',#945,#773,#774);
#641=AXIS2_PLACEMENT_3D('',#948,#776,#777);
#642=AXIS2_PLACEMENT_3D('',#949,#778,#779);
#643=AXIS2_PLACEMENT_3D('',#950,#780,#781);
#644=AXIS2_PLACEMENT_3D('',#951,#782,#783);
#645=AXIS2_PLACEMENT_3D('',#958,#788,#789);
#646=AXIS2_PLACEMENT_3D('',#962,#792,#793);
#647=AXIS2_PLACEMENT_3D('',#967,#797,#798);
#648=AXIS2_PLACEMENT_3D('',#969,#800,#801);
#649=AXIS2_PLACEMENT_3D('',#970,#802,#803);
#650=AXIS2_PLACEMENT_3D('',#972,#804,#805);
#651=AXIS2_PLACEMENT_3D('',#975,#807,#808);
#652=AXIS2_PLACEMENT_3D('',#976,#809,#810);
#653=AXIS2_PLACEMENT_3D('',#978,#811,#812);
#654=AXIS2_PLACEMENT_3D('',#981,#814,#815);
#655=AXIS2_PLACEMENT_3D('',#982,#816,#817);
#656=AXIS2_PLACEMENT_3D('',#991,#822,#823);
#657=AXIS2_PLACEMENT_3D('',#992,#824,#825);
#658=AXIS2_PLACEMENT_3D('',#993,#826,#827);
#659=AXIS2_PLACEMENT_3D('',#994,#828,#829);
#660=AXIS2_PLACEMENT_3D('',#995,#830,#831);
#661=AXIS2_PLACEMENT_3D('',#996,#832,#833);
#662=AXIS2_PLACEMENT_3D('',#997,#834,#835);
#663=AXIS2_PLACEMENT_3D('',#998,#836,#837);
#664=DIRECTION('axis',(0.,0.,1.));
#665=DIRECTION('refdir',(1.,0.,0.));
#666=DIRECTION('center_axis',(0.,0.,-1.));
#667=DIRECTION('ref_axis',(1.,0.,0.));
#668=DIRECTION('center_axis',(0.,0.,-1.));
#669=DIRECTION('ref_axis',(1.,0.,0.));
#670=DIRECTION('',(0.,0.,-1.));
#671=DIRECTION('center_axis',(0.,0.,-1.));
#672=DIRECTION('ref_axis',(1.,0.,0.));
#673=DIRECTION('center_axis',(0.,0.,1.));
#674=DIRECTION('ref_axis',(1.,0.,0.));
#675=DIRECTION('center_axis',(0.,0.,1.));
#676=DIRECTION('ref_axis',(1.,0.,0.));
#677=DIRECTION('center_axis',(0.,0.,1.));
#678=DIRECTION('ref_axis',(1.,0.,0.));
#679=DIRECTION('',(0.,0.,-1.));
#680=DIRECTION('center_axis',(0.,0.,-1.));
#681=DIRECTION('ref_axis',(1.,0.,0.));
#682=DIRECTION('center_axis',(0.,0.,1.));
#683=DIRECTION('ref_axis',(1.,0.,0.));
#684=DIRECTION('center_axis',(0.,0.,1.));
#685=DIRECTION('ref_axis',(1.,0.,0.));
#686=DIRECTION('',(1.,0.,-1.66754105136974E-15));
#687=DIRECTION('',(0.,1.,0.));
#688=DIRECTION('',(1.,1.66754105136974E-16,0.));
#689=DIRECTION('',(0.,-1.,0.));
#690=DIRECTION('center_axis',(0.,0.,1.));
#691=DIRECTION('ref_axis',(1.,0.,0.));
#692=DIRECTION('',(-1.,0.,1.66754105136974E-15));
#693=DIRECTION('',(0.,-1.,0.));
#694=DIRECTION('',(-1.,0.,0.));
#695=DIRECTION('',(0.,1.,0.));
#696=DIRECTION('center_axis',(-1.,0.,0.));
#697=DIRECTION('ref_axis',(0.,-1.,0.));
#698=DIRECTION('',(0.,0.,1.));
#699=DIRECTION('',(0.,-1.,0.));
#700=DIRECTION('',(0.,0.,1.));
#701=DIRECTION('',(0.,1.,0.));
#702=DIRECTION('center_axis',(-1.66754105136974E-16,1.,0.));
#703=DIRECTION('ref_axis',(-1.,-1.66754105136974E-16,0.));
#704=DIRECTION('',(-1.,-1.66754105136974E-16,0.));
#705=DIRECTION('',(0.,0.,1.));
#706=DIRECTION('center_axis',(1.,0.,0.));
#707=DIRECTION('ref_axis',(0.,1.,0.));
#708=DIRECTION('',(0.,1.,0.));
#709=DIRECTION('',(0.,0.,1.));
#710=DIRECTION('',(0.,1.,0.));
#711=DIRECTION('center_axis',(0.,-1.,0.));
#712=DIRECTION('ref_axis',(1.,0.,0.));
#713=DIRECTION('',(1.,0.,0.));
#714=DIRECTION('center_axis',(0.,0.,1.));
#715=DIRECTION('ref_axis',(1.,0.,0.));
#716=DIRECTION('center_axis',(0.,1.,0.));
#717=DIRECTION('ref_axis',(0.,0.,1.));
#718=DIRECTION('center_axis',(0.,-1.,0.));
#719=DIRECTION('ref_axis',(0.,0.,1.));
#720=DIRECTION('',(0.,-1.,0.));
#721=DIRECTION('center_axis',(0.,-1.,0.));
#722=DIRECTION('ref_axis',(0.,0.,1.));
#723=DIRECTION('center_axis',(0.,1.,0.));
#724=DIRECTION('ref_axis',(5.32907051820077E-14,0.,-1.));
#725=DIRECTION('center_axis',(0.,-1.,0.));
#726=DIRECTION('ref_axis',(5.32907051820077E-14,0.,-1.));
#727=DIRECTION('',(0.,-1.,0.));
#728=DIRECTION('center_axis',(0.,-1.,0.));
#729=DIRECTION('ref_axis',(5.32907051820077E-14,0.,-1.));
#730=DIRECTION('center_axis',(0.,1.,0.));
#731=DIRECTION('ref_axis',(2.66453525910038E-14,0.,-1.));
#732=DIRECTION('center_axis',(0.,1.,0.));
#733=DIRECTION('ref_axis',(2.66453525910038E-14,0.,-1.));
#734=DIRECTION('center_axis',(0.,1.,0.));
#735=DIRECTION('ref_axis',(2.66453525910038E-14,0.,-1.));
#736=DIRECTION('',(0.,1.,0.));
#737=DIRECTION('center_axis',(-1.66754105136978E-15,0.,-1.));
#738=DIRECTION('ref_axis',(-1.,0.,1.66754105136978E-15));
#739=DIRECTION('',(-1.,0.,1.66754105136978E-15));
#740=DIRECTION('',(-1.,0.,1.66754105136978E-15));
#741=DIRECTION('',(0.,1.,0.));
#742=DIRECTION('center_axis',(0.,1.,0.));
#743=DIRECTION('ref_axis',(0.,0.,1.));
#744=DIRECTION('center_axis',(0.,1.,0.));
#745=DIRECTION('ref_axis',(0.,0.,1.));
#746=DIRECTION('center_axis',(0.,1.,0.));
#747=DIRECTION('ref_axis',(0.,0.,1.));
#748=DIRECTION('center_axis',(0.,1.,0.));
#749=DIRECTION('ref_axis',(-1.,0.,0.));
#750=DIRECTION('center_axis',(0.,1.,0.));
#751=DIRECTION('ref_axis',(-1.,0.,0.));
#752=DIRECTION('center_axis',(0.,0.,1.));
#753=DIRECTION('ref_axis',(1.,0.,0.));
#754=DIRECTION('',(-1.,0.,-1.66754105136974E-15));
#755=DIRECTION('',(0.,1.,0.));
#756=DIRECTION('',(-1.,0.,0.));
#757=DIRECTION('',(0.,-1.,0.));
#758=DIRECTION('center_axis',(0.,0.,1.));
#759=DIRECTION('ref_axis',(1.,0.,0.));
#760=DIRECTION('',(-1.,0.,-1.66754105136974E-15));
#761=DIRECTION('',(0.,-1.,0.));
#762=DIRECTION('',(1.,1.66754105136974E-16,0.));
#763=DIRECTION('',(0.,1.,0.));
#764=DIRECTION('center_axis',(0.,0.,1.));
#765=DIRECTION('ref_axis',(1.,0.,0.));
#766=DIRECTION('center_axis',(0.,0.,1.));
#767=DIRECTION('ref_axis',(1.,0.,0.));
#768=DIRECTION('',(0.,0.,1.));
#769=DIRECTION('center_axis',(0.,0.,1.));
#770=DIRECTION('ref_axis',(1.,0.,0.));
#771=DIRECTION('center_axis',(0.,0.,1.));
#772=DIRECTION('ref_axis',(-1.,0.,0.));
#773=DIRECTION('center_axis',(0.,0.,1.));
#774=DIRECTION('ref_axis',(-1.,0.,0.));
#775=DIRECTION('',(0.,0.,1.));
#776=DIRECTION('center_axis',(0.,0.,1.));
#777=DIRECTION('ref_axis',(-1.,0.,0.));
#778=DIRECTION('center_axis',(0.,0.,-1.));
#779=DIRECTION('ref_axis',(-1.,0.,0.));
#780=DIRECTION('center_axis',(0.,0.,1.));
#781=DIRECTION('ref_axis',(1.,0.,0.));
#782=DIRECTION('center_axis',(1.,0.,0.));
#783=DIRECTION('ref_axis',(0.,-1.,0.));
#784=DIRECTION('',(0.,1.,0.));
#785=DIRECTION('',(0.,0.,-1.));
#786=DIRECTION('',(0.,-1.,0.));
#787=DIRECTION('',(0.,0.,-1.));
#788=DIRECTION('center_axis',(1.66754105136974E-16,-1.,0.));
#789=DIRECTION('ref_axis',(-1.,-1.66754105136974E-16,0.));
#790=DIRECTION('',(0.,0.,-1.));
#791=DIRECTION('',(-1.,-1.66754105136974E-16,0.));
#792=DIRECTION('center_axis',(-1.,0.,0.));
#793=DIRECTION('ref_axis',(0.,1.,0.));
#794=DIRECTION('',(0.,1.,0.));
#795=DIRECTION('',(0.,0.,-1.));
#796=DIRECTION('',(0.,1.,0.));
#797=DIRECTION('center_axis',(0.,1.,0.));
#798=DIRECTION('ref_axis',(1.,0.,0.));
#799=DIRECTION('',(1.,0.,0.));
#800=DIRECTION('center_axis',(0.,0.,1.));
#801=DIRECTION('ref_axis',(1.,0.,0.));
#802=DIRECTION('center_axis',(0.,1.,0.));
#803=DIRECTION('ref_axis',(-1.,0.,0.));
#804=DIRECTION('center_axis',(0.,-1.,0.));
#805=DIRECTION('ref_axis',(-1.,0.,0.));
#806=DIRECTION('',(0.,-1.,0.));
#807=DIRECTION('center_axis',(0.,-1.,0.));
#808=DIRECTION('ref_axis',(-1.,0.,0.));
#809=DIRECTION('center_axis',(0.,1.,0.));
#810=DIRECTION('ref_axis',(-1.,0.,0.));
#811=DIRECTION('center_axis',(0.,-1.,0.));
#812=DIRECTION('ref_axis',(-1.,0.,0.));
#813=DIRECTION('',(0.,-1.,0.));
#814=DIRECTION('center_axis',(0.,-1.,0.));
#815=DIRECTION('ref_axis',(-1.,0.,0.));
#816=DIRECTION('center_axis',(-1.66754105136978E-15,0.,1.));
#817=DIRECTION('ref_axis',(1.,0.,1.66754105136978E-15));
#818=DIRECTION('',(-1.,0.,-1.66754105136978E-15));
#819=DIRECTION('',(0.,1.,0.));
#820=DIRECTION('',(1.,0.,1.66754105136978E-15));
#821=DIRECTION('',(0.,1.,0.));
#822=DIRECTION('center_axis',(0.,1.,0.));
#823=DIRECTION('ref_axis',(-5.32907051820076E-14,0.,-1.));
#824=DIRECTION('center_axis',(0.,1.,0.));
#825=DIRECTION('ref_axis',(-5.32907051820076E-14,0.,-1.));
#826=DIRECTION('center_axis',(0.,1.,0.));
#827=DIRECTION('ref_axis',(-5.32907051820076E-14,0.,-1.));
#828=DIRECTION('center_axis',(0.,1.,0.));
#829=DIRECTION('ref_axis',(0.,0.,1.));
#830=DIRECTION('center_axis',(0.,1.,0.));
#831=DIRECTION('ref_axis',(0.,0.,1.));
#832=DIRECTION('center_axis',(0.,1.,0.));
#833=DIRECTION('ref_axis',(0.,0.,1.));
#834=DIRECTION('center_axis',(0.,1.,0.));
#835=DIRECTION('ref_axis',(-1.,0.,0.));
#836=DIRECTION('center_axis',(0.,1.,0.));
#837=DIRECTION('ref_axis',(-1.,0.,0.));
#838=CARTESIAN_POINT('',(0.,0.,0.));
#839=CARTESIAN_POINT('Origin',(-194.342157758201,8.,56.));
#840=CARTESIAN_POINT('',(-195.842157758201,8.,56.));
#841=CARTESIAN_POINT('Origin',(-194.342157758201,8.,56.));
#842=CARTESIAN_POINT('',(-195.842157758201,8.,51.));
#843=CARTESIAN_POINT('',(-195.842157758201,8.,56.));
#844=CARTESIAN_POINT('Origin',(-194.342157758201,8.,51.));
#845=CARTESIAN_POINT('Origin',(-194.342157758201,8.,51.));
#846=CARTESIAN_POINT('Origin',(-194.342157758201,8.,39.));
#847=CARTESIAN_POINT('',(-196.842157758201,8.,56.));
#848=CARTESIAN_POINT('Origin',(-194.342157758201,8.,56.));
#849=CARTESIAN_POINT('',(-196.842157758201,8.,41.));
#850=CARTESIAN_POINT('',(-196.842157758201,8.,39.));
#851=CARTESIAN_POINT('Origin',(-194.342157758201,8.,41.));
#852=CARTESIAN_POINT('Origin',(-194.342157758201,8.,56.));
#853=CARTESIAN_POINT('Origin',(-194.342157758201,7.99999999999999,39.));
#854=CARTESIAN_POINT('',(-201.000002995134,9.,39.));
#855=CARTESIAN_POINT('',(-187.684312521269,9.,39.));
#856=CARTESIAN_POINT('',(-187.684312521269,9.,39.));
#857=CARTESIAN_POINT('',(-201.000002995134,13.,39.));
#858=CARTESIAN_POINT('',(-201.000002995134,2.99999999999999,39.));
#859=CARTESIAN_POINT('',(-187.684312521269,13.,39.));
#860=CARTESIAN_POINT('',(-201.000002995134,13.,39.));
#861=CARTESIAN_POINT('',(-187.684312521269,13.,39.));
#862=CARTESIAN_POINT('Origin',(-194.342157758201,7.99999999999999,39.));
#863=CARTESIAN_POINT('',(-187.684312521269,7.,39.));
#864=CARTESIAN_POINT('',(-201.000002995134,7.,39.));
#865=CARTESIAN_POINT('',(-187.684312521269,7.,39.));
#866=CARTESIAN_POINT('',(-187.684312521269,2.99999999999999,39.));
#867=CARTESIAN_POINT('',(-187.684312521269,13.,39.));
#868=CARTESIAN_POINT('',(-201.000002995134,2.99999999999999,39.));
#869=CARTESIAN_POINT('',(-187.684312521269,2.99999999999999,39.));
#870=CARTESIAN_POINT('',(-201.000002995134,2.99999999999999,39.));
#871=CARTESIAN_POINT('Origin',(-201.000002995134,13.,39.));
#872=CARTESIAN_POINT('',(-201.000002995134,2.99999999999999,41.));
#873=CARTESIAN_POINT('',(-201.000002995134,2.99999999999999,39.));
#874=CARTESIAN_POINT('',(-201.000002995134,13.,41.));
#875=CARTESIAN_POINT('',(-201.000002995134,2.99999999999999,41.));
#876=CARTESIAN_POINT('',(-201.000002995134,13.,39.));
#877=CARTESIAN_POINT('',(-201.000002995134,7.,39.));
#878=CARTESIAN_POINT('Origin',(-187.684312521269,13.,39.));
#879=CARTESIAN_POINT('',(-187.684312521269,13.,41.));
#880=CARTESIAN_POINT('',(-201.000002995134,13.,41.));
#881=CARTESIAN_POINT('',(-187.684312521269,13.,39.));
#882=CARTESIAN_POINT('Origin',(-187.684312521269,2.99999999999998,39.));
#883=CARTESIAN_POINT('',(-187.684312521269,2.99999999999999,41.));
#884=CARTESIAN_POINT('',(-187.684312521269,13.,41.));
#885=CARTESIAN_POINT('',(-187.684312521269,2.99999999999999,39.));
#886=CARTESIAN_POINT('',(-187.684312521269,7.,39.));
#887=CARTESIAN_POINT('Origin',(-201.000002995134,2.99999999999999,39.));
#888=CARTESIAN_POINT('',(-187.684312521269,2.99999999999999,41.));
#889=CARTESIAN_POINT('Origin',(-194.342157758201,7.99999999999998,41.));
#890=CARTESIAN_POINT('Origin',(-187.684312521269,7.,35.));
#891=CARTESIAN_POINT('',(-187.684312521269,9.,33.));
#892=CARTESIAN_POINT('Origin',(-187.684312521269,9.,35.));
#893=CARTESIAN_POINT('',(-187.684312521269,7.,33.));
#894=CARTESIAN_POINT('',(-187.684312521269,7.,33.));
#895=CARTESIAN_POINT('Origin',(-187.684312521269,7.,35.));
#896=CARTESIAN_POINT('Origin',(-201.000002995134,7.,35.));
#897=CARTESIAN_POINT('',(-201.000002995134,9.,37.));
#898=CARTESIAN_POINT('Origin',(-201.000002995134,9.,35.));
#899=CARTESIAN_POINT('',(-201.000002995134,7.,37.));
#900=CARTESIAN_POINT('',(-201.000002995134,7.,37.));
#901=CARTESIAN_POINT('Origin',(-201.000002995134,7.,35.));
#902=CARTESIAN_POINT('Origin',(-201.000002995134,7.,35.));
#903=CARTESIAN_POINT('',(-201.000002995133,7.,31.));
#904=CARTESIAN_POINT('Origin',(-201.000002995134,7.,35.));
#905=CARTESIAN_POINT('',(-201.000002995133,9.,31.));
#906=CARTESIAN_POINT('Origin',(-201.000002995134,9.,35.));
#907=CARTESIAN_POINT('',(-201.000002995133,7.,31.));
#908=CARTESIAN_POINT('Origin',(-187.684312521269,7.,31.));
#909=CARTESIAN_POINT('',(-187.684312521269,7.,31.));
#910=CARTESIAN_POINT('',(-187.684312521269,7.,31.));
#911=CARTESIAN_POINT('',(-187.684312521269,9.,31.));
#912=CARTESIAN_POINT('',(-187.684312521269,9.,31.));
#913=CARTESIAN_POINT('',(-187.684312521269,7.,31.));
#914=CARTESIAN_POINT('Origin',(-187.684312521269,7.,35.));
#915=CARTESIAN_POINT('Origin',(-187.684312521269,7.,35.));
#916=CARTESIAN_POINT('Origin',(-187.684312521269,9.,35.));
#917=CARTESIAN_POINT('Origin',(-194.342157758201,9.,35.));
#918=CARTESIAN_POINT('Origin',(-194.342157758201,7.,35.));
#919=CARTESIAN_POINT('Origin',(-194.342157758201,7.99999999999999,-39.));
#920=CARTESIAN_POINT('',(-187.684312521269,7.,-39.));
#921=CARTESIAN_POINT('',(-201.000002995134,7.,-39.));
#922=CARTESIAN_POINT('',(-187.684312521269,7.,-39.));
#923=CARTESIAN_POINT('',(-201.000002995134,2.99999999999999,-39.));
#924=CARTESIAN_POINT('',(-201.000002995134,2.99999999999999,-39.));
#925=CARTESIAN_POINT('',(-187.684312521269,2.99999999999999,-39.));
#926=CARTESIAN_POINT('',(-187.684312521269,2.99999999999999,-39.));
#927=CARTESIAN_POINT('',(-187.684312521269,13.,-39.));
#928=CARTESIAN_POINT('Origin',(-194.342157758201,7.99999999999999,-39.));
#929=CARTESIAN_POINT('',(-187.684312521269,9.,-39.));
#930=CARTESIAN_POINT('',(-201.000002995134,9.,-39.));
#931=CARTESIAN_POINT('',(-187.684312521269,9.,-39.));
#932=CARTESIAN_POINT('',(-187.684312521269,13.,-39.));
#933=CARTESIAN_POINT('',(-187.684312521269,13.,-39.));
#934=CARTESIAN_POINT('',(-201.000002995134,13.,-39.));
#935=CARTESIAN_POINT('',(-201.000002995134,13.,-39.));
#936=CARTESIAN_POINT('',(-201.000002995134,2.99999999999999,-39.));
#937=CARTESIAN_POINT('Origin',(-194.342157758201,8.,-39.));
#938=CARTESIAN_POINT('',(-196.842157758201,8.,-56.));
#939=CARTESIAN_POINT('Origin',(-194.342157758201,8.,-56.));
#940=CARTESIAN_POINT('',(-196.842157758201,8.,-41.));
#941=CARTESIAN_POINT('',(-196.842157758201,8.,-39.));
#942=CARTESIAN_POINT('Origin',(-194.342157758201,8.,-41.));
#943=CARTESIAN_POINT('Origin',(-194.342157758201,8.,-56.));
#944=CARTESIAN_POINT('',(-192.842157758201,8.,-56.));
#945=CARTESIAN_POINT('Origin',(-194.342157758201,8.,-56.));
#946=CARTESIAN_POINT('',(-192.842157758201,8.,-51.));
#947=CARTESIAN_POINT('',(-192.842157758201,8.,-56.));
#948=CARTESIAN_POINT('Origin',(-194.342157758201,8.,-51.));
#949=CARTESIAN_POINT('Origin',(-194.342157758201,8.,-51.));
#950=CARTESIAN_POINT('Origin',(-194.342157758201,8.,-56.));
#951=CARTESIAN_POINT('Origin',(-201.000002995134,13.,-39.));
#952=CARTESIAN_POINT('',(-201.000002995134,7.,-39.));
#953=CARTESIAN_POINT('',(-201.000002995134,13.,-41.));
#954=CARTESIAN_POINT('',(-201.000002995134,13.,-39.));
#955=CARTESIAN_POINT('',(-201.000002995134,2.99999999999999,-41.));
#956=CARTESIAN_POINT('',(-201.000002995134,2.99999999999999,-41.));
#957=CARTESIAN_POINT('',(-201.000002995134,2.99999999999999,-39.));
#958=CARTESIAN_POINT('Origin',(-187.684312521269,13.,-39.));
#959=CARTESIAN_POINT('',(-187.684312521269,13.,-41.));
#960=CARTESIAN_POINT('',(-187.684312521269,13.,-39.));
#961=CARTESIAN_POINT('',(-201.000002995134,13.,-41.));
#962=CARTESIAN_POINT('Origin',(-187.684312521269,2.99999999999998,-39.));
#963=CARTESIAN_POINT('',(-187.684312521269,7.,-39.));
#964=CARTESIAN_POINT('',(-187.684312521269,2.99999999999999,-41.));
#965=CARTESIAN_POINT('',(-187.684312521269,2.99999999999999,-39.));
#966=CARTESIAN_POINT('',(-187.684312521269,13.,-41.));
#967=CARTESIAN_POINT('Origin',(-201.000002995134,2.99999999999999,-39.));
#968=CARTESIAN_POINT('',(-187.684312521269,2.99999999999999,-41.));
#969=CARTESIAN_POINT('Origin',(-194.342157758201,7.99999999999998,-41.));
#970=CARTESIAN_POINT('Origin',(-187.684312521269,7.,-35.));
#971=CARTESIAN_POINT('',(-185.684312521269,9.,-35.));
#972=CARTESIAN_POINT('Origin',(-187.684312521269,9.,-35.));
#973=CARTESIAN_POINT('',(-185.684312521269,7.,-35.));
#974=CARTESIAN_POINT('',(-185.684312521269,7.,-35.));
#975=CARTESIAN_POINT('Origin',(-187.684312521269,7.,-35.));
#976=CARTESIAN_POINT('Origin',(-201.000002995134,7.,-35.));
#977=CARTESIAN_POINT('',(-199.000002995134,9.,-35.));
#978=CARTESIAN_POINT('Origin',(-201.000002995134,9.,-35.));
#979=CARTESIAN_POINT('',(-199.000002995134,7.,-35.));
#980=CARTESIAN_POINT('',(-199.000002995134,7.,-35.));
#981=CARTESIAN_POINT('Origin',(-201.000002995134,7.,-35.));
#982=CARTESIAN_POINT('Origin',(-201.000002995133,7.,-31.));
#983=CARTESIAN_POINT('',(-187.684312521269,7.,-31.));
#984=CARTESIAN_POINT('',(-201.000002995133,7.,-31.));
#985=CARTESIAN_POINT('',(-187.684312521269,7.,-31.));
#986=CARTESIAN_POINT('',(-187.684312521269,9.,-31.));
#987=CARTESIAN_POINT('',(-187.684312521269,7.,-31.));
#988=CARTESIAN_POINT('',(-201.000002995133,9.,-31.));
#989=CARTESIAN_POINT('',(-187.684312521269,9.,-31.));
#990=CARTESIAN_POINT('',(-201.000002995133,7.,-31.));
#991=CARTESIAN_POINT('Origin',(-201.000002995134,7.,-35.));
#992=CARTESIAN_POINT('Origin',(-201.000002995134,7.,-35.));
#993=CARTESIAN_POINT('Origin',(-201.000002995134,9.,-35.));
#994=CARTESIAN_POINT('Origin',(-187.684312521269,7.,-35.));
#995=CARTESIAN_POINT('Origin',(-187.684312521269,7.,-35.));
#996=CARTESIAN_POINT('Origin',(-187.684312521269,9.,-35.));
#997=CARTESIAN_POINT('Origin',(-194.342157758201,9.,-35.));
#998=CARTESIAN_POINT('Origin',(-194.342157758201,7.,-35.));
#999=UNCERTAINTY_MEASURE_WITH_UNIT(LENGTH_MEASURE(0.01),#1003,
'DISTANCE_ACCURACY_VALUE',
'Maximum model space distance between geometric entities at asserted c
onnectivities');
#1000=UNCERTAINTY_MEASURE_WITH_UNIT(LENGTH_MEASURE(0.01),#1003,
'DISTANCE_ACCURACY_VALUE',
'Maximum model space distance between geometric entities at asserted c
onnectivities');
#1001=(
GEOMETRIC_REPRESENTATION_CONTEXT(3)
GLOBAL_UNCERTAINTY_ASSIGNED_CONTEXT((#999))
GLOBAL_UNIT_ASSIGNED_CONTEXT((#1003,#1005,#1006))
REPRESENTATION_CONTEXT('','3D')
);
#1002=(
GEOMETRIC_REPRESENTATION_CONTEXT(3)
GLOBAL_UNCERTAINTY_ASSIGNED_CONTEXT((#1000))
GLOBAL_UNIT_ASSIGNED_CONTEXT((#1003,#1005,#1006))
REPRESENTATION_CONTEXT('','3D')
);
#1003=(
LENGTH_UNIT()
NAMED_UNIT(*)
SI_UNIT(.MILLI.,.METRE.)
);
#1004=(
LENGTH_UNIT()
NAMED_UNIT(*)
SI_UNIT($,.METRE.)
);
#1005=(
NAMED_UNIT(*)
PLANE_ANGLE_UNIT()
SI_UNIT($,.RADIAN.)
);
#1006=(
NAMED_UNIT(*)
SI_UNIT($,.STERADIAN.)
SOLID_ANGLE_UNIT()
);
#1007=SHAPE_DEFINITION_REPRESENTATION(#1008,#1009);
#1008=PRODUCT_DEFINITION_SHAPE('',$,#1011);
#1009=SHAPE_REPRESENTATION('',(#603),#1001);
#1010=PRODUCT_DEFINITION_CONTEXT('part definition',#1015,'design');
#1011=PRODUCT_DEFINITION('2026-06-13-13-58-02-691','FusionComponent',#1012,
#1010);
#1012=PRODUCT_DEFINITION_FORMATION('',$,#1017);
#1013=PRODUCT_RELATED_PRODUCT_CATEGORY('FusionComponent',
'FusionComponent',(#1017));
#1014=APPLICATION_PROTOCOL_DEFINITION('international standard',
'automotive_design',2009,#1015);
#1015=APPLICATION_CONTEXT(
'Core Data for Automotive Mechanical Design Process');
#1016=PRODUCT_CONTEXT('part definition',#1015,'mechanical');
#1017=PRODUCT('2026-06-13-13-58-02-691','FusionComponent',$,(#1016));
#1018=PRESENTATION_STYLE_ASSIGNMENT((#1021));
#1019=PRESENTATION_STYLE_ASSIGNMENT((#1022));
#1020=PRESENTATION_STYLE_ASSIGNMENT((#1023));
#1021=SURFACE_STYLE_USAGE(.BOTH.,#1024);
#1022=SURFACE_STYLE_USAGE(.BOTH.,#1025);
#1023=SURFACE_STYLE_USAGE(.BOTH.,#1026);
#1024=SURFACE_SIDE_STYLE('',(#1027));
#1025=SURFACE_SIDE_STYLE('',(#1028));
#1026=SURFACE_SIDE_STYLE('',(#1029));
#1027=SURFACE_STYLE_FILL_AREA(#1030);
#1028=SURFACE_STYLE_FILL_AREA(#1031);
#1029=SURFACE_STYLE_FILL_AREA(#1032);
#1030=FILL_AREA_STYLE('\X\C7elik - Saten',(#1033));
#1031=FILL_AREA_STYLE('Plastik - Mat (Siyah)',(#1034));
#1032=FILL_AREA_STYLE('Plastik - Parlak (Siyah)',(#1035));
#1033=FILL_AREA_STYLE_COLOUR('\X\C7elik - Saten',#1036);
#1034=FILL_AREA_STYLE_COLOUR('Plastik - Mat (Siyah)',#1037);
#1035=FILL_AREA_STYLE_COLOUR('Plastik - Parlak (Siyah)',#1038);
#1036=COLOUR_RGB('\X\C7elik - Saten',0.627450980392157,0.627450980392157,
0.627450980392157);
#1037=COLOUR_RGB('Plastik - Mat (Siyah)',0.0980392156862745,0.0980392156862745,
0.0980392156862745);
#1038=COLOUR_RGB('Plastik - Parlak (Siyah)',0.0980392156862745,0.0980392156862745,
0.0980392156862745);
ENDSEC;
END-ISO-10303-21;
