ISO-10303-21;
HEADER;
/* Generated by software containing ST-Developer
 * from STEP Tools, Inc. (www.steptools.com) 
 */

FILE_DESCRIPTION(
/* description */ (''),
/* implementation_level */ '2;1');

FILE_NAME(
/* name */ 'steering.gear.step',
/* time_stamp */ '2026-06-13T13:58:24+03:00',
/* author */ (''),
/* organization */ (''),
/* preprocessor_version */ 'ST-DEVELOPER v20.1',
/* originating_system */ 'Autodesk Translation Framework v15.8.0.0',
/* authorisation */ '');

FILE_SCHEMA (('AUTOMOTIVE_DESIGN { 1 0 10303 214 3 1 1 }'));
ENDSEC;

DATA;
#10=MECHANICAL_DESIGN_GEOMETRIC_PRESENTATION_REPRESENTATION('',(#13),#1597);
#11=SHAPE_REPRESENTATION_RELATIONSHIP('SRR','None',#1604,#12);
#12=ADVANCED_BREP_SHAPE_REPRESENTATION('',(#14),#1596);
#13=STYLED_ITEM('',(#1613),#14);
#14=MANIFOLD_SOLID_BREP('G\X\F6vde1',#969);
#15=CYLINDRICAL_SURFACE('',#999,3.);
#16=CYLINDRICAL_SURFACE('',#1001,3.);
#17=CYLINDRICAL_SURFACE('',#1006,3.);
#18=CYLINDRICAL_SURFACE('',#1008,3.);
#19=CYLINDRICAL_SURFACE('',#1013,3.);
#20=CYLINDRICAL_SURFACE('',#1015,3.);
#21=CYLINDRICAL_SURFACE('',#1020,3.);
#22=CYLINDRICAL_SURFACE('',#1025,3.);
#23=CYLINDRICAL_SURFACE('',#1030,3.);
#24=CYLINDRICAL_SURFACE('',#1035,3.);
#25=CYLINDRICAL_SURFACE('',#1043,3.);
#26=CYLINDRICAL_SURFACE('',#1052,1.49);
#27=FACE_BOUND('',#104,.T.);
#28=FACE_BOUND('',#150,.T.);
#29=CIRCLE('',#986,3.);
#30=CIRCLE('',#987,3.);
#31=CIRCLE('',#988,3.);
#32=CIRCLE('',#989,3.);
#33=CIRCLE('',#990,3.);
#34=CIRCLE('',#991,3.);
#35=CIRCLE('',#992,3.);
#36=CIRCLE('',#993,3.);
#37=CIRCLE('',#994,3.);
#38=CIRCLE('',#995,3.);
#39=CIRCLE('',#996,3.);
#40=CIRCLE('',#997,1.49);
#41=CIRCLE('',#1000,3.);
#42=CIRCLE('',#1002,3.);
#43=CIRCLE('',#1007,3.);
#44=CIRCLE('',#1009,3.);
#45=CIRCLE('',#1014,3.);
#46=CIRCLE('',#1016,3.);
#47=CIRCLE('',#1021,3.);
#48=CIRCLE('',#1026,3.);
#49=CIRCLE('',#1031,3.);
#50=CIRCLE('',#1036,3.);
#51=CIRCLE('',#1044,3.);
#52=CIRCLE('',#1053,1.49);
#53=FACE_OUTER_BOUND('',#101,.T.);
#54=FACE_OUTER_BOUND('',#102,.T.);
#55=FACE_OUTER_BOUND('',#103,.T.);
#56=FACE_OUTER_BOUND('',#105,.T.);
#57=FACE_OUTER_BOUND('',#106,.T.);
#58=FACE_OUTER_BOUND('',#107,.T.);
#59=FACE_OUTER_BOUND('',#108,.T.);
#60=FACE_OUTER_BOUND('',#109,.T.);
#61=FACE_OUTER_BOUND('',#110,.T.);
#62=FACE_OUTER_BOUND('',#111,.T.);
#63=FACE_OUTER_BOUND('',#112,.T.);
#64=FACE_OUTER_BOUND('',#113,.T.);
#65=FACE_OUTER_BOUND('',#114,.T.);
#66=FACE_OUTER_BOUND('',#115,.T.);
#67=FACE_OUTER_BOUND('',#116,.T.);
#68=FACE_OUTER_BOUND('',#117,.T.);
#69=FACE_OUTER_BOUND('',#118,.T.);
#70=FACE_OUTER_BOUND('',#119,.T.);
#71=FACE_OUTER_BOUND('',#120,.T.);
#72=FACE_OUTER_BOUND('',#121,.T.);
#73=FACE_OUTER_BOUND('',#122,.T.);
#74=FACE_OUTER_BOUND('',#123,.T.);
#75=FACE_OUTER_BOUND('',#124,.T.);
#76=FACE_OUTER_BOUND('',#125,.T.);
#77=FACE_OUTER_BOUND('',#126,.T.);
#78=FACE_OUTER_BOUND('',#127,.T.);
#79=FACE_OUTER_BOUND('',#128,.T.);
#80=FACE_OUTER_BOUND('',#129,.T.);
#81=FACE_OUTER_BOUND('',#130,.T.);
#82=FACE_OUTER_BOUND('',#131,.T.);
#83=FACE_OUTER_BOUND('',#132,.T.);
#84=FACE_OUTER_BOUND('',#133,.T.);
#85=FACE_OUTER_BOUND('',#134,.T.);
#86=FACE_OUTER_BOUND('',#135,.T.);
#87=FACE_OUTER_BOUND('',#136,.T.);
#88=FACE_OUTER_BOUND('',#137,.T.);
#89=FACE_OUTER_BOUND('',#138,.T.);
#90=FACE_OUTER_BOUND('',#139,.T.);
#91=FACE_OUTER_BOUND('',#140,.T.);
#92=FACE_OUTER_BOUND('',#141,.T.);
#93=FACE_OUTER_BOUND('',#142,.T.);
#94=FACE_OUTER_BOUND('',#143,.T.);
#95=FACE_OUTER_BOUND('',#144,.T.);
#96=FACE_OUTER_BOUND('',#145,.T.);
#97=FACE_OUTER_BOUND('',#146,.T.);
#98=FACE_OUTER_BOUND('',#147,.T.);
#99=FACE_OUTER_BOUND('',#148,.T.);
#100=FACE_OUTER_BOUND('',#149,.T.);
#101=EDGE_LOOP('',(#609,#610,#611,#612));
#102=EDGE_LOOP('',(#613,#614,#615,#616));
#103=EDGE_LOOP('',(#617,#618,#619,#620,#621,#622,#623,#624,#625,#626,#627,
#628,#629,#630,#631,#632,#633,#634,#635,#636,#637,#638,#639,#640,#641,#642,
#643,#644,#645,#646,#647,#648,#649,#650,#651,#652,#653,#654,#655,#656,#657,
#658,#659,#660));
#104=EDGE_LOOP('',(#661,#662));
#105=EDGE_LOOP('',(#663,#664,#665,#666));
#106=EDGE_LOOP('',(#667,#668,#669,#670));
#107=EDGE_LOOP('',(#671,#672,#673,#674));
#108=EDGE_LOOP('',(#675,#676,#677,#678));
#109=EDGE_LOOP('',(#679,#680,#681,#682));
#110=EDGE_LOOP('',(#683,#684,#685,#686));
#111=EDGE_LOOP('',(#687,#688,#689,#690));
#112=EDGE_LOOP('',(#691,#692,#693,#694));
#113=EDGE_LOOP('',(#695,#696,#697,#698));
#114=EDGE_LOOP('',(#699,#700,#701,#702));
#115=EDGE_LOOP('',(#703,#704,#705,#706));
#116=EDGE_LOOP('',(#707,#708,#709,#710));
#117=EDGE_LOOP('',(#711,#712,#713,#714));
#118=EDGE_LOOP('',(#715,#716,#717,#718));
#119=EDGE_LOOP('',(#719,#720,#721,#722));
#120=EDGE_LOOP('',(#723,#724,#725,#726));
#121=EDGE_LOOP('',(#727,#728,#729,#730));
#122=EDGE_LOOP('',(#731,#732,#733,#734));
#123=EDGE_LOOP('',(#735,#736,#737,#738));
#124=EDGE_LOOP('',(#739,#740,#741,#742));
#125=EDGE_LOOP('',(#743,#744,#745,#746));
#126=EDGE_LOOP('',(#747,#748,#749,#750));
#127=EDGE_LOOP('',(#751,#752,#753,#754));
#128=EDGE_LOOP('',(#755,#756,#757,#758));
#129=EDGE_LOOP('',(#759,#760,#761,#762));
#130=EDGE_LOOP('',(#763,#764,#765,#766));
#131=EDGE_LOOP('',(#767,#768,#769,#770));
#132=EDGE_LOOP('',(#771,#772,#773,#774));
#133=EDGE_LOOP('',(#775,#776,#777,#778));
#134=EDGE_LOOP('',(#779,#780,#781,#782));
#135=EDGE_LOOP('',(#783,#784,#785,#786));
#136=EDGE_LOOP('',(#787,#788,#789,#790));
#137=EDGE_LOOP('',(#791,#792,#793,#794));
#138=EDGE_LOOP('',(#795,#796,#797,#798));
#139=EDGE_LOOP('',(#799,#800,#801,#802));
#140=EDGE_LOOP('',(#803,#804,#805,#806));
#141=EDGE_LOOP('',(#807,#808,#809,#810));
#142=EDGE_LOOP('',(#811,#812,#813,#814));
#143=EDGE_LOOP('',(#815,#816,#817,#818));
#144=EDGE_LOOP('',(#819,#820,#821,#822));
#145=EDGE_LOOP('',(#823,#824,#825,#826));
#146=EDGE_LOOP('',(#827,#828,#829,#830));
#147=EDGE_LOOP('',(#831,#832,#833,#834));
#148=EDGE_LOOP('',(#835,#836,#837,#838));
#149=EDGE_LOOP('',(#839,#840,#841,#842,#843,#844,#845,#846,#847,#848,#849,
#850,#851,#852,#853,#854,#855,#856,#857,#858,#859,#860,#861,#862,#863,#864,
#865,#866,#867,#868,#869,#870,#871,#872,#873,#874,#875,#876,#877,#878,#879,
#880,#881,#882));
#150=EDGE_LOOP('',(#883,#884));
#151=LINE('',#1319,#265);
#152=LINE('',#1321,#266);
#153=LINE('',#1323,#267);
#154=LINE('',#1324,#268);
#155=LINE('',#1327,#269);
#156=LINE('',#1329,#270);
#157=LINE('',#1330,#271);
#158=LINE('',#1333,#272);
#159=LINE('',#1337,#273);
#160=LINE('',#1339,#274);
#161=LINE('',#1341,#275);
#162=LINE('',#1345,#276);
#163=LINE('',#1347,#277);
#164=LINE('',#1349,#278);
#165=LINE('',#1353,#279);
#166=LINE('',#1355,#280);
#167=LINE('',#1357,#281);
#168=LINE('',#1361,#282);
#169=LINE('',#1363,#283);
#170=LINE('',#1365,#284);
#171=LINE('',#1369,#285);
#172=LINE('',#1371,#286);
#173=LINE('',#1373,#287);
#174=LINE('',#1377,#288);
#175=LINE('',#1379,#289);
#176=LINE('',#1381,#290);
#177=LINE('',#1385,#291);
#178=LINE('',#1387,#292);
#179=LINE('',#1389,#293);
#180=LINE('',#1393,#294);
#181=LINE('',#1395,#295);
#182=LINE('',#1397,#296);
#183=LINE('',#1401,#297);
#184=LINE('',#1403,#298);
#185=LINE('',#1405,#299);
#186=LINE('',#1409,#300);
#187=LINE('',#1411,#301);
#188=LINE('',#1413,#302);
#189=LINE('',#1418,#303);
#190=LINE('',#1421,#304);
#191=LINE('',#1422,#305);
#192=LINE('',#1426,#306);
#193=LINE('',#1429,#307);
#194=LINE('',#1434,#308);
#195=LINE('',#1435,#309);
#196=LINE('',#1436,#310);
#197=LINE('',#1439,#311);
#198=LINE('',#1440,#312);
#199=LINE('',#1443,#313);
#200=LINE('',#1444,#314);
#201=LINE('',#1448,#315);
#202=LINE('',#1451,#316);
#203=LINE('',#1456,#317);
#204=LINE('',#1457,#318);
#205=LINE('',#1458,#319);
#206=LINE('',#1461,#320);
#207=LINE('',#1462,#321);
#208=LINE('',#1465,#322);
#209=LINE('',#1466,#323);
#210=LINE('',#1470,#324);
#211=LINE('',#1473,#325);
#212=LINE('',#1478,#326);
#213=LINE('',#1479,#327);
#214=LINE('',#1480,#328);
#215=LINE('',#1482,#329);
#216=LINE('',#1485,#330);
#217=LINE('',#1486,#331);
#218=LINE('',#1489,#332);
#219=LINE('',#1494,#333);
#220=LINE('',#1495,#334);
#221=LINE('',#1496,#335);
#222=LINE('',#1498,#336);
#223=LINE('',#1501,#337);
#224=LINE('',#1502,#338);
#225=LINE('',#1505,#339);
#226=LINE('',#1510,#340);
#227=LINE('',#1511,#341);
#228=LINE('',#1512,#342);
#229=LINE('',#1515,#343);
#230=LINE('',#1516,#344);
#231=LINE('',#1518,#345);
#232=LINE('',#1522,#346);
#233=LINE('',#1526,#347);
#234=LINE('',#1527,#348);
#235=LINE('',#1528,#349);
#236=LINE('',#1531,#350);
#237=LINE('',#1532,#351);
#238=LINE('',#1534,#352);
#239=LINE('',#1538,#353);
#240=LINE('',#1542,#354);
#241=LINE('',#1543,#355);
#242=LINE('',#1544,#356);
#243=LINE('',#1546,#357);
#244=LINE('',#1548,#358);
#245=LINE('',#1552,#359);
#246=LINE('',#1553,#360);
#247=LINE('',#1554,#361);
#248=LINE('',#1556,#362);
#249=LINE('',#1559,#363);
#250=LINE('',#1560,#364);
#251=LINE('',#1563,#365);
#252=LINE('',#1568,#366);
#253=LINE('',#1569,#367);
#254=LINE('',#1570,#368);
#255=LINE('',#1572,#369);
#256=LINE('',#1574,#370);
#257=LINE('',#1577,#371);
#258=LINE('',#1578,#372);
#259=LINE('',#1581,#373);
#260=LINE('',#1582,#374);
#261=LINE('',#1584,#375);
#262=LINE('',#1587,#376);
#263=LINE('',#1589,#377);
#264=LINE('',#1590,#378);
#265=VECTOR('',#1059,10.);
#266=VECTOR('',#1060,10.);
#267=VECTOR('',#1061,10.);
#268=VECTOR('',#1062,10.);
#269=VECTOR('',#1065,10.);
#270=VECTOR('',#1066,10.);
#271=VECTOR('',#1067,10.);
#272=VECTOR('',#1070,10.);
#273=VECTOR('',#1073,10.);
#274=VECTOR('',#1074,10.);
#275=VECTOR('',#1075,10.);
#276=VECTOR('',#1078,10.);
#277=VECTOR('',#1079,10.);
#278=VECTOR('',#1080,10.);
#279=VECTOR('',#1083,10.);
#280=VECTOR('',#1084,10.);
#281=VECTOR('',#1085,10.);
#282=VECTOR('',#1088,10.);
#283=VECTOR('',#1089,10.);
#284=VECTOR('',#1090,10.);
#285=VECTOR('',#1093,10.);
#286=VECTOR('',#1094,10.);
#287=VECTOR('',#1095,10.);
#288=VECTOR('',#1098,10.);
#289=VECTOR('',#1099,10.);
#290=VECTOR('',#1100,10.);
#291=VECTOR('',#1103,10.);
#292=VECTOR('',#1104,10.);
#293=VECTOR('',#1105,10.);
#294=VECTOR('',#1108,10.);
#295=VECTOR('',#1109,10.);
#296=VECTOR('',#1110,10.);
#297=VECTOR('',#1113,10.);
#298=VECTOR('',#1114,10.);
#299=VECTOR('',#1115,10.);
#300=VECTOR('',#1118,10.);
#301=VECTOR('',#1119,10.);
#302=VECTOR('',#1120,10.);
#303=VECTOR('',#1125,10.);
#304=VECTOR('',#1128,10.);
#305=VECTOR('',#1129,10.);
#306=VECTOR('',#1134,10.);
#307=VECTOR('',#1137,10.);
#308=VECTOR('',#1142,10.);
#309=VECTOR('',#1143,10.);
#310=VECTOR('',#1144,10.);
#311=VECTOR('',#1147,10.);
#312=VECTOR('',#1148,10.);
#313=VECTOR('',#1151,10.);
#314=VECTOR('',#1152,10.);
#315=VECTOR('',#1157,10.);
#316=VECTOR('',#1160,10.);
#317=VECTOR('',#1165,10.);
#318=VECTOR('',#1166,10.);
#319=VECTOR('',#1167,10.);
#320=VECTOR('',#1170,10.);
#321=VECTOR('',#1171,10.);
#322=VECTOR('',#1174,10.);
#323=VECTOR('',#1175,10.);
#324=VECTOR('',#1180,10.);
#325=VECTOR('',#1183,10.);
#326=VECTOR('',#1188,10.);
#327=VECTOR('',#1189,10.);
#328=VECTOR('',#1190,10.);
#329=VECTOR('',#1193,10.);
#330=VECTOR('',#1196,10.);
#331=VECTOR('',#1197,10.);
#332=VECTOR('',#1200,10.);
#333=VECTOR('',#1205,10.);
#334=VECTOR('',#1206,10.);
#335=VECTOR('',#1207,10.);
#336=VECTOR('',#1210,10.);
#337=VECTOR('',#1213,10.);
#338=VECTOR('',#1214,10.);
#339=VECTOR('',#1217,10.);
#340=VECTOR('',#1222,10.);
#341=VECTOR('',#1223,10.);
#342=VECTOR('',#1224,10.);
#343=VECTOR('',#1227,10.);
#344=VECTOR('',#1228,10.);
#345=VECTOR('',#1231,10.);
#346=VECTOR('',#1236,10.);
#347=VECTOR('',#1239,10.);
#348=VECTOR('',#1240,10.);
#349=VECTOR('',#1241,10.);
#350=VECTOR('',#1244,10.);
#351=VECTOR('',#1245,10.);
#352=VECTOR('',#1248,10.);
#353=VECTOR('',#1253,10.);
#354=VECTOR('',#1256,10.);
#355=VECTOR('',#1257,10.);
#356=VECTOR('',#1258,10.);
#357=VECTOR('',#1261,10.);
#358=VECTOR('',#1264,10.);
#359=VECTOR('',#1267,10.);
#360=VECTOR('',#1268,10.);
#361=VECTOR('',#1269,10.);
#362=VECTOR('',#1272,10.);
#363=VECTOR('',#1275,10.);
#364=VECTOR('',#1276,10.);
#365=VECTOR('',#1279,10.);
#366=VECTOR('',#1284,10.);
#367=VECTOR('',#1285,10.);
#368=VECTOR('',#1286,10.);
#369=VECTOR('',#1289,10.);
#370=VECTOR('',#1292,10.);
#371=VECTOR('',#1295,10.);
#372=VECTOR('',#1296,10.);
#373=VECTOR('',#1299,10.);
#374=VECTOR('',#1300,10.);
#375=VECTOR('',#1303,10.);
#376=VECTOR('',#1306,10.);
#377=VECTOR('',#1307,10.);
#378=VECTOR('',#1308,10.);
#379=VERTEX_POINT('',#1317);
#380=VERTEX_POINT('',#1318);
#381=VERTEX_POINT('',#1320);
#382=VERTEX_POINT('',#1322);
#383=VERTEX_POINT('',#1326);
#384=VERTEX_POINT('',#1328);
#385=VERTEX_POINT('',#1332);
#386=VERTEX_POINT('',#1334);
#387=VERTEX_POINT('',#1336);
#388=VERTEX_POINT('',#1338);
#389=VERTEX_POINT('',#1340);
#390=VERTEX_POINT('',#1342);
#391=VERTEX_POINT('',#1344);
#392=VERTEX_POINT('',#1346);
#393=VERTEX_POINT('',#1348);
#394=VERTEX_POINT('',#1350);
#395=VERTEX_POINT('',#1352);
#396=VERTEX_POINT('',#1354);
#397=VERTEX_POINT('',#1356);
#398=VERTEX_POINT('',#1358);
#399=VERTEX_POINT('',#1360);
#400=VERTEX_POINT('',#1362);
#401=VERTEX_POINT('',#1364);
#402=VERTEX_POINT('',#1366);
#403=VERTEX_POINT('',#1368);
#404=VERTEX_POINT('',#1370);
#405=VERTEX_POINT('',#1372);
#406=VERTEX_POINT('',#1374);
#407=VERTEX_POINT('',#1376);
#408=VERTEX_POINT('',#1378);
#409=VERTEX_POINT('',#1380);
#410=VERTEX_POINT('',#1382);
#411=VERTEX_POINT('',#1384);
#412=VERTEX_POINT('',#1386);
#413=VERTEX_POINT('',#1388);
#414=VERTEX_POINT('',#1390);
#415=VERTEX_POINT('',#1392);
#416=VERTEX_POINT('',#1394);
#417=VERTEX_POINT('',#1396);
#418=VERTEX_POINT('',#1398);
#419=VERTEX_POINT('',#1400);
#420=VERTEX_POINT('',#1402);
#421=VERTEX_POINT('',#1404);
#422=VERTEX_POINT('',#1406);
#423=VERTEX_POINT('',#1408);
#424=VERTEX_POINT('',#1410);
#425=VERTEX_POINT('',#1412);
#426=VERTEX_POINT('',#1415);
#427=VERTEX_POINT('',#1416);
#428=VERTEX_POINT('',#1420);
#429=VERTEX_POINT('',#1424);
#430=VERTEX_POINT('',#1428);
#431=VERTEX_POINT('',#1432);
#432=VERTEX_POINT('',#1433);
#433=VERTEX_POINT('',#1438);
#434=VERTEX_POINT('',#1442);
#435=VERTEX_POINT('',#1446);
#436=VERTEX_POINT('',#1450);
#437=VERTEX_POINT('',#1454);
#438=VERTEX_POINT('',#1455);
#439=VERTEX_POINT('',#1460);
#440=VERTEX_POINT('',#1464);
#441=VERTEX_POINT('',#1468);
#442=VERTEX_POINT('',#1472);
#443=VERTEX_POINT('',#1476);
#444=VERTEX_POINT('',#1477);
#445=VERTEX_POINT('',#1484);
#446=VERTEX_POINT('',#1488);
#447=VERTEX_POINT('',#1492);
#448=VERTEX_POINT('',#1493);
#449=VERTEX_POINT('',#1500);
#450=VERTEX_POINT('',#1504);
#451=VERTEX_POINT('',#1508);
#452=VERTEX_POINT('',#1509);
#453=VERTEX_POINT('',#1514);
#454=VERTEX_POINT('',#1520);
#455=VERTEX_POINT('',#1524);
#456=VERTEX_POINT('',#1525);
#457=VERTEX_POINT('',#1530);
#458=VERTEX_POINT('',#1536);
#459=VERTEX_POINT('',#1540);
#460=VERTEX_POINT('',#1541);
#461=VERTEX_POINT('',#1550);
#462=VERTEX_POINT('',#1551);
#463=VERTEX_POINT('',#1558);
#464=VERTEX_POINT('',#1562);
#465=VERTEX_POINT('',#1566);
#466=VERTEX_POINT('',#1567);
#467=VERTEX_POINT('',#1576);
#468=VERTEX_POINT('',#1580);
#469=VERTEX_POINT('',#1586);
#470=VERTEX_POINT('',#1588);
#471=EDGE_CURVE('',#379,#380,#151,.T.);
#472=EDGE_CURVE('',#381,#379,#152,.T.);
#473=EDGE_CURVE('',#382,#381,#153,.T.);
#474=EDGE_CURVE('',#380,#382,#154,.T.);
#475=EDGE_CURVE('',#382,#383,#155,.T.);
#476=EDGE_CURVE('',#384,#383,#156,.T.);
#477=EDGE_CURVE('',#384,#380,#157,.T.);
#478=EDGE_CURVE('',#381,#385,#158,.T.);
#479=EDGE_CURVE('',#385,#386,#29,.T.);
#480=EDGE_CURVE('',#387,#386,#159,.T.);
#481=EDGE_CURVE('',#387,#388,#160,.T.);
#482=EDGE_CURVE('',#388,#389,#161,.T.);
#483=EDGE_CURVE('',#389,#390,#30,.T.);
#484=EDGE_CURVE('',#391,#390,#162,.T.);
#485=EDGE_CURVE('',#391,#392,#163,.T.);
#486=EDGE_CURVE('',#392,#393,#164,.T.);
#487=EDGE_CURVE('',#393,#394,#31,.T.);
#488=EDGE_CURVE('',#395,#394,#165,.T.);
#489=EDGE_CURVE('',#395,#396,#166,.T.);
#490=EDGE_CURVE('',#396,#397,#167,.T.);
#491=EDGE_CURVE('',#397,#398,#32,.T.);
#492=EDGE_CURVE('',#399,#398,#168,.T.);
#493=EDGE_CURVE('',#399,#400,#169,.T.);
#494=EDGE_CURVE('',#400,#401,#170,.T.);
#495=EDGE_CURVE('',#401,#402,#33,.T.);
#496=EDGE_CURVE('',#403,#402,#171,.T.);
#497=EDGE_CURVE('',#403,#404,#172,.T.);
#498=EDGE_CURVE('',#404,#405,#173,.T.);
#499=EDGE_CURVE('',#405,#406,#34,.T.);
#500=EDGE_CURVE('',#407,#406,#174,.T.);
#501=EDGE_CURVE('',#407,#408,#175,.T.);
#502=EDGE_CURVE('',#408,#409,#176,.T.);
#503=EDGE_CURVE('',#409,#410,#35,.T.);
#504=EDGE_CURVE('',#411,#410,#177,.T.);
#505=EDGE_CURVE('',#411,#412,#178,.T.);
#506=EDGE_CURVE('',#412,#413,#179,.T.);
#507=EDGE_CURVE('',#413,#414,#36,.T.);
#508=EDGE_CURVE('',#415,#414,#180,.T.);
#509=EDGE_CURVE('',#415,#416,#181,.T.);
#510=EDGE_CURVE('',#416,#417,#182,.T.);
#511=EDGE_CURVE('',#417,#418,#37,.T.);
#512=EDGE_CURVE('',#419,#418,#183,.T.);
#513=EDGE_CURVE('',#419,#420,#184,.T.);
#514=EDGE_CURVE('',#420,#421,#185,.T.);
#515=EDGE_CURVE('',#421,#422,#38,.T.);
#516=EDGE_CURVE('',#423,#422,#186,.T.);
#517=EDGE_CURVE('',#423,#424,#187,.T.);
#518=EDGE_CURVE('',#424,#425,#188,.T.);
#519=EDGE_CURVE('',#425,#383,#39,.T.);
#520=EDGE_CURVE('',#426,#427,#40,.T.);
#521=EDGE_CURVE('',#427,#426,#189,.T.);
#522=EDGE_CURVE('',#379,#428,#190,.T.);
#523=EDGE_CURVE('',#385,#428,#191,.T.);
#524=EDGE_CURVE('',#429,#428,#41,.T.);
#525=EDGE_CURVE('',#429,#386,#192,.T.);
#526=EDGE_CURVE('',#425,#430,#193,.T.);
#527=EDGE_CURVE('',#384,#430,#42,.T.);
#528=EDGE_CURVE('',#431,#432,#194,.T.);
#529=EDGE_CURVE('',#396,#432,#195,.T.);
#530=EDGE_CURVE('',#395,#431,#196,.T.);
#531=EDGE_CURVE('',#432,#433,#197,.T.);
#532=EDGE_CURVE('',#397,#433,#198,.T.);
#533=EDGE_CURVE('',#434,#431,#199,.T.);
#534=EDGE_CURVE('',#434,#394,#200,.T.);
#535=EDGE_CURVE('',#435,#433,#43,.T.);
#536=EDGE_CURVE('',#435,#398,#201,.T.);
#537=EDGE_CURVE('',#393,#436,#202,.T.);
#538=EDGE_CURVE('',#434,#436,#44,.T.);
#539=EDGE_CURVE('',#437,#438,#203,.T.);
#540=EDGE_CURVE('',#416,#438,#204,.T.);
#541=EDGE_CURVE('',#415,#437,#205,.T.);
#542=EDGE_CURVE('',#438,#439,#206,.T.);
#543=EDGE_CURVE('',#417,#439,#207,.T.);
#544=EDGE_CURVE('',#440,#437,#208,.T.);
#545=EDGE_CURVE('',#440,#414,#209,.T.);
#546=EDGE_CURVE('',#441,#439,#45,.T.);
#547=EDGE_CURVE('',#441,#418,#210,.T.);
#548=EDGE_CURVE('',#413,#442,#211,.T.);
#549=EDGE_CURVE('',#440,#442,#46,.T.);
#550=EDGE_CURVE('',#443,#444,#212,.T.);
#551=EDGE_CURVE('',#412,#444,#213,.T.);
#552=EDGE_CURVE('',#411,#443,#214,.T.);
#553=EDGE_CURVE('',#444,#442,#215,.T.);
#554=EDGE_CURVE('',#445,#443,#216,.T.);
#555=EDGE_CURVE('',#445,#410,#217,.T.);
#556=EDGE_CURVE('',#409,#446,#218,.T.);
#557=EDGE_CURVE('',#445,#446,#47,.T.);
#558=EDGE_CURVE('',#447,#448,#219,.T.);
#559=EDGE_CURVE('',#424,#448,#220,.T.);
#560=EDGE_CURVE('',#423,#447,#221,.T.);
#561=EDGE_CURVE('',#448,#430,#222,.T.);
#562=EDGE_CURVE('',#449,#447,#223,.T.);
#563=EDGE_CURVE('',#449,#422,#224,.T.);
#564=EDGE_CURVE('',#421,#450,#225,.T.);
#565=EDGE_CURVE('',#449,#450,#48,.T.);
#566=EDGE_CURVE('',#451,#452,#226,.T.);
#567=EDGE_CURVE('',#388,#452,#227,.T.);
#568=EDGE_CURVE('',#387,#451,#228,.T.);
#569=EDGE_CURVE('',#452,#453,#229,.T.);
#570=EDGE_CURVE('',#389,#453,#230,.T.);
#571=EDGE_CURVE('',#429,#451,#231,.T.);
#572=EDGE_CURVE('',#454,#453,#49,.T.);
#573=EDGE_CURVE('',#454,#390,#232,.T.);
#574=EDGE_CURVE('',#455,#456,#233,.T.);
#575=EDGE_CURVE('',#400,#456,#234,.T.);
#576=EDGE_CURVE('',#399,#455,#235,.T.);
#577=EDGE_CURVE('',#456,#457,#236,.T.);
#578=EDGE_CURVE('',#401,#457,#237,.T.);
#579=EDGE_CURVE('',#435,#455,#238,.T.);
#580=EDGE_CURVE('',#458,#457,#50,.T.);
#581=EDGE_CURVE('',#458,#402,#239,.T.);
#582=EDGE_CURVE('',#459,#460,#240,.T.);
#583=EDGE_CURVE('',#420,#460,#241,.T.);
#584=EDGE_CURVE('',#419,#459,#242,.T.);
#585=EDGE_CURVE('',#460,#450,#243,.T.);
#586=EDGE_CURVE('',#441,#459,#244,.T.);
#587=EDGE_CURVE('',#461,#462,#245,.T.);
#588=EDGE_CURVE('',#408,#462,#246,.T.);
#589=EDGE_CURVE('',#407,#461,#247,.T.);
#590=EDGE_CURVE('',#462,#446,#248,.T.);
#591=EDGE_CURVE('',#463,#461,#249,.T.);
#592=EDGE_CURVE('',#463,#406,#250,.T.);
#593=EDGE_CURVE('',#405,#464,#251,.T.);
#594=EDGE_CURVE('',#463,#464,#51,.T.);
#595=EDGE_CURVE('',#465,#466,#252,.T.);
#596=EDGE_CURVE('',#392,#466,#253,.T.);
#597=EDGE_CURVE('',#391,#465,#254,.T.);
#598=EDGE_CURVE('',#466,#436,#255,.T.);
#599=EDGE_CURVE('',#454,#465,#256,.T.);
#600=EDGE_CURVE('',#458,#467,#257,.T.);
#601=EDGE_CURVE('',#403,#467,#258,.T.);
#602=EDGE_CURVE('',#467,#468,#259,.T.);
#603=EDGE_CURVE('',#404,#468,#260,.T.);
#604=EDGE_CURVE('',#468,#464,#261,.T.);
#605=EDGE_CURVE('',#427,#469,#262,.T.);
#606=EDGE_CURVE('',#470,#469,#263,.T.);
#607=EDGE_CURVE('',#426,#470,#264,.T.);
#608=EDGE_CURVE('',#469,#470,#52,.T.);
#609=ORIENTED_EDGE('',*,*,#471,.F.);
#610=ORIENTED_EDGE('',*,*,#472,.F.);
#611=ORIENTED_EDGE('',*,*,#473,.F.);
#612=ORIENTED_EDGE('',*,*,#474,.F.);
#613=ORIENTED_EDGE('',*,*,#474,.T.);
#614=ORIENTED_EDGE('',*,*,#475,.T.);
#615=ORIENTED_EDGE('',*,*,#476,.F.);
#616=ORIENTED_EDGE('',*,*,#477,.T.);
#617=ORIENTED_EDGE('',*,*,#473,.T.);
#618=ORIENTED_EDGE('',*,*,#478,.T.);
#619=ORIENTED_EDGE('',*,*,#479,.T.);
#620=ORIENTED_EDGE('',*,*,#480,.F.);
#621=ORIENTED_EDGE('',*,*,#481,.T.);
#622=ORIENTED_EDGE('',*,*,#482,.T.);
#623=ORIENTED_EDGE('',*,*,#483,.T.);
#624=ORIENTED_EDGE('',*,*,#484,.F.);
#625=ORIENTED_EDGE('',*,*,#485,.T.);
#626=ORIENTED_EDGE('',*,*,#486,.T.);
#627=ORIENTED_EDGE('',*,*,#487,.T.);
#628=ORIENTED_EDGE('',*,*,#488,.F.);
#629=ORIENTED_EDGE('',*,*,#489,.T.);
#630=ORIENTED_EDGE('',*,*,#490,.T.);
#631=ORIENTED_EDGE('',*,*,#491,.T.);
#632=ORIENTED_EDGE('',*,*,#492,.F.);
#633=ORIENTED_EDGE('',*,*,#493,.T.);
#634=ORIENTED_EDGE('',*,*,#494,.T.);
#635=ORIENTED_EDGE('',*,*,#495,.T.);
#636=ORIENTED_EDGE('',*,*,#496,.F.);
#637=ORIENTED_EDGE('',*,*,#497,.T.);
#638=ORIENTED_EDGE('',*,*,#498,.T.);
#639=ORIENTED_EDGE('',*,*,#499,.T.);
#640=ORIENTED_EDGE('',*,*,#500,.F.);
#641=ORIENTED_EDGE('',*,*,#501,.T.);
#642=ORIENTED_EDGE('',*,*,#502,.T.);
#643=ORIENTED_EDGE('',*,*,#503,.T.);
#644=ORIENTED_EDGE('',*,*,#504,.F.);
#645=ORIENTED_EDGE('',*,*,#505,.T.);
#646=ORIENTED_EDGE('',*,*,#506,.T.);
#647=ORIENTED_EDGE('',*,*,#507,.T.);
#648=ORIENTED_EDGE('',*,*,#508,.F.);
#649=ORIENTED_EDGE('',*,*,#509,.T.);
#650=ORIENTED_EDGE('',*,*,#510,.T.);
#651=ORIENTED_EDGE('',*,*,#511,.T.);
#652=ORIENTED_EDGE('',*,*,#512,.F.);
#653=ORIENTED_EDGE('',*,*,#513,.T.);
#654=ORIENTED_EDGE('',*,*,#514,.T.);
#655=ORIENTED_EDGE('',*,*,#515,.T.);
#656=ORIENTED_EDGE('',*,*,#516,.F.);
#657=ORIENTED_EDGE('',*,*,#517,.T.);
#658=ORIENTED_EDGE('',*,*,#518,.T.);
#659=ORIENTED_EDGE('',*,*,#519,.T.);
#660=ORIENTED_EDGE('',*,*,#475,.F.);
#661=ORIENTED_EDGE('',*,*,#520,.T.);
#662=ORIENTED_EDGE('',*,*,#521,.T.);
#663=ORIENTED_EDGE('',*,*,#472,.T.);
#664=ORIENTED_EDGE('',*,*,#522,.T.);
#665=ORIENTED_EDGE('',*,*,#523,.F.);
#666=ORIENTED_EDGE('',*,*,#478,.F.);
#667=ORIENTED_EDGE('',*,*,#523,.T.);
#668=ORIENTED_EDGE('',*,*,#524,.F.);
#669=ORIENTED_EDGE('',*,*,#525,.T.);
#670=ORIENTED_EDGE('',*,*,#479,.F.);
#671=ORIENTED_EDGE('',*,*,#476,.T.);
#672=ORIENTED_EDGE('',*,*,#519,.F.);
#673=ORIENTED_EDGE('',*,*,#526,.T.);
#674=ORIENTED_EDGE('',*,*,#527,.F.);
#675=ORIENTED_EDGE('',*,*,#528,.T.);
#676=ORIENTED_EDGE('',*,*,#529,.F.);
#677=ORIENTED_EDGE('',*,*,#489,.F.);
#678=ORIENTED_EDGE('',*,*,#530,.T.);
#679=ORIENTED_EDGE('',*,*,#531,.T.);
#680=ORIENTED_EDGE('',*,*,#532,.F.);
#681=ORIENTED_EDGE('',*,*,#490,.F.);
#682=ORIENTED_EDGE('',*,*,#529,.T.);
#683=ORIENTED_EDGE('',*,*,#533,.T.);
#684=ORIENTED_EDGE('',*,*,#530,.F.);
#685=ORIENTED_EDGE('',*,*,#488,.T.);
#686=ORIENTED_EDGE('',*,*,#534,.F.);
#687=ORIENTED_EDGE('',*,*,#532,.T.);
#688=ORIENTED_EDGE('',*,*,#535,.F.);
#689=ORIENTED_EDGE('',*,*,#536,.T.);
#690=ORIENTED_EDGE('',*,*,#491,.F.);
#691=ORIENTED_EDGE('',*,*,#534,.T.);
#692=ORIENTED_EDGE('',*,*,#487,.F.);
#693=ORIENTED_EDGE('',*,*,#537,.T.);
#694=ORIENTED_EDGE('',*,*,#538,.F.);
#695=ORIENTED_EDGE('',*,*,#539,.T.);
#696=ORIENTED_EDGE('',*,*,#540,.F.);
#697=ORIENTED_EDGE('',*,*,#509,.F.);
#698=ORIENTED_EDGE('',*,*,#541,.T.);
#699=ORIENTED_EDGE('',*,*,#542,.T.);
#700=ORIENTED_EDGE('',*,*,#543,.F.);
#701=ORIENTED_EDGE('',*,*,#510,.F.);
#702=ORIENTED_EDGE('',*,*,#540,.T.);
#703=ORIENTED_EDGE('',*,*,#544,.T.);
#704=ORIENTED_EDGE('',*,*,#541,.F.);
#705=ORIENTED_EDGE('',*,*,#508,.T.);
#706=ORIENTED_EDGE('',*,*,#545,.F.);
#707=ORIENTED_EDGE('',*,*,#543,.T.);
#708=ORIENTED_EDGE('',*,*,#546,.F.);
#709=ORIENTED_EDGE('',*,*,#547,.T.);
#710=ORIENTED_EDGE('',*,*,#511,.F.);
#711=ORIENTED_EDGE('',*,*,#545,.T.);
#712=ORIENTED_EDGE('',*,*,#507,.F.);
#713=ORIENTED_EDGE('',*,*,#548,.T.);
#714=ORIENTED_EDGE('',*,*,#549,.F.);
#715=ORIENTED_EDGE('',*,*,#550,.T.);
#716=ORIENTED_EDGE('',*,*,#551,.F.);
#717=ORIENTED_EDGE('',*,*,#505,.F.);
#718=ORIENTED_EDGE('',*,*,#552,.T.);
#719=ORIENTED_EDGE('',*,*,#553,.T.);
#720=ORIENTED_EDGE('',*,*,#548,.F.);
#721=ORIENTED_EDGE('',*,*,#506,.F.);
#722=ORIENTED_EDGE('',*,*,#551,.T.);
#723=ORIENTED_EDGE('',*,*,#554,.T.);
#724=ORIENTED_EDGE('',*,*,#552,.F.);
#725=ORIENTED_EDGE('',*,*,#504,.T.);
#726=ORIENTED_EDGE('',*,*,#555,.F.);
#727=ORIENTED_EDGE('',*,*,#555,.T.);
#728=ORIENTED_EDGE('',*,*,#503,.F.);
#729=ORIENTED_EDGE('',*,*,#556,.T.);
#730=ORIENTED_EDGE('',*,*,#557,.F.);
#731=ORIENTED_EDGE('',*,*,#558,.T.);
#732=ORIENTED_EDGE('',*,*,#559,.F.);
#733=ORIENTED_EDGE('',*,*,#517,.F.);
#734=ORIENTED_EDGE('',*,*,#560,.T.);
#735=ORIENTED_EDGE('',*,*,#561,.T.);
#736=ORIENTED_EDGE('',*,*,#526,.F.);
#737=ORIENTED_EDGE('',*,*,#518,.F.);
#738=ORIENTED_EDGE('',*,*,#559,.T.);
#739=ORIENTED_EDGE('',*,*,#562,.T.);
#740=ORIENTED_EDGE('',*,*,#560,.F.);
#741=ORIENTED_EDGE('',*,*,#516,.T.);
#742=ORIENTED_EDGE('',*,*,#563,.F.);
#743=ORIENTED_EDGE('',*,*,#563,.T.);
#744=ORIENTED_EDGE('',*,*,#515,.F.);
#745=ORIENTED_EDGE('',*,*,#564,.T.);
#746=ORIENTED_EDGE('',*,*,#565,.F.);
#747=ORIENTED_EDGE('',*,*,#566,.T.);
#748=ORIENTED_EDGE('',*,*,#567,.F.);
#749=ORIENTED_EDGE('',*,*,#481,.F.);
#750=ORIENTED_EDGE('',*,*,#568,.T.);
#751=ORIENTED_EDGE('',*,*,#569,.T.);
#752=ORIENTED_EDGE('',*,*,#570,.F.);
#753=ORIENTED_EDGE('',*,*,#482,.F.);
#754=ORIENTED_EDGE('',*,*,#567,.T.);
#755=ORIENTED_EDGE('',*,*,#571,.T.);
#756=ORIENTED_EDGE('',*,*,#568,.F.);
#757=ORIENTED_EDGE('',*,*,#480,.T.);
#758=ORIENTED_EDGE('',*,*,#525,.F.);
#759=ORIENTED_EDGE('',*,*,#570,.T.);
#760=ORIENTED_EDGE('',*,*,#572,.F.);
#761=ORIENTED_EDGE('',*,*,#573,.T.);
#762=ORIENTED_EDGE('',*,*,#483,.F.);
#763=ORIENTED_EDGE('',*,*,#574,.T.);
#764=ORIENTED_EDGE('',*,*,#575,.F.);
#765=ORIENTED_EDGE('',*,*,#493,.F.);
#766=ORIENTED_EDGE('',*,*,#576,.T.);
#767=ORIENTED_EDGE('',*,*,#577,.T.);
#768=ORIENTED_EDGE('',*,*,#578,.F.);
#769=ORIENTED_EDGE('',*,*,#494,.F.);
#770=ORIENTED_EDGE('',*,*,#575,.T.);
#771=ORIENTED_EDGE('',*,*,#579,.T.);
#772=ORIENTED_EDGE('',*,*,#576,.F.);
#773=ORIENTED_EDGE('',*,*,#492,.T.);
#774=ORIENTED_EDGE('',*,*,#536,.F.);
#775=ORIENTED_EDGE('',*,*,#578,.T.);
#776=ORIENTED_EDGE('',*,*,#580,.F.);
#777=ORIENTED_EDGE('',*,*,#581,.T.);
#778=ORIENTED_EDGE('',*,*,#495,.F.);
#779=ORIENTED_EDGE('',*,*,#582,.T.);
#780=ORIENTED_EDGE('',*,*,#583,.F.);
#781=ORIENTED_EDGE('',*,*,#513,.F.);
#782=ORIENTED_EDGE('',*,*,#584,.T.);
#783=ORIENTED_EDGE('',*,*,#585,.T.);
#784=ORIENTED_EDGE('',*,*,#564,.F.);
#785=ORIENTED_EDGE('',*,*,#514,.F.);
#786=ORIENTED_EDGE('',*,*,#583,.T.);
#787=ORIENTED_EDGE('',*,*,#586,.T.);
#788=ORIENTED_EDGE('',*,*,#584,.F.);
#789=ORIENTED_EDGE('',*,*,#512,.T.);
#790=ORIENTED_EDGE('',*,*,#547,.F.);
#791=ORIENTED_EDGE('',*,*,#587,.T.);
#792=ORIENTED_EDGE('',*,*,#588,.F.);
#793=ORIENTED_EDGE('',*,*,#501,.F.);
#794=ORIENTED_EDGE('',*,*,#589,.T.);
#795=ORIENTED_EDGE('',*,*,#590,.T.);
#796=ORIENTED_EDGE('',*,*,#556,.F.);
#797=ORIENTED_EDGE('',*,*,#502,.F.);
#798=ORIENTED_EDGE('',*,*,#588,.T.);
#799=ORIENTED_EDGE('',*,*,#591,.T.);
#800=ORIENTED_EDGE('',*,*,#589,.F.);
#801=ORIENTED_EDGE('',*,*,#500,.T.);
#802=ORIENTED_EDGE('',*,*,#592,.F.);
#803=ORIENTED_EDGE('',*,*,#592,.T.);
#804=ORIENTED_EDGE('',*,*,#499,.F.);
#805=ORIENTED_EDGE('',*,*,#593,.T.);
#806=ORIENTED_EDGE('',*,*,#594,.F.);
#807=ORIENTED_EDGE('',*,*,#595,.T.);
#808=ORIENTED_EDGE('',*,*,#596,.F.);
#809=ORIENTED_EDGE('',*,*,#485,.F.);
#810=ORIENTED_EDGE('',*,*,#597,.T.);
#811=ORIENTED_EDGE('',*,*,#598,.T.);
#812=ORIENTED_EDGE('',*,*,#537,.F.);
#813=ORIENTED_EDGE('',*,*,#486,.F.);
#814=ORIENTED_EDGE('',*,*,#596,.T.);
#815=ORIENTED_EDGE('',*,*,#599,.T.);
#816=ORIENTED_EDGE('',*,*,#597,.F.);
#817=ORIENTED_EDGE('',*,*,#484,.T.);
#818=ORIENTED_EDGE('',*,*,#573,.F.);
#819=ORIENTED_EDGE('',*,*,#600,.T.);
#820=ORIENTED_EDGE('',*,*,#601,.F.);
#821=ORIENTED_EDGE('',*,*,#496,.T.);
#822=ORIENTED_EDGE('',*,*,#581,.F.);
#823=ORIENTED_EDGE('',*,*,#602,.T.);
#824=ORIENTED_EDGE('',*,*,#603,.F.);
#825=ORIENTED_EDGE('',*,*,#497,.F.);
#826=ORIENTED_EDGE('',*,*,#601,.T.);
#827=ORIENTED_EDGE('',*,*,#604,.T.);
#828=ORIENTED_EDGE('',*,*,#593,.F.);
#829=ORIENTED_EDGE('',*,*,#498,.F.);
#830=ORIENTED_EDGE('',*,*,#603,.T.);
#831=ORIENTED_EDGE('',*,*,#521,.F.);
#832=ORIENTED_EDGE('',*,*,#605,.T.);
#833=ORIENTED_EDGE('',*,*,#606,.F.);
#834=ORIENTED_EDGE('',*,*,#607,.F.);
#835=ORIENTED_EDGE('',*,*,#520,.F.);
#836=ORIENTED_EDGE('',*,*,#607,.T.);
#837=ORIENTED_EDGE('',*,*,#608,.F.);
#838=ORIENTED_EDGE('',*,*,#605,.F.);
#839=ORIENTED_EDGE('',*,*,#471,.T.);
#840=ORIENTED_EDGE('',*,*,#477,.F.);
#841=ORIENTED_EDGE('',*,*,#527,.T.);
#842=ORIENTED_EDGE('',*,*,#561,.F.);
#843=ORIENTED_EDGE('',*,*,#558,.F.);
#844=ORIENTED_EDGE('',*,*,#562,.F.);
#845=ORIENTED_EDGE('',*,*,#565,.T.);
#846=ORIENTED_EDGE('',*,*,#585,.F.);
#847=ORIENTED_EDGE('',*,*,#582,.F.);
#848=ORIENTED_EDGE('',*,*,#586,.F.);
#849=ORIENTED_EDGE('',*,*,#546,.T.);
#850=ORIENTED_EDGE('',*,*,#542,.F.);
#851=ORIENTED_EDGE('',*,*,#539,.F.);
#852=ORIENTED_EDGE('',*,*,#544,.F.);
#853=ORIENTED_EDGE('',*,*,#549,.T.);
#854=ORIENTED_EDGE('',*,*,#553,.F.);
#855=ORIENTED_EDGE('',*,*,#550,.F.);
#856=ORIENTED_EDGE('',*,*,#554,.F.);
#857=ORIENTED_EDGE('',*,*,#557,.T.);
#858=ORIENTED_EDGE('',*,*,#590,.F.);
#859=ORIENTED_EDGE('',*,*,#587,.F.);
#860=ORIENTED_EDGE('',*,*,#591,.F.);
#861=ORIENTED_EDGE('',*,*,#594,.T.);
#862=ORIENTED_EDGE('',*,*,#604,.F.);
#863=ORIENTED_EDGE('',*,*,#602,.F.);
#864=ORIENTED_EDGE('',*,*,#600,.F.);
#865=ORIENTED_EDGE('',*,*,#580,.T.);
#866=ORIENTED_EDGE('',*,*,#577,.F.);
#867=ORIENTED_EDGE('',*,*,#574,.F.);
#868=ORIENTED_EDGE('',*,*,#579,.F.);
#869=ORIENTED_EDGE('',*,*,#535,.T.);
#870=ORIENTED_EDGE('',*,*,#531,.F.);
#871=ORIENTED_EDGE('',*,*,#528,.F.);
#872=ORIENTED_EDGE('',*,*,#533,.F.);
#873=ORIENTED_EDGE('',*,*,#538,.T.);
#874=ORIENTED_EDGE('',*,*,#598,.F.);
#875=ORIENTED_EDGE('',*,*,#595,.F.);
#876=ORIENTED_EDGE('',*,*,#599,.F.);
#877=ORIENTED_EDGE('',*,*,#572,.T.);
#878=ORIENTED_EDGE('',*,*,#569,.F.);
#879=ORIENTED_EDGE('',*,*,#566,.F.);
#880=ORIENTED_EDGE('',*,*,#571,.F.);
#881=ORIENTED_EDGE('',*,*,#524,.T.);
#882=ORIENTED_EDGE('',*,*,#522,.F.);
#883=ORIENTED_EDGE('',*,*,#608,.T.);
#884=ORIENTED_EDGE('',*,*,#606,.T.);
#885=PLANE('',#983);
#886=PLANE('',#984);
#887=PLANE('',#985);
#888=PLANE('',#998);
#889=PLANE('',#1003);
#890=PLANE('',#1004);
#891=PLANE('',#1005);
#892=PLANE('',#1010);
#893=PLANE('',#1011);
#894=PLANE('',#1012);
#895=PLANE('',#1017);
#896=PLANE('',#1018);
#897=PLANE('',#1019);
#898=PLANE('',#1022);
#899=PLANE('',#1023);
#900=PLANE('',#1024);
#901=PLANE('',#1027);
#902=PLANE('',#1028);
#903=PLANE('',#1029);
#904=PLANE('',#1032);
#905=PLANE('',#1033);
#906=PLANE('',#1034);
#907=PLANE('',#1037);
#908=PLANE('',#1038);
#909=PLANE('',#1039);
#910=PLANE('',#1040);
#911=PLANE('',#1041);
#912=PLANE('',#1042);
#913=PLANE('',#1045);
#914=PLANE('',#1046);
#915=PLANE('',#1047);
#916=PLANE('',#1048);
#917=PLANE('',#1049);
#918=PLANE('',#1050);
#919=PLANE('',#1051);
#920=PLANE('',#1054);
#921=ADVANCED_FACE('',(#53),#885,.F.);
#922=ADVANCED_FACE('',(#54),#886,.T.);
#923=ADVANCED_FACE('',(#55,#27),#887,.T.);
#924=ADVANCED_FACE('',(#56),#888,.T.);
#925=ADVANCED_FACE('',(#57),#15,.T.);
#926=ADVANCED_FACE('',(#58),#16,.T.);
#927=ADVANCED_FACE('',(#59),#889,.T.);
#928=ADVANCED_FACE('',(#60),#890,.T.);
#929=ADVANCED_FACE('',(#61),#891,.T.);
#930=ADVANCED_FACE('',(#62),#17,.T.);
#931=ADVANCED_FACE('',(#63),#18,.T.);
#932=ADVANCED_FACE('',(#64),#892,.T.);
#933=ADVANCED_FACE('',(#65),#893,.T.);
#934=ADVANCED_FACE('',(#66),#894,.T.);
#935=ADVANCED_FACE('',(#67),#19,.T.);
#936=ADVANCED_FACE('',(#68),#20,.T.);
#937=ADVANCED_FACE('',(#69),#895,.T.);
#938=ADVANCED_FACE('',(#70),#896,.T.);
#939=ADVANCED_FACE('',(#71),#897,.T.);
#940=ADVANCED_FACE('',(#72),#21,.T.);
#941=ADVANCED_FACE('',(#73),#898,.T.);
#942=ADVANCED_FACE('',(#74),#899,.T.);
#943=ADVANCED_FACE('',(#75),#900,.T.);
#944=ADVANCED_FACE('',(#76),#22,.T.);
#945=ADVANCED_FACE('',(#77),#901,.T.);
#946=ADVANCED_FACE('',(#78),#902,.T.);
#947=ADVANCED_FACE('',(#79),#903,.T.);
#948=ADVANCED_FACE('',(#80),#23,.T.);
#949=ADVANCED_FACE('',(#81),#904,.T.);
#950=ADVANCED_FACE('',(#82),#905,.T.);
#951=ADVANCED_FACE('',(#83),#906,.T.);
#952=ADVANCED_FACE('',(#84),#24,.T.);
#953=ADVANCED_FACE('',(#85),#907,.T.);
#954=ADVANCED_FACE('',(#86),#908,.T.);
#955=ADVANCED_FACE('',(#87),#909,.T.);
#956=ADVANCED_FACE('',(#88),#910,.T.);
#957=ADVANCED_FACE('',(#89),#911,.T.);
#958=ADVANCED_FACE('',(#90),#912,.T.);
#959=ADVANCED_FACE('',(#91),#25,.T.);
#960=ADVANCED_FACE('',(#92),#913,.T.);
#961=ADVANCED_FACE('',(#93),#914,.T.);
#962=ADVANCED_FACE('',(#94),#915,.T.);
#963=ADVANCED_FACE('',(#95),#916,.T.);
#964=ADVANCED_FACE('',(#96),#917,.T.);
#965=ADVANCED_FACE('',(#97),#918,.T.);
#966=ADVANCED_FACE('',(#98),#919,.T.);
#967=ADVANCED_FACE('',(#99),#26,.F.);
#968=ADVANCED_FACE('',(#100,#28),#920,.F.);
#969=CLOSED_SHELL('',(#921,#922,#923,#924,#925,#926,#927,#928,#929,#930,
#931,#932,#933,#934,#935,#936,#937,#938,#939,#940,#941,#942,#943,#944,#945,
#946,#947,#948,#949,#950,#951,#952,#953,#954,#955,#956,#957,#958,#959,#960,
#961,#962,#963,#964,#965,#966,#967,#968));
#970=DERIVED_UNIT_ELEMENT(#972,1.);
#971=DERIVED_UNIT_ELEMENT(#1599,-3.);
#972=(
MASS_UNIT()
NAMED_UNIT(*)
SI_UNIT(.KILO.,.GRAM.)
);
#973=DERIVED_UNIT((#970,#971));
#974=MEASURE_REPRESENTATION_ITEM('density measure',
POSITIVE_RATIO_MEASURE(7850.),#973);
#975=PROPERTY_DEFINITION_REPRESENTATION(#980,#977);
#976=PROPERTY_DEFINITION_REPRESENTATION(#981,#978);
#977=REPRESENTATION('material name',(#979),#1596);
#978=REPRESENTATION('density',(#974),#1596);
#979=DESCRIPTIVE_REPRESENTATION_ITEM('\X\C7elik','\X\C7elik');
#980=PROPERTY_DEFINITION('material property','material name',#1606);
#981=PROPERTY_DEFINITION('material property','density of part',#1606);
#982=AXIS2_PLACEMENT_3D('',#1315,#1055,#1056);
#983=AXIS2_PLACEMENT_3D('',#1316,#1057,#1058);
#984=AXIS2_PLACEMENT_3D('',#1325,#1063,#1064);
#985=AXIS2_PLACEMENT_3D('',#1331,#1068,#1069);
#986=AXIS2_PLACEMENT_3D('',#1335,#1071,#1072);
#987=AXIS2_PLACEMENT_3D('',#1343,#1076,#1077);
#988=AXIS2_PLACEMENT_3D('',#1351,#1081,#1082);
#989=AXIS2_PLACEMENT_3D('',#1359,#1086,#1087);
#990=AXIS2_PLACEMENT_3D('',#1367,#1091,#1092);
#991=AXIS2_PLACEMENT_3D('',#1375,#1096,#1097);
#992=AXIS2_PLACEMENT_3D('',#1383,#1101,#1102);
#993=AXIS2_PLACEMENT_3D('',#1391,#1106,#1107);
#994=AXIS2_PLACEMENT_3D('',#1399,#1111,#1112);
#995=AXIS2_PLACEMENT_3D('',#1407,#1116,#1117);
#996=AXIS2_PLACEMENT_3D('',#1414,#1121,#1122);
#997=AXIS2_PLACEMENT_3D('',#1417,#1123,#1124);
#998=AXIS2_PLACEMENT_3D('',#1419,#1126,#1127);
#999=AXIS2_PLACEMENT_3D('',#1423,#1130,#1131);
#1000=AXIS2_PLACEMENT_3D('',#1425,#1132,#1133);
#1001=AXIS2_PLACEMENT_3D('',#1427,#1135,#1136);
#1002=AXIS2_PLACEMENT_3D('',#1430,#1138,#1139);
#1003=AXIS2_PLACEMENT_3D('',#1431,#1140,#1141);
#1004=AXIS2_PLACEMENT_3D('',#1437,#1145,#1146);
#1005=AXIS2_PLACEMENT_3D('',#1441,#1149,#1150);
#1006=AXIS2_PLACEMENT_3D('',#1445,#1153,#1154);
#1007=AXIS2_PLACEMENT_3D('',#1447,#1155,#1156);
#1008=AXIS2_PLACEMENT_3D('',#1449,#1158,#1159);
#1009=AXIS2_PLACEMENT_3D('',#1452,#1161,#1162);
#1010=AXIS2_PLACEMENT_3D('',#1453,#1163,#1164);
#1011=AXIS2_PLACEMENT_3D('',#1459,#1168,#1169);
#1012=AXIS2_PLACEMENT_3D('',#1463,#1172,#1173);
#1013=AXIS2_PLACEMENT_3D('',#1467,#1176,#1177);
#1014=AXIS2_PLACEMENT_3D('',#1469,#1178,#1179);
#1015=AXIS2_PLACEMENT_3D('',#1471,#1181,#1182);
#1016=AXIS2_PLACEMENT_3D('',#1474,#1184,#1185);
#1017=AXIS2_PLACEMENT_3D('',#1475,#1186,#1187);
#1018=AXIS2_PLACEMENT_3D('',#1481,#1191,#1192);
#1019=AXIS2_PLACEMENT_3D('',#1483,#1194,#1195);
#1020=AXIS2_PLACEMENT_3D('',#1487,#1198,#1199);
#1021=AXIS2_PLACEMENT_3D('',#1490,#1201,#1202);
#1022=AXIS2_PLACEMENT_3D('',#1491,#1203,#1204);
#1023=AXIS2_PLACEMENT_3D('',#1497,#1208,#1209);
#1024=AXIS2_PLACEMENT_3D('',#1499,#1211,#1212);
#1025=AXIS2_PLACEMENT_3D('',#1503,#1215,#1216);
#1026=AXIS2_PLACEMENT_3D('',#1506,#1218,#1219);
#1027=AXIS2_PLACEMENT_3D('',#1507,#1220,#1221);
#1028=AXIS2_PLACEMENT_3D('',#1513,#1225,#1226);
#1029=AXIS2_PLACEMENT_3D('',#1517,#1229,#1230);
#1030=AXIS2_PLACEMENT_3D('',#1519,#1232,#1233);
#1031=AXIS2_PLACEMENT_3D('',#1521,#1234,#1235);
#1032=AXIS2_PLACEMENT_3D('',#1523,#1237,#1238);
#1033=AXIS2_PLACEMENT_3D('',#1529,#1242,#1243);
#1034=AXIS2_PLACEMENT_3D('',#1533,#1246,#1247);
#1035=AXIS2_PLACEMENT_3D('',#1535,#1249,#1250);
#1036=AXIS2_PLACEMENT_3D('',#1537,#1251,#1252);
#1037=AXIS2_PLACEMENT_3D('',#1539,#1254,#1255);
#1038=AXIS2_PLACEMENT_3D('',#1545,#1259,#1260);
#1039=AXIS2_PLACEMENT_3D('',#1547,#1262,#1263);
#1040=AXIS2_PLACEMENT_3D('',#1549,#1265,#1266);
#1041=AXIS2_PLACEMENT_3D('',#1555,#1270,#1271);
#1042=AXIS2_PLACEMENT_3D('',#1557,#1273,#1274);
#1043=AXIS2_PLACEMENT_3D('',#1561,#1277,#1278);
#1044=AXIS2_PLACEMENT_3D('',#1564,#1280,#1281);
#1045=AXIS2_PLACEMENT_3D('',#1565,#1282,#1283);
#1046=AXIS2_PLACEMENT_3D('',#1571,#1287,#1288);
#1047=AXIS2_PLACEMENT_3D('',#1573,#1290,#1291);
#1048=AXIS2_PLACEMENT_3D('',#1575,#1293,#1294);
#1049=AXIS2_PLACEMENT_3D('',#1579,#1297,#1298);
#1050=AXIS2_PLACEMENT_3D('',#1583,#1301,#1302);
#1051=AXIS2_PLACEMENT_3D('',#1585,#1304,#1305);
#1052=AXIS2_PLACEMENT_3D('',#1591,#1309,#1310);
#1053=AXIS2_PLACEMENT_3D('',#1592,#1311,#1312);
#1054=AXIS2_PLACEMENT_3D('',#1593,#1313,#1314);
#1055=DIRECTION('axis',(0.,0.,1.));
#1056=DIRECTION('refdir',(1.,0.,0.));
#1057=DIRECTION('center_axis',(3.26752020000027E-16,0.961261695938319,-0.275637355816999));
#1058=DIRECTION('ref_axis',(4.29461341149064E-17,0.275637355816999,0.961261695938319));
#1059=DIRECTION('',(1.16442140516496E-15,-0.275637355816999,-0.961261695938319));
#1060=DIRECTION('',(1.,-2.22374218450506E-18,1.17768660512016E-15));
#1061=DIRECTION('',(-1.16442140516496E-15,0.275637355816999,0.961261695938319));
#1062=DIRECTION('',(-1.,1.97183022187048E-18,-1.17856512653723E-15));
#1063=DIRECTION('center_axis',(1.0380559179077E-15,-0.472054789805803,-0.881569211929159));
#1064=DIRECTION('ref_axis',(5.57709399512045E-16,0.881569211929159,-0.472054789805803));
#1065=DIRECTION('',(5.57709399512045E-16,0.881569211929159,-0.472054789805803));
#1066=DIRECTION('',(-1.,0.,-1.20274161001058E-15));
#1067=DIRECTION('',(-5.57709399512045E-16,-0.881569211929159,0.472054789805803));
#1068=DIRECTION('center_axis',(-1.,-1.38777878078154E-17,-1.20736753927985E-15));
#1069=DIRECTION('ref_axis',(-1.20736753927985E-15,2.52443253575812E-29,
1.));
#1070=DIRECTION('',(8.21452580723556E-17,0.996835301415045,-0.0794945397670547));
#1071=DIRECTION('center_axis',(-1.,-1.38777878078154E-17,-1.20736753927985E-15));
#1072=DIRECTION('ref_axis',(-1.20736753927985E-15,2.52443253575812E-29,
1.));
#1073=DIRECTION('',(1.04816300092244E-15,0.486411126526165,-0.87373005899508));
#1074=DIRECTION('',(-8.01145725143253E-16,0.755749574354258,0.654860733945285));
#1075=DIRECTION('',(7.20387837551553E-16,0.795613226003326,-0.60580491464545));
#1076=DIRECTION('center_axis',(-1.,-1.38777878078154E-17,-1.20736753927985E-15));
#1077=DIRECTION('ref_axis',(-1.20736753927985E-15,2.52443253575812E-29,
1.));
#1078=DIRECTION('',(1.20583225550583E-15,-0.0631790547320965,-0.998002207935012));
#1079=DIRECTION('',(-1.85562848027076E-16,0.989821441880933,0.142314838273285));
#1080=DIRECTION('',(1.12991236862536E-15,0.341789572869975,-0.9397765095369));
#1081=DIRECTION('center_axis',(-1.,-1.38777878078154E-17,-1.20736753927985E-15));
#1082=DIRECTION('ref_axis',(-1.20736753927985E-15,2.52443253575812E-29,
1.));
#1083=DIRECTION('',(9.80658288969695E-16,-0.592710332514787,-0.805415707402215));
#1084=DIRECTION('',(4.88934922213264E-16,0.909631995354519,-0.415415013001884));
#1085=DIRECTION('',(1.18069770623992E-15,-0.220549854679871,-0.975375702793897));
#1086=DIRECTION('center_axis',(-1.,-1.38777878078154E-17,-1.20736753927985E-15));
#1087=DIRECTION('ref_axis',(-1.20736753927985E-15,2.52443253575812E-29,
1.));
#1088=DIRECTION('',(4.44132244686048E-16,-0.934060267615121,-0.357115410564665));
#1089=DIRECTION('',(1.00819930929997E-15,0.540640817455598,-0.841253532831181));
#1090=DIRECTION('',(8.5661986453464E-16,-0.712866261699665,-0.701300002089223));
#1091=DIRECTION('center_axis',(-1.,-1.38777878078154E-17,-1.20736753927985E-15));
#1092=DIRECTION('ref_axis',(-1.20736753927985E-15,2.52443253575812E-29,
1.));
#1093=DIRECTION('',(-2.33402649196934E-16,-0.978852667502131,0.204566505870251));
#1094=DIRECTION('',(1.20736753927985E-15,-2.52443253575812E-29,-1.));
#1095=DIRECTION('',(2.60571268426351E-16,-0.978852667502131,-0.204566505870251));
#1096=DIRECTION('center_axis',(-1.,-1.38777878078154E-17,-1.20736753927985E-15));
#1097=DIRECTION('ref_axis',(-1.20736753927985E-15,2.52443253575812E-29,
1.));
#1098=DIRECTION('',(-8.36833851104203E-16,-0.712866261699665,0.701300002089223));
#1099=DIRECTION('',(1.02320510638976E-15,-0.540640817455598,-0.841253532831181));
#1100=DIRECTION('',(-4.18206864298701E-16,-0.934060267615121,0.357115410564665));
#1101=DIRECTION('center_axis',(-1.,-1.38777878078154E-17,-1.20736753927985E-15));
#1102=DIRECTION('ref_axis',(-1.20736753927985E-15,2.52443253575812E-29,
1.));
#1103=DIRECTION('',(-1.17457621807133E-15,-0.22054985467987,0.975375702793897));
#1104=DIRECTION('',(5.14182281842724E-16,-0.909631995354519,-0.415415013001885));
#1105=DIRECTION('',(-9.64207272517415E-16,-0.592710332514787,0.805415707402215));
#1106=DIRECTION('center_axis',(-1.,-1.38777878078154E-17,-1.20736753927985E-15));
#1107=DIRECTION('ref_axis',(-1.20736753927985E-15,2.52443253575812E-29,
1.));
#1108=DIRECTION('',(-1.13939893495979E-15,0.341789572869975,0.939776509536901));
#1109=DIRECTION('',(-1.58089784150977E-16,-0.989821441880933,0.142314838273285));
#1110=DIRECTION('',(-1.20407868447489E-15,-0.0631790547320968,0.998002207935012));
#1111=DIRECTION('center_axis',(-1.,-1.38777878078154E-17,-1.20736753927985E-15));
#1112=DIRECTION('ref_axis',(-1.20736753927985E-15,2.52443253575812E-29,
1.));
#1113=DIRECTION('',(-7.42470540606685E-16,0.795613226003325,0.60580491464545));
#1114=DIRECTION('',(-7.80169460685783E-16,-0.755749574354258,0.654860733945285));
#1115=DIRECTION('',(-1.06166362172502E-15,0.486411126526165,0.873730058995081));
#1116=DIRECTION('center_axis',(-1.,-1.38777878078154E-17,-1.20736753927985E-15));
#1117=DIRECTION('ref_axis',(-1.20736753927985E-15,2.52443253575812E-29,
1.));
#1118=DIRECTION('',(-1.09812995657111E-16,0.996835301415045,0.0794945397670547));
#1119=DIRECTION('',(-1.15455084586685E-15,-0.28173255684143,0.959492973614497));
#1120=DIRECTION('',(-5.82177860434157E-16,0.881569211929159,0.472054789805804));
#1121=DIRECTION('center_axis',(-1.,-1.38777878078154E-17,-1.20736753927985E-15));
#1122=DIRECTION('ref_axis',(-1.20736753927985E-15,2.52443253575812E-29,
1.));
#1123=DIRECTION('center_axis',(1.,1.38777878078154E-17,1.20736753927985E-15));
#1124=DIRECTION('ref_axis',(8.7824718606731E-16,0.677852348993273,-0.735198063765338));
#1125=DIRECTION('',(-1.20736753927985E-15,2.07765516436677E-14,1.));
#1126=DIRECTION('center_axis',(-1.1737828066259E-15,0.0794945397670547,
0.996835301415045));
#1127=DIRECTION('ref_axis',(-8.21452580723556E-17,-0.996835301415045,0.0794945397670547));
#1128=DIRECTION('',(8.21452580723556E-17,0.996835301415045,-0.0794945397670547));
#1129=DIRECTION('',(1.,0.,1.20274161001058E-15));
#1130=DIRECTION('center_axis',(1.,0.,1.20274161001058E-15));
#1131=DIRECTION('ref_axis',(-1.20274161001058E-15,2.52443253575812E-29,
1.));
#1132=DIRECTION('center_axis',(1.,1.38777878078154E-17,1.20736753927985E-15));
#1133=DIRECTION('ref_axis',(-1.20736753927985E-15,2.52443253575812E-29,
1.));
#1134=DIRECTION('',(-1.,0.,-1.20274161001058E-15));
#1135=DIRECTION('center_axis',(1.,0.,1.20274161001058E-15));
#1136=DIRECTION('ref_axis',(-1.20274161001058E-15,2.52443253575812E-29,
1.));
#1137=DIRECTION('',(1.,0.,1.20274161001058E-15));
#1138=DIRECTION('center_axis',(1.,1.38777878078154E-17,1.20736753927985E-15));
#1139=DIRECTION('ref_axis',(-1.20736753927985E-15,2.52443253575812E-29,
1.));
#1140=DIRECTION('center_axis',(-1.07110010549214E-15,0.415415013001885,
0.909631995354519));
#1141=DIRECTION('ref_axis',(-4.88934922213264E-16,-0.909631995354519,0.415415013001884));
#1142=DIRECTION('',(4.88934922213264E-16,0.909631995354519,-0.415415013001884));
#1143=DIRECTION('',(1.,0.,1.17750926854183E-15));
#1144=DIRECTION('',(1.,0.,1.17750926854183E-15));
#1145=DIRECTION('center_axis',(2.59699498061101E-16,0.975375702793897,-0.220549854679871));
#1146=DIRECTION('ref_axis',(-1.18069770623992E-15,0.220549854679871,0.975375702793897));
#1147=DIRECTION('',(1.18069770623992E-15,-0.220549854679871,-0.975375702793897));
#1148=DIRECTION('',(1.,0.,1.20274161001058E-15));
#1149=DIRECTION('center_axis',(-6.97921910096669E-16,-0.805415707402215,
0.592710332514787));
#1150=DIRECTION('ref_axis',(9.80658288969695E-16,-0.592710332514787,-0.805415707402215));
#1151=DIRECTION('',(-9.80658288969695E-16,0.592710332514787,0.805415707402215));
#1152=DIRECTION('',(-1.,0.,-1.20274161001058E-15));
#1153=DIRECTION('center_axis',(1.,0.,1.20274161001058E-15));
#1154=DIRECTION('ref_axis',(-1.20274161001058E-15,2.52443253575812E-29,
1.));
#1155=DIRECTION('center_axis',(1.,1.38777878078154E-17,1.20736753927985E-15));
#1156=DIRECTION('ref_axis',(-1.20736753927985E-15,2.52443253575812E-29,
1.));
#1157=DIRECTION('',(-1.,0.,-1.20274161001058E-15));
#1158=DIRECTION('center_axis',(1.,0.,1.20274161001058E-15));
#1159=DIRECTION('ref_axis',(-1.20274161001058E-15,2.52443253575812E-29,
1.));
#1160=DIRECTION('',(1.,0.,1.20274161001058E-15));
#1161=DIRECTION('center_axis',(1.,1.38777878078154E-17,1.20736753927985E-15));
#1162=DIRECTION('ref_axis',(-1.20736753927985E-15,2.52443253575812E-29,
1.));
#1163=DIRECTION('center_axis',(1.16552392201623E-15,-0.142314838273285,
-0.989821441880933));
#1164=DIRECTION('ref_axis',(1.58089784150977E-16,0.989821441880933,-0.142314838273285));
#1165=DIRECTION('',(-1.58089784150977E-16,-0.989821441880933,0.142314838273285));
#1166=DIRECTION('',(1.,0.,1.17750926854183E-15));
#1167=DIRECTION('',(1.,0.,1.17750926854183E-15));
#1168=DIRECTION('center_axis',(7.43939225247553E-17,-0.998002207935012,
-0.0631790547320968));
#1169=DIRECTION('ref_axis',(1.20407868447489E-15,0.0631790547320968,-0.998002207935012));
#1170=DIRECTION('',(-1.20407868447489E-15,-0.0631790547320968,0.998002207935012));
#1171=DIRECTION('',(1.,0.,1.20274161001058E-15));
#1172=DIRECTION('center_axis',(4.02460389945347E-16,0.939776509536901,-0.341789572869975));
#1173=DIRECTION('ref_axis',(-1.13939893495979E-15,0.341789572869975,0.939776509536901));
#1174=DIRECTION('',(1.13939893495979E-15,-0.341789572869975,-0.939776509536901));
#1175=DIRECTION('',(-1.,0.,-1.20274161001058E-15));
#1176=DIRECTION('center_axis',(1.,0.,1.20274161001058E-15));
#1177=DIRECTION('ref_axis',(-1.20274161001058E-15,2.52443253575812E-29,
1.));
#1178=DIRECTION('center_axis',(1.,1.38777878078154E-17,1.20736753927985E-15));
#1179=DIRECTION('ref_axis',(-1.20736753927985E-15,2.52443253575812E-29,
1.));
#1180=DIRECTION('',(-1.,0.,-1.20274161001058E-15));
#1181=DIRECTION('center_axis',(1.,0.,1.20274161001058E-15));
#1182=DIRECTION('ref_axis',(-1.20274161001058E-15,2.52443253575812E-29,
1.));
#1183=DIRECTION('',(1.,0.,1.20274161001058E-15));
#1184=DIRECTION('center_axis',(1.,1.38777878078154E-17,1.20736753927985E-15));
#1185=DIRECTION('ref_axis',(-1.20736753927985E-15,2.52443253575812E-29,
1.));
#1186=DIRECTION('center_axis',(1.07110010549214E-15,0.415415013001885,-0.909631995354519));
#1187=DIRECTION('ref_axis',(-5.14182281842724E-16,0.909631995354519,0.415415013001885));
#1188=DIRECTION('',(5.14182281842724E-16,-0.909631995354519,-0.415415013001885));
#1189=DIRECTION('',(1.,0.,1.17750926854183E-15));
#1190=DIRECTION('',(1.,0.,1.17750926854183E-15));
#1191=DIRECTION('center_axis',(6.97921910096669E-16,-0.805415707402215,
-0.592710332514787));
#1192=DIRECTION('ref_axis',(9.64207272517415E-16,0.592710332514787,-0.805415707402215));
#1193=DIRECTION('',(-9.64207272517415E-16,-0.592710332514787,0.805415707402215));
#1194=DIRECTION('center_axis',(-2.596994980611E-16,0.975375702793897,0.22054985467987));
#1195=DIRECTION('ref_axis',(-1.17457621807133E-15,-0.22054985467987,0.975375702793897));
#1196=DIRECTION('',(1.17457621807133E-15,0.22054985467987,-0.975375702793897));
#1197=DIRECTION('',(-1.,0.,-1.20274161001058E-15));
#1198=DIRECTION('center_axis',(1.,0.,1.20274161001058E-15));
#1199=DIRECTION('ref_axis',(-1.20274161001058E-15,2.52443253575812E-29,
1.));
#1200=DIRECTION('',(1.,0.,1.20274161001058E-15));
#1201=DIRECTION('center_axis',(1.,1.38777878078154E-17,1.20736753927985E-15));
#1202=DIRECTION('ref_axis',(-1.20736753927985E-15,2.52443253575812E-29,
1.));
#1203=DIRECTION('center_axis',(3.63765862348509E-16,-0.959492973614497,
-0.28173255684143));
#1204=DIRECTION('ref_axis',(1.15455084586685E-15,0.28173255684143,-0.959492973614497));
#1205=DIRECTION('',(-1.15455084586685E-15,-0.28173255684143,0.959492973614497));
#1206=DIRECTION('',(1.,2.10269512239612E-17,1.21956317098975E-15));
#1207=DIRECTION('',(1.,2.10269512239612E-17,1.21956317098975E-15));
#1208=DIRECTION('center_axis',(-1.06520347050698E-15,-0.472054789805803,
0.881569211929159));
#1209=DIRECTION('ref_axis',(5.82177860434157E-16,-0.881569211929159,-0.472054789805804));
#1210=DIRECTION('',(-5.82177860434157E-16,0.881569211929159,0.472054789805804));
#1211=DIRECTION('center_axis',(1.214032093338E-15,0.0794945397670547,-0.996835301415045));
#1212=DIRECTION('ref_axis',(-1.09812995657111E-16,0.996835301415045,0.0794945397670547));
#1213=DIRECTION('',(1.09812995657111E-16,-0.996835301415045,-0.0794945397670547));
#1214=DIRECTION('',(-1.,0.,-1.20274161001058E-15));
#1215=DIRECTION('center_axis',(1.,0.,1.20274161001058E-15));
#1216=DIRECTION('ref_axis',(-1.20274161001058E-15,2.52443253575812E-29,
1.));
#1217=DIRECTION('',(1.,0.,1.20274161001058E-15));
#1218=DIRECTION('center_axis',(1.,1.38777878078154E-17,1.20736753927985E-15));
#1219=DIRECTION('ref_axis',(-1.20736753927985E-15,2.52443253575812E-29,
1.));
#1220=DIRECTION('center_axis',(-8.89902128498679E-16,-0.654860733945285,
0.755749574354258));
#1221=DIRECTION('ref_axis',(8.01145725143253E-16,-0.755749574354258,-0.654860733945285));
#1222=DIRECTION('',(-8.01145725143253E-16,0.755749574354258,0.654860733945285));
#1223=DIRECTION('',(1.,0.,1.17750926854183E-15));
#1224=DIRECTION('',(1.,0.,1.17750926854183E-15));
#1225=DIRECTION('center_axis',(-9.36841947793379E-16,0.60580491464545,0.795613226003326));
#1226=DIRECTION('ref_axis',(-7.20387837551553E-16,-0.795613226003326,0.60580491464545));
#1227=DIRECTION('',(7.20387837551553E-16,0.795613226003326,-0.60580491464545));
#1228=DIRECTION('',(1.,0.,1.20274161001058E-15));
#1229=DIRECTION('center_axis',(5.72753609806431E-16,-0.87373005899508,-0.486411126526165));
#1230=DIRECTION('ref_axis',(1.04816300092244E-15,0.486411126526165,-0.87373005899508));
#1231=DIRECTION('',(-1.04816300092244E-15,-0.486411126526165,0.87373005899508));
#1232=DIRECTION('center_axis',(1.,0.,1.20274161001058E-15));
#1233=DIRECTION('ref_axis',(-1.20274161001058E-15,2.52443253575812E-29,
1.));
#1234=DIRECTION('center_axis',(1.,1.38777878078154E-17,1.20736753927985E-15));
#1235=DIRECTION('ref_axis',(-1.20736753927985E-15,2.52443253575812E-29,
1.));
#1236=DIRECTION('',(-1.,0.,-1.20274161001058E-15));
#1237=DIRECTION('center_axis',(-6.36609573505996E-16,0.841253532831181,
0.540640817455598));
#1238=DIRECTION('ref_axis',(-1.00819930929997E-15,-0.540640817455598,0.841253532831181));
#1239=DIRECTION('',(1.00819930929997E-15,0.540640817455598,-0.841253532831181));
#1240=DIRECTION('',(1.,0.,1.17750926854183E-15));
#1241=DIRECTION('',(1.,0.,1.17750926854183E-15));
#1242=DIRECTION('center_axis',(8.39406630382119E-16,0.701300002089223,-0.712866261699665));
#1243=DIRECTION('ref_axis',(-8.5661986453464E-16,0.712866261699665,0.701300002089223));
#1244=DIRECTION('',(8.5661986453464E-16,-0.712866261699665,-0.701300002089223));
#1245=DIRECTION('',(1.,0.,1.20274161001058E-15));
#1246=DIRECTION('center_axis',(-1.09986462249346E-15,-0.357115410564665,
0.934060267615121));
#1247=DIRECTION('ref_axis',(4.44132244686048E-16,-0.934060267615121,-0.357115410564665));
#1248=DIRECTION('',(-4.44132244686048E-16,0.934060267615121,0.357115410564665));
#1249=DIRECTION('center_axis',(1.,0.,1.20274161001058E-15));
#1250=DIRECTION('ref_axis',(-1.20274161001058E-15,2.52443253575812E-29,
1.));
#1251=DIRECTION('center_axis',(1.,1.38777878078154E-17,1.20736753927985E-15));
#1252=DIRECTION('ref_axis',(-1.20736753927985E-15,2.52443253575812E-29,
1.));
#1253=DIRECTION('',(-1.,0.,-1.20274161001058E-15));
#1254=DIRECTION('center_axis',(8.89902128498679E-16,-0.654860733945285,
-0.755749574354258));
#1255=DIRECTION('ref_axis',(7.80169460685783E-16,0.755749574354258,-0.654860733945285));
#1256=DIRECTION('',(-7.80169460685783E-16,-0.755749574354258,0.654860733945285));
#1257=DIRECTION('',(1.,0.,1.17750926854183E-15));
#1258=DIRECTION('',(1.,0.,1.17750926854183E-15));
#1259=DIRECTION('center_axis',(-5.7275360980643E-16,-0.873730058995081,
0.486411126526165));
#1260=DIRECTION('ref_axis',(1.06166362172502E-15,-0.486411126526165,-0.873730058995081));
#1261=DIRECTION('',(-1.06166362172502E-15,0.486411126526165,0.873730058995081));
#1262=DIRECTION('center_axis',(9.36841947793378E-16,0.60580491464545,-0.795613226003325));
#1263=DIRECTION('ref_axis',(-7.42470540606685E-16,0.795613226003325,0.60580491464545));
#1264=DIRECTION('',(7.42470540606685E-16,-0.795613226003325,-0.60580491464545));
#1265=DIRECTION('center_axis',(6.36609573505996E-16,0.841253532831181,-0.540640817455598));
#1266=DIRECTION('ref_axis',(-1.02320510638976E-15,0.540640817455598,0.841253532831181));
#1267=DIRECTION('',(1.02320510638976E-15,-0.540640817455598,-0.841253532831181));
#1268=DIRECTION('',(1.,0.,1.17750926854183E-15));
#1269=DIRECTION('',(1.,0.,1.17750926854183E-15));
#1270=DIRECTION('center_axis',(1.09986462249346E-15,-0.357115410564665,
-0.934060267615121));
#1271=DIRECTION('ref_axis',(4.18206864298701E-16,0.934060267615121,-0.357115410564665));
#1272=DIRECTION('',(-4.18206864298701E-16,-0.934060267615121,0.357115410564665));
#1273=DIRECTION('center_axis',(-8.39406630382119E-16,0.701300002089223,
0.712866261699665));
#1274=DIRECTION('ref_axis',(-8.36833851104203E-16,-0.712866261699665,0.701300002089223));
#1275=DIRECTION('',(8.36833851104203E-16,0.712866261699665,-0.701300002089223));
#1276=DIRECTION('',(-1.,0.,-1.20274161001058E-15));
#1277=DIRECTION('center_axis',(1.,0.,1.20274161001058E-15));
#1278=DIRECTION('ref_axis',(-1.20274161001058E-15,2.52443253575812E-29,
1.));
#1279=DIRECTION('',(1.,0.,1.20274161001058E-15));
#1280=DIRECTION('center_axis',(1.,1.38777878078154E-17,1.20736753927985E-15));
#1281=DIRECTION('ref_axis',(-1.20736753927985E-15,2.52443253575812E-29,
1.));
#1282=DIRECTION('center_axis',(-1.16552392201623E-15,-0.142314838273285,
0.989821441880933));
#1283=DIRECTION('ref_axis',(1.85562848027076E-16,-0.989821441880933,-0.142314838273285));
#1284=DIRECTION('',(-1.85562848027076E-16,0.989821441880933,0.142314838273285));
#1285=DIRECTION('',(1.,0.,1.17750926854183E-15));
#1286=DIRECTION('',(1.,0.,1.17750926854183E-15));
#1287=DIRECTION('center_axis',(-4.02460389945348E-16,0.9397765095369,0.341789572869975));
#1288=DIRECTION('ref_axis',(-1.12991236862536E-15,-0.341789572869975,0.9397765095369));
#1289=DIRECTION('',(1.12991236862536E-15,0.341789572869975,-0.9397765095369));
#1290=DIRECTION('center_axis',(-7.43939225247549E-17,-0.998002207935012,
0.0631790547320965));
#1291=DIRECTION('ref_axis',(1.20583225550583E-15,-0.0631790547320965,-0.998002207935012));
#1292=DIRECTION('',(-1.20583225550583E-15,0.0631790547320965,0.998002207935012));
#1293=DIRECTION('center_axis',(-1.18348151946317E-15,0.204566505870251,
0.978852667502131));
#1294=DIRECTION('ref_axis',(-2.33402649196934E-16,-0.978852667502131,0.204566505870251));
#1295=DIRECTION('',(2.33402649196934E-16,0.978852667502131,-0.204566505870251));
#1296=DIRECTION('',(1.,0.,1.20904969537777E-15));
#1297=DIRECTION('center_axis',(3.05216438836008E-44,1.,-2.52443253575812E-29));
#1298=DIRECTION('ref_axis',(-1.20736753927985E-15,2.52443253575812E-29,
1.));
#1299=DIRECTION('',(1.20736753927985E-15,-2.52443253575812E-29,-1.));
#1300=DIRECTION('',(1.,0.,1.20904969537777E-15));
#1301=DIRECTION('center_axis',(1.18348151946317E-15,0.204566505870251,-0.978852667502131));
#1302=DIRECTION('ref_axis',(-2.60571268426351E-16,0.978852667502131,0.204566505870251));
#1303=DIRECTION('',(2.60571268426351E-16,-0.978852667502131,-0.204566505870251));
#1304=DIRECTION('center_axis',(-2.4988823174373E-29,-1.,2.07765516436677E-14));
#1305=DIRECTION('ref_axis',(1.20736753927985E-15,-2.07765516436677E-14,
-1.));
#1306=DIRECTION('',(1.,0.,1.20274161001058E-15));
#1307=DIRECTION('',(1.20736753927985E-15,-2.07765516436677E-14,-1.));
#1308=DIRECTION('',(1.,0.,1.20274161001058E-15));
#1309=DIRECTION('center_axis',(1.,0.,1.20274161001058E-15));
#1310=DIRECTION('ref_axis',(-2.58100463956539E-29,-1.,2.13289490469094E-14));
#1311=DIRECTION('center_axis',(-1.,-1.38777878078154E-17,-1.20736753927985E-15));
#1312=DIRECTION('ref_axis',(8.7824718606731E-16,0.677852348993273,-0.735198063765338));
#1313=DIRECTION('center_axis',(-1.,-1.38777878078154E-17,-1.20736753927985E-15));
#1314=DIRECTION('ref_axis',(-1.20736753927985E-15,2.52443253575812E-29,
1.));
#1315=CARTESIAN_POINT('',(0.,0.,0.));
#1316=CARTESIAN_POINT('Origin',(-188.57158715186,1.69539257897444,0.447716767884327));
#1317=CARTESIAN_POINT('',(-184.058133642904,1.97146008322291,1.41047856967556));
#1318=CARTESIAN_POINT('',(-184.058133642904,1.69539257897444,0.44771676788433));
#1319=CARTESIAN_POINT('',(-184.058133642904,1.761614491189,0.678660021040146));
#1320=CARTESIAN_POINT('',(-187.058133642904,1.97146008322291,1.41047856967555));
#1321=CARTESIAN_POINT('',(-187.814860397382,1.97146008322291,1.41047856967555));
#1322=CARTESIAN_POINT('',(-187.058133642904,1.69539257897444,0.447716767884327));
#1323=CARTESIAN_POINT('',(-187.058133642904,1.761614491189,0.678660021040142));
#1324=CARTESIAN_POINT('',(-187.814860397382,1.69539257897444,0.447716767884326));
#1325=CARTESIAN_POINT('Origin',(-187.058133642904,0.611848479524438,1.02792326238279));
#1326=CARTESIAN_POINT('',(-187.058133642904,2.01288152137583,0.277710631164798));
#1327=CARTESIAN_POINT('',(-187.058133642904,0.611848479524438,1.02792326238279));
#1328=CARTESIAN_POINT('',(-184.058133642904,2.01288152137583,0.277710631164801));
#1329=CARTESIAN_POINT('',(-187.058133642904,2.01288152137583,0.277710631164798));
#1330=CARTESIAN_POINT('',(-184.058133642904,2.44008836857856,0.0489537329757462));
#1331=CARTESIAN_POINT('Origin',(-187.058133642904,5.,-1.40360753057695E-13));
#1332=CARTESIAN_POINT('',(-187.058133642904,2.33693432422306,1.38133312654791));
#1333=CARTESIAN_POINT('',(-187.058133642904,0.752714757945153,1.50766974919004));
#1334=CARTESIAN_POINT('',(-187.058133642904,2.63721772952124,1.84858322569223));
#1335=CARTESIAN_POINT('Origin',(-187.058133642904,5.,-1.40638308813851E-13));
#1336=CARTESIAN_POINT('',(-187.058133642904,1.86418930365775,3.23715790110778));
#1337=CARTESIAN_POINT('',(-187.058133642904,1.86418930365775,3.23715790110778));
#1338=CARTESIAN_POINT('',(-187.058133642904,2.24206409083487,3.56458826808042));
#1339=CARTESIAN_POINT('',(-187.058133642904,1.86418930365775,3.23715790110778));
#1340=CARTESIAN_POINT('',(-187.058133642904,3.50649166280663,2.60181337661513));
#1341=CARTESIAN_POINT('',(-187.058133642904,2.24206409083487,3.56458826808042));
#1342=CARTESIAN_POINT('',(-187.058133642904,4.01172061392189,2.83254370752726));
#1343=CARTESIAN_POINT('Origin',(-187.058133642904,5.,-1.40638308813851E-13));
#1344=CARTESIAN_POINT('',(-187.058133642904,4.11212786730011,4.41861777889575));
#1345=CARTESIAN_POINT('',(-187.058133642904,4.11212786730011,4.41861777889575));
#1346=CARTESIAN_POINT('',(-187.058133642904,4.60703858824057,4.48977519803239));
#1347=CARTESIAN_POINT('',(-187.058133642904,4.11212786730011,4.41861777889575));
#1348=CARTESIAN_POINT('',(-187.058133642904,5.15022734582344,2.99623626314186));
#1349=CARTESIAN_POINT('',(-187.058133642904,4.60703858824057,4.48977519803239));
#1350=CARTESIAN_POINT('',(-187.058133642904,5.69999522055388,2.9171915760198));
#1351=CARTESIAN_POINT('Origin',(-187.058133642904,5.,-1.40638308813851E-13));
#1352=CARTESIAN_POINT('',(-187.058133642904,6.64195955966997,4.19719773234561));
#1353=CARTESIAN_POINT('',(-187.058133642904,6.64195955966997,4.19719773234561));
#1354=CARTESIAN_POINT('',(-187.058133642904,7.09677555734723,3.98949022584467));
#1355=CARTESIAN_POINT('',(-187.058133642904,6.64195955966997,4.19719773234561));
#1356=CARTESIAN_POINT('',(-187.058133642904,6.74626690799702,2.43937530651479));
#1357=CARTESIAN_POINT('',(-187.058133642904,7.09677555734723,3.98949022584467));
#1358=CARTESIAN_POINT('',(-187.058133642904,7.1660262905899,2.07565173101673));
#1359=CARTESIAN_POINT('Origin',(-187.058133642904,5.,-1.40638308813851E-13));
#1360=CARTESIAN_POINT('',(-187.058133642904,8.65048069337648,2.64319706175774));
#1361=CARTESIAN_POINT('',(-187.058133642904,8.65048069337648,2.64319706175774));
#1362=CARTESIAN_POINT('',(-187.058133642904,8.92080110210428,2.22257029534215));
#1363=CARTESIAN_POINT('',(-187.058133642904,8.65048069337648,2.64319706175774));
#1364=CARTESIAN_POINT('',(-187.058133642904,7.78787906541391,1.10802992587153));
#1365=CARTESIAN_POINT('',(-187.058133642904,8.92080110210428,2.22257029534215));
#1366=CARTESIAN_POINT('',(-187.058133642904,7.94435931777406,0.575107127270121));
#1367=CARTESIAN_POINT('Origin',(-187.058133642904,5.,-1.40638308813851E-13));
#1368=CARTESIAN_POINT('',(-187.058133642904,9.5,0.249999999999735));
#1369=CARTESIAN_POINT('',(-187.058133642904,9.5,0.249999999999735));
#1370=CARTESIAN_POINT('',(-187.058133642904,9.5,-0.250000000000265));
#1371=CARTESIAN_POINT('',(-187.058133642904,9.5,0.249999999999735));
#1372=CARTESIAN_POINT('',(-187.058133642904,7.94435931777406,-0.575107127270652));
#1373=CARTESIAN_POINT('',(-187.058133642904,9.5,-0.250000000000265));
#1374=CARTESIAN_POINT('',(-187.058133642904,7.78787906541377,-1.10802992587202));
#1375=CARTESIAN_POINT('Origin',(-187.058133642904,5.,-1.40638308813851E-13));
#1376=CARTESIAN_POINT('',(-187.058133642904,8.92080110210415,-2.22257029534264));
#1377=CARTESIAN_POINT('',(-187.058133642904,8.92080110210415,-2.22257029534264));
#1378=CARTESIAN_POINT('',(-187.058133642904,8.65048069337635,-2.64319706175823));
#1379=CARTESIAN_POINT('',(-187.058133642904,8.92080110210415,-2.22257029534264));
#1380=CARTESIAN_POINT('',(-187.058133642904,7.16602629058977,-2.07565173101723));
#1381=CARTESIAN_POINT('',(-187.058133642904,8.65048069337635,-2.64319706175823));
#1382=CARTESIAN_POINT('',(-187.058133642904,6.74626690799679,-2.43937530651518));
#1383=CARTESIAN_POINT('Origin',(-187.058133642904,5.,-1.40638308813851E-13));
#1384=CARTESIAN_POINT('',(-187.058133642904,7.09677555734701,-3.98949022584505));
#1385=CARTESIAN_POINT('',(-187.058133642904,7.09677555734701,-3.98949022584505));
#1386=CARTESIAN_POINT('',(-187.058133642904,6.64195955966975,-4.197197732346));
#1387=CARTESIAN_POINT('',(-187.058133642904,7.09677555734701,-3.98949022584505));
#1388=CARTESIAN_POINT('',(-187.058133642904,5.69999522055366,-2.91719157602019));
#1389=CARTESIAN_POINT('',(-187.058133642904,6.64195955966975,-4.197197732346));
#1390=CARTESIAN_POINT('',(-187.058133642904,5.1502273458232,-2.9962362631421));
#1391=CARTESIAN_POINT('Origin',(-187.058133642904,5.,-1.40638308813851E-13));
#1392=CARTESIAN_POINT('',(-187.058133642904,4.60703858824033,-4.48977519803264));
#1393=CARTESIAN_POINT('',(-187.058133642904,4.60703858824033,-4.48977519803264));
#1394=CARTESIAN_POINT('',(-187.058133642904,4.11212786729986,-4.418617778896));
#1395=CARTESIAN_POINT('',(-187.058133642904,4.60703858824033,-4.48977519803264));
#1396=CARTESIAN_POINT('',(-187.058133642904,4.01172061392165,-2.83254370752751));
#1397=CARTESIAN_POINT('',(-187.058133642904,4.11212786729986,-4.418617778896));
#1398=CARTESIAN_POINT('',(-187.058133642904,3.50649166280644,-2.60181337661525));
#1399=CARTESIAN_POINT('Origin',(-187.058133642904,5.,-1.40638308813851E-13));
#1400=CARTESIAN_POINT('',(-187.058133642904,2.24206409083469,-3.56458826808054));
#1401=CARTESIAN_POINT('',(-187.058133642904,2.24206409083469,-3.56458826808054));
#1402=CARTESIAN_POINT('',(-187.058133642904,1.86418930365756,-3.2371579011079));
#1403=CARTESIAN_POINT('',(-187.058133642904,2.24206409083469,-3.56458826808054));
#1404=CARTESIAN_POINT('',(-187.058133642904,2.63721772952105,-1.84858322569235));
#1405=CARTESIAN_POINT('',(-187.058133642904,1.86418930365756,-3.2371579011079));
#1406=CARTESIAN_POINT('',(-187.058133642904,2.33693432422299,-1.38133312654795));
#1407=CARTESIAN_POINT('Origin',(-187.058133642904,5.,-1.40638308813851E-13));
#1408=CARTESIAN_POINT('',(-187.058133642904,0.752714757945085,-1.50766974919008));
#1409=CARTESIAN_POINT('',(-187.058133642904,0.752714757945085,-1.50766974919008));
#1410=CARTESIAN_POINT('',(-187.058133642904,0.611848479524371,-1.02792326238283));
#1411=CARTESIAN_POINT('',(-187.058133642904,0.752714757945085,-1.50766974919008));
#1412=CARTESIAN_POINT('',(-187.058133642904,2.01288152137576,-0.27771063116484));
#1413=CARTESIAN_POINT('',(-187.058133642904,0.611848479524371,-1.02792326238283));
#1414=CARTESIAN_POINT('Origin',(-187.058133642904,5.,-1.40638308813851E-13));
#1415=CARTESIAN_POINT('',(-187.058133642904,6.01000000000002,1.09544511501017));
#1416=CARTESIAN_POINT('',(-187.058133642904,6.00999999999998,-1.09544511501049));
#1417=CARTESIAN_POINT('Origin',(-187.058133642904,5.,-1.40638308813851E-13));
#1418=CARTESIAN_POINT('',(-187.058133642904,6.00999999999998,-1.09544511501049));
#1419=CARTESIAN_POINT('Origin',(-187.058133642904,2.33693432422306,1.38133312654791));
#1420=CARTESIAN_POINT('',(-184.058133642904,2.33693432422306,1.38133312654791));
#1421=CARTESIAN_POINT('',(-184.058133642904,3.59868389977553,1.28071249075438));
#1422=CARTESIAN_POINT('',(-187.058133642904,2.33693432422311,1.3813331265479));
#1423=CARTESIAN_POINT('Origin',(-187.058133642904,5.,-1.40638308813851E-13));
#1424=CARTESIAN_POINT('',(-184.058133642904,2.63721772952124,1.84858322569224));
#1425=CARTESIAN_POINT('Origin',(-184.058133642904,5.,-1.37030083983819E-13));
#1426=CARTESIAN_POINT('',(-187.058133642904,2.63721772952124,1.84858322569223));
#1427=CARTESIAN_POINT('Origin',(-187.058133642904,5.,-1.40638308813851E-13));
#1428=CARTESIAN_POINT('',(-184.058133642904,2.01288152137576,-0.277710631164837));
#1429=CARTESIAN_POINT('',(-187.058133642904,2.01288152137581,-0.277710631164816));
#1430=CARTESIAN_POINT('Origin',(-184.058133642904,5.,-1.37030083983819E-13));
#1431=CARTESIAN_POINT('Origin',(-187.058133642904,7.09677555734723,3.98949022584467));
#1432=CARTESIAN_POINT('',(-184.058133642904,6.64195955966997,4.19719773234562));
#1433=CARTESIAN_POINT('',(-184.058133642904,7.09677555734723,3.98949022584467));
#1434=CARTESIAN_POINT('',(-184.058133642904,6.8863965758834,4.08556708743974));
#1435=CARTESIAN_POINT('',(-187.058133642904,7.09677555734723,3.98949022584467));
#1436=CARTESIAN_POINT('',(-187.058133642904,6.64195955966997,4.19719773234561));
#1437=CARTESIAN_POINT('Origin',(-187.058133642904,6.74626690799702,2.43937530651479));
#1438=CARTESIAN_POINT('',(-184.058133642904,6.74626690799702,2.4393753065148));
#1439=CARTESIAN_POINT('',(-184.058133642904,6.43573454866443,1.06605443689142));
#1440=CARTESIAN_POINT('',(-187.058133642904,6.74626690799701,2.43937530651474));
#1441=CARTESIAN_POINT('Origin',(-187.058133642904,6.64195955966997,4.19719773234561));
#1442=CARTESIAN_POINT('',(-184.058133642904,5.69999522055388,2.91719157601981));
#1443=CARTESIAN_POINT('',(-184.058133642904,5.3106737447269,2.38815468454257));
#1444=CARTESIAN_POINT('',(-187.058133642904,5.69999522055388,2.9171915760198));
#1445=CARTESIAN_POINT('Origin',(-187.058133642904,5.,-1.40638308813851E-13));
#1446=CARTESIAN_POINT('',(-184.058133642904,7.1660262905899,2.07565173101674));
#1447=CARTESIAN_POINT('Origin',(-184.058133642904,5.,-1.37030083983819E-13));
#1448=CARTESIAN_POINT('',(-187.058133642904,7.1660262905899,2.07565173101673));
#1449=CARTESIAN_POINT('Origin',(-187.058133642904,5.,-1.40638308813851E-13));
#1450=CARTESIAN_POINT('',(-184.058133642904,5.15022734582344,2.99623626314186));
#1451=CARTESIAN_POINT('',(-187.058133642904,5.15022734582346,2.99623626314181));
#1452=CARTESIAN_POINT('Origin',(-184.058133642904,5.,-1.37030083983819E-13));
#1453=CARTESIAN_POINT('Origin',(-187.058133642904,4.11212786729986,-4.418617778896));
#1454=CARTESIAN_POINT('',(-184.058133642904,4.60703858824033,-4.48977519803264));
#1455=CARTESIAN_POINT('',(-184.058133642904,4.11212786729986,-4.418617778896));
#1456=CARTESIAN_POINT('',(-184.058133642904,4.12138431490823,-4.41994865514158));
#1457=CARTESIAN_POINT('',(-187.058133642904,4.11212786729986,-4.418617778896));
#1458=CARTESIAN_POINT('',(-187.058133642904,4.60703858824033,-4.48977519803264));
#1459=CARTESIAN_POINT('Origin',(-187.058133642904,4.01172061392165,-2.83254370752751));
#1460=CARTESIAN_POINT('',(-184.058133642904,4.01172061392165,-2.8325437075275));
#1461=CARTESIAN_POINT('',(-184.058133642904,3.92392669318676,-1.44571500127001));
#1462=CARTESIAN_POINT('',(-187.058133642904,4.01172061392164,-2.83254370752746));
#1463=CARTESIAN_POINT('Origin',(-187.058133642904,4.60703858824033,-4.48977519803264));
#1464=CARTESIAN_POINT('',(-184.058133642904,5.1502273458232,-2.9962362631421));
#1465=CARTESIAN_POINT('',(-184.058133642904,5.33741344787697,-2.48155379303399));
#1466=CARTESIAN_POINT('',(-187.058133642904,5.1502273458232,-2.9962362631421));
#1467=CARTESIAN_POINT('Origin',(-187.058133642904,5.,-1.40638308813851E-13));
#1468=CARTESIAN_POINT('',(-184.058133642904,3.50649166280644,-2.60181337661525));
#1469=CARTESIAN_POINT('Origin',(-184.058133642904,5.,-1.37030083983819E-13));
#1470=CARTESIAN_POINT('',(-187.058133642904,3.50649166280644,-2.60181337661525));
#1471=CARTESIAN_POINT('Origin',(-187.058133642904,5.,-1.40638308813851E-13));
#1472=CARTESIAN_POINT('',(-184.058133642904,5.69999522055366,-2.91719157602018));
#1473=CARTESIAN_POINT('',(-187.058133642904,5.69999522055363,-2.91719157602015));
#1474=CARTESIAN_POINT('Origin',(-184.058133642904,5.,-1.37030083983819E-13));
#1475=CARTESIAN_POINT('Origin',(-187.058133642904,6.64195955966975,-4.197197732346));
#1476=CARTESIAN_POINT('',(-184.058133642904,7.09677555734701,-3.98949022584505));
#1477=CARTESIAN_POINT('',(-184.058133642904,6.64195955966975,-4.19719773234599));
#1478=CARTESIAN_POINT('',(-184.058133642904,6.65898857704466,-4.18942084069054));
#1479=CARTESIAN_POINT('',(-187.058133642904,6.64195955966975,-4.197197732346));
#1480=CARTESIAN_POINT('',(-187.058133642904,7.09677555734701,-3.98949022584505));
#1481=CARTESIAN_POINT('Origin',(-187.058133642904,5.69999522055366,-2.91719157602019));
#1482=CARTESIAN_POINT('',(-184.058133642904,4.83969157516864,-1.74815160638006));
#1483=CARTESIAN_POINT('Origin',(-187.058133642904,7.09677555734701,-3.98949022584505));
#1484=CARTESIAN_POINT('',(-184.058133642904,6.74626690799679,-2.43937530651517));
#1485=CARTESIAN_POINT('',(-184.058133642904,6.6109888733393,-1.84111189655669));
#1486=CARTESIAN_POINT('',(-187.058133642904,6.74626690799679,-2.43937530651518));
#1487=CARTESIAN_POINT('Origin',(-187.058133642904,5.,-1.40638308813851E-13));
#1488=CARTESIAN_POINT('',(-184.058133642904,7.16602629058977,-2.07565173101722));
#1489=CARTESIAN_POINT('',(-187.058133642904,7.16602629058972,-2.07565173101721));
#1490=CARTESIAN_POINT('Origin',(-184.058133642904,5.,-1.37030083983819E-13));
#1491=CARTESIAN_POINT('Origin',(-187.058133642904,0.611848479524371,-1.02792326238283));
#1492=CARTESIAN_POINT('',(-184.058133642904,0.752714757945085,-1.50766974919007));
#1493=CARTESIAN_POINT('',(-184.058133642904,0.611848479524371,-1.02792326238283));
#1494=CARTESIAN_POINT('',(-184.058133642904,0.637791270648775,-1.11627629505638));
#1495=CARTESIAN_POINT('',(-187.058133642904,0.611848479524371,-1.02792326238283));
#1496=CARTESIAN_POINT('',(-187.058133642904,0.752714757945085,-1.50766974919008));
#1497=CARTESIAN_POINT('Origin',(-187.058133642904,2.01288152137576,-0.27771063116484));
#1498=CARTESIAN_POINT('',(-184.058133642904,3.14060488950417,0.326152582633205));
#1499=CARTESIAN_POINT('Origin',(-187.058133642904,0.752714757945085,-1.50766974919008));
#1500=CARTESIAN_POINT('',(-184.058133642904,2.33693432422299,-1.38133312654795));
#1501=CARTESIAN_POINT('',(-184.058133642904,2.80657411663654,-1.34388080207547));
#1502=CARTESIAN_POINT('',(-187.058133642904,2.33693432422299,-1.38133312654795));
#1503=CARTESIAN_POINT('Origin',(-187.058133642904,5.,-1.40638308813851E-13));
#1504=CARTESIAN_POINT('',(-184.058133642904,2.63721772952105,-1.84858322569235));
#1505=CARTESIAN_POINT('',(-187.058133642904,2.63721772952107,-1.84858322569231));
#1506=CARTESIAN_POINT('Origin',(-184.058133642904,5.,-1.37030083983819E-13));
#1507=CARTESIAN_POINT('Origin',(-187.058133642904,2.24206409083487,3.56458826808042));
#1508=CARTESIAN_POINT('',(-184.058133642904,1.86418930365775,3.23715790110779));
#1509=CARTESIAN_POINT('',(-184.058133642904,2.24206409083487,3.56458826808043));
#1510=CARTESIAN_POINT('',(-184.058133642904,2.0808627293432,3.42490649321523));
#1511=CARTESIAN_POINT('',(-187.058133642904,2.24206409083487,3.56458826808042));
#1512=CARTESIAN_POINT('',(-187.058133642904,1.86418930365775,3.23715790110778));
#1513=CARTESIAN_POINT('Origin',(-187.058133642904,3.50649166280663,2.60181337661513));
#1514=CARTESIAN_POINT('',(-184.058133642904,3.50649166280663,2.60181337661514));
#1515=CARTESIAN_POINT('',(-184.058133642904,4.53224843783005,1.82076993084233));
#1516=CARTESIAN_POINT('',(-187.058133642904,3.50649166280667,2.6018133766151));
#1517=CARTESIAN_POINT('Origin',(-187.058133642904,1.86418930365775,3.23715790110778));
#1518=CARTESIAN_POINT('',(-184.058133642904,2.89538895550762,1.38483569153754));
#1519=CARTESIAN_POINT('Origin',(-187.058133642904,5.,-1.40638308813851E-13));
#1520=CARTESIAN_POINT('',(-184.058133642904,4.01172061392189,2.83254370752726));
#1521=CARTESIAN_POINT('Origin',(-184.058133642904,5.,-1.37030083983819E-13));
#1522=CARTESIAN_POINT('',(-187.058133642904,4.01172061392189,2.83254370752726));
#1523=CARTESIAN_POINT('Origin',(-187.058133642904,8.92080110210428,2.22257029534215));
#1524=CARTESIAN_POINT('',(-184.058133642904,8.65048069337648,2.64319706175774));
#1525=CARTESIAN_POINT('',(-184.058133642904,8.92080110210428,2.22257029534215));
#1526=CARTESIAN_POINT('',(-184.058133642904,8.8190702451414,2.38086659864522));
#1527=CARTESIAN_POINT('',(-187.058133642904,8.92080110210428,2.22257029534215));
#1528=CARTESIAN_POINT('',(-187.058133642904,8.65048069337648,2.64319706175774));
#1529=CARTESIAN_POINT('Origin',(-187.058133642904,7.78787906541391,1.10802992587153));
#1530=CARTESIAN_POINT('',(-184.058133642904,7.78787906541391,1.10802992587153));
#1531=CARTESIAN_POINT('',(-184.058133642904,6.74316447356041,0.0802658348867109));
#1532=CARTESIAN_POINT('',(-187.058133642904,7.78787906541387,1.10802992587149));
#1533=CARTESIAN_POINT('Origin',(-187.058133642904,8.65048069337648,2.64319706175774));
#1534=CARTESIAN_POINT('',(-184.058133642904,6.51523661937943,1.82683799952277));
#1535=CARTESIAN_POINT('Origin',(-187.058133642904,5.,-1.40638308813851E-13));
#1536=CARTESIAN_POINT('',(-184.058133642904,7.94435931777406,0.575107127270125));
#1537=CARTESIAN_POINT('Origin',(-184.058133642904,5.,-1.37030083983819E-13));
#1538=CARTESIAN_POINT('',(-187.058133642904,7.94435931777406,0.575107127270121));
#1539=CARTESIAN_POINT('Origin',(-187.058133642904,1.86418930365756,-3.2371579011079));
#1540=CARTESIAN_POINT('',(-184.058133642904,2.24206409083469,-3.56458826808054));
#1541=CARTESIAN_POINT('',(-184.058133642904,1.86418930365756,-3.2371579011079));
#1542=CARTESIAN_POINT('',(-184.058133642904,1.89192533575453,-3.26119130972909));
#1543=CARTESIAN_POINT('',(-187.058133642904,1.86418930365756,-3.2371579011079));
#1544=CARTESIAN_POINT('',(-187.058133642904,2.24206409083469,-3.56458826808054));
#1545=CARTESIAN_POINT('Origin',(-187.058133642904,2.63721772952105,-1.84858322569235));
#1546=CARTESIAN_POINT('',(-184.058133642904,3.28190316843917,-0.690548353829885));
#1547=CARTESIAN_POINT('Origin',(-187.058133642904,2.24206409083469,-3.56458826808054));
#1548=CARTESIAN_POINT('',(-184.058133642904,3.90003465184401,-2.30215737657507));
#1549=CARTESIAN_POINT('Origin',(-187.058133642904,8.65048069337635,-2.64319706175823));
#1550=CARTESIAN_POINT('',(-184.058133642904,8.92080110210415,-2.22257029534264));
#1551=CARTESIAN_POINT('',(-184.058133642904,8.65048069337635,-2.64319706175823));
#1552=CARTESIAN_POINT('',(-184.058133642904,8.68391004077744,-2.59117998185338));
#1553=CARTESIAN_POINT('',(-187.058133642904,8.65048069337635,-2.64319706175823));
#1554=CARTESIAN_POINT('',(-187.058133642904,8.92080110210415,-2.22257029534264));
#1555=CARTESIAN_POINT('Origin',(-187.058133642904,7.16602629058977,-2.07565173101723));
#1556=CARTESIAN_POINT('',(-184.058133642904,5.77300941798602,-1.54306533415276));
#1557=CARTESIAN_POINT('Origin',(-187.058133642904,8.92080110210415,-2.22257029534264));
#1558=CARTESIAN_POINT('',(-184.058133642904,7.78787906541377,-1.10802992587201));
#1559=CARTESIAN_POINT('',(-184.058133642904,7.30962549190543,-0.63753601962248));
#1560=CARTESIAN_POINT('',(-187.058133642904,7.78787906541377,-1.10802992587202));
#1561=CARTESIAN_POINT('Origin',(-187.058133642904,5.,-1.40638308813851E-13));
#1562=CARTESIAN_POINT('',(-184.058133642904,7.94435931777406,-0.575107127270649));
#1563=CARTESIAN_POINT('',(-187.058133642904,7.94435931777401,-0.575107127270663));
#1564=CARTESIAN_POINT('Origin',(-184.058133642904,5.,-1.37030083983819E-13));
#1565=CARTESIAN_POINT('Origin',(-187.058133642904,4.60703858824057,4.48977519803239));
#1566=CARTESIAN_POINT('',(-184.058133642904,4.11212786730011,4.41861777889576));
#1567=CARTESIAN_POINT('',(-184.058133642904,4.60703858824057,4.4897751980324));
#1568=CARTESIAN_POINT('',(-184.058133642904,4.36883967537859,4.45552736470964));
#1569=CARTESIAN_POINT('',(-187.058133642904,4.60703858824057,4.48977519803239));
#1570=CARTESIAN_POINT('',(-187.058133642904,4.11212786730011,4.41861777889575));
#1571=CARTESIAN_POINT('Origin',(-187.058133642904,5.15022734582344,2.99623626314186));
#1572=CARTESIAN_POINT('',(-184.058133642904,5.60900782666864,1.73478432558852));
#1573=CARTESIAN_POINT('Origin',(-187.058133642904,4.11212786730011,4.41861777889575));
#1574=CARTESIAN_POINT('',(-184.058133642904,3.97413031987612,2.23875203695401));
#1575=CARTESIAN_POINT('Origin',(-187.058133642904,9.5,0.249999999999735));
#1576=CARTESIAN_POINT('',(-184.058133642904,9.5,0.249999999999738));
#1577=CARTESIAN_POINT('',(-184.058133642904,9.15239478917499,0.322644623405854));
#1578=CARTESIAN_POINT('',(-187.058133642904,9.5,0.249999999999735));
#1579=CARTESIAN_POINT('Origin',(-187.058133642904,9.5,-0.250000000000265));
#1580=CARTESIAN_POINT('',(-184.058133642904,9.5,-0.250000000000262));
#1581=CARTESIAN_POINT('',(-184.058133642904,9.5,-0.125000000000262));
#1582=CARTESIAN_POINT('',(-187.058133642904,9.5,-0.250000000000265));
#1583=CARTESIAN_POINT('Origin',(-187.058133642904,7.94435931777406,-0.575107127270652));
#1584=CARTESIAN_POINT('',(-184.058133642904,8.37457444806202,-0.485198187041571));
#1585=CARTESIAN_POINT('Origin',(-187.058133642904,6.01000000000002,1.09544511501017));
#1586=CARTESIAN_POINT('',(-184.058133642904,6.00999999999998,-1.09544511501049));
#1587=CARTESIAN_POINT('',(-187.058133642904,6.00999999999998,-1.09544511501049));
#1588=CARTESIAN_POINT('',(-184.058133642904,6.01000000000002,1.09544511501017));
#1589=CARTESIAN_POINT('',(-184.058133642904,6.00999999999998,-1.09544511501049));
#1590=CARTESIAN_POINT('',(-187.058133642904,6.01000000000002,1.09544511501017));
#1591=CARTESIAN_POINT('Origin',(-187.058133642904,5.,-1.40638308813851E-13));
#1592=CARTESIAN_POINT('Origin',(-184.058133642904,5.,-1.37030083983819E-13));
#1593=CARTESIAN_POINT('Origin',(-184.058133642904,5.,-1.36752528227663E-13));
#1594=UNCERTAINTY_MEASURE_WITH_UNIT(LENGTH_MEASURE(0.01),#1598,
'DISTANCE_ACCURACY_VALUE',
'Maximum model space distance between geometric entities at asserted c
onnectivities');
#1595=UNCERTAINTY_MEASURE_WITH_UNIT(LENGTH_MEASURE(0.01),#1598,
'DISTANCE_ACCURACY_VALUE',
'Maximum model space distance between geometric entities at asserted c
onnectivities');
#1596=(
GEOMETRIC_REPRESENTATION_CONTEXT(3)
GLOBAL_UNCERTAINTY_ASSIGNED_CONTEXT((#1594))
GLOBAL_UNIT_ASSIGNED_CONTEXT((#1598,#1600,#1601))
REPRESENTATION_CONTEXT('','3D')
);
#1597=(
GEOMETRIC_REPRESENTATION_CONTEXT(3)
GLOBAL_UNCERTAINTY_ASSIGNED_CONTEXT((#1595))
GLOBAL_UNIT_ASSIGNED_CONTEXT((#1598,#1600,#1601))
REPRESENTATION_CONTEXT('','3D')
);
#1598=(
LENGTH_UNIT()
NAMED_UNIT(*)
SI_UNIT(.MILLI.,.METRE.)
);
#1599=(
LENGTH_UNIT()
NAMED_UNIT(*)
SI_UNIT($,.METRE.)
);
#1600=(
NAMED_UNIT(*)
PLANE_ANGLE_UNIT()
SI_UNIT($,.RADIAN.)
);
#1601=(
NAMED_UNIT(*)
SI_UNIT($,.STERADIAN.)
SOLID_ANGLE_UNIT()
);
#1602=SHAPE_DEFINITION_REPRESENTATION(#1603,#1604);
#1603=PRODUCT_DEFINITION_SHAPE('',$,#1606);
#1604=SHAPE_REPRESENTATION('',(#982),#1596);
#1605=PRODUCT_DEFINITION_CONTEXT('part definition',#1610,'design');
#1606=PRODUCT_DEFINITION('2026-06-13-13-58-24-218','steering.gear',#1607,
#1605);
#1607=PRODUCT_DEFINITION_FORMATION('',$,#1612);
#1608=PRODUCT_RELATED_PRODUCT_CATEGORY('steering.gear','steering.gear',
(#1612));
#1609=APPLICATION_PROTOCOL_DEFINITION('international standard',
'automotive_design',2009,#1610);
#1610=APPLICATION_CONTEXT(
'Core Data for Automotive Mechanical Design Process');
#1611=PRODUCT_CONTEXT('part definition',#1610,'mechanical');
#1612=PRODUCT('2026-06-13-13-58-24-218','steering.gear',$,(#1611));
#1613=PRESENTATION_STYLE_ASSIGNMENT((#1614));
#1614=SURFACE_STYLE_USAGE(.BOTH.,#1615);
#1615=SURFACE_SIDE_STYLE('',(#1616));
#1616=SURFACE_STYLE_FILL_AREA(#1617);
#1617=FILL_AREA_STYLE('\X\C7elik - Saten',(#1618));
#1618=FILL_AREA_STYLE_COLOUR('\X\C7elik - Saten',#1619);
#1619=COLOUR_RGB('\X\C7elik - Saten',0.627450980392157,0.627450980392157,
0.627450980392157);
ENDSEC;
END-ISO-10303-21;
